<svg width="255" height="42" viewBox="0 0 255 42" fill="none" xmlns="http://www.w3.org/2000/svg">
<g filter="url(#filter0_d_25_2)">
<rect width="250" height="37" fill="white"/>
</g>
<path d="M51.734 24L50.908 21.214H47.478L46.652 24H45.434L48.43 14.228H49.984L52.98 24H51.734ZM49.256 15.474H49.13L47.758 20.192H50.628L49.256 15.474ZM54.7245 16.776H55.8445V17.952H55.9005C56.3672 17.056 57.1092 16.608 58.1265 16.608C59.0132 16.608 59.7039 16.9393 60.1985 17.602C60.7025 18.2647 60.9545 19.1933 60.9545 20.388C60.9545 21.5827 60.7025 22.5113 60.1985 23.174C59.7039 23.8367 59.0132 24.168 58.1265 24.168C57.1092 24.168 56.3672 23.72 55.9005 22.824H55.8445V26.8H54.7245V16.776ZM57.6925 23.174C58.3459 23.174 58.8499 22.978 59.2045 22.586C59.5685 22.1847 59.7505 21.6573 59.7505 21.004V19.772C59.7505 19.1187 59.5685 18.596 59.2045 18.204C58.8499 17.8027 58.3459 17.602 57.6925 17.602C57.4405 17.602 57.2025 17.6347 56.9785 17.7C56.7545 17.7653 56.5585 17.8633 56.3905 17.994C56.2225 18.1153 56.0872 18.2693 55.9845 18.456C55.8912 18.6333 55.8445 18.8433 55.8445 19.086V21.69C55.8445 21.9327 55.8912 22.1473 55.9845 22.334C56.0872 22.5113 56.2225 22.6653 56.3905 22.796C56.5585 22.9173 56.7545 23.0107 56.9785 23.076C57.2025 23.1413 57.4405 23.174 57.6925 23.174ZM63.1191 16.776H64.2391V17.952H64.2951C64.7617 17.056 65.5037 16.608 66.5211 16.608C67.4077 16.608 68.0984 16.9393 68.5931 17.602C69.0971 18.2647 69.3491 19.1933 69.3491 20.388C69.3491 21.5827 69.0971 22.5113 68.5931 23.174C68.0984 23.8367 67.4077 24.168 66.5211 24.168C65.5037 24.168 64.7617 23.72 64.2951 22.824H64.2391V26.8H63.1191V16.776ZM66.0871 23.174C66.7404 23.174 67.2444 22.978 67.5991 22.586C67.9631 22.1847 68.1451 21.6573 68.1451 21.004V19.772C68.1451 19.1187 67.9631 18.596 67.5991 18.204C67.2444 17.8027 66.7404 17.602 66.0871 17.602C65.8351 17.602 65.5971 17.6347 65.3731 17.7C65.1491 17.7653 64.9531 17.8633 64.7851 17.994C64.6171 18.1153 64.4817 18.2693 64.3791 18.456C64.2857 18.6333 64.2391 18.8433 64.2391 19.086V21.69C64.2391 21.9327 64.2857 22.1473 64.3791 22.334C64.4817 22.5113 64.6171 22.6653 64.7851 22.796C64.9531 22.9173 65.1491 23.0107 65.3731 23.076C65.5971 23.1413 65.8351 23.174 66.0871 23.174ZM71.2616 23.048H73.3756V17.728H71.2616V16.776H74.4956V18.596H74.5656C74.7149 18.0267 74.9949 17.5833 75.4056 17.266C75.8256 16.9393 76.3576 16.776 77.0016 16.776H78.0096V17.896H76.6516C76.0076 17.896 75.4849 18.0827 75.0836 18.456C74.6916 18.8293 74.4956 19.3193 74.4956 19.926V23.048H77.2956V24H71.2616V23.048ZM82.7781 24.168C82.2741 24.168 81.8168 24.0793 81.4061 23.902C81.0048 23.7247 80.6595 23.4727 80.3701 23.146C80.0901 22.81 79.8755 22.4133 79.7261 21.956C79.5768 21.4893 79.5021 20.9667 79.5021 20.388C79.5021 19.8187 79.5768 19.3007 79.7261 18.834C79.8755 18.3673 80.0901 17.9707 80.3701 17.644C80.6595 17.308 81.0048 17.0513 81.4061 16.874C81.8168 16.6967 82.2741 16.608 82.7781 16.608C83.2821 16.608 83.7348 16.6967 84.1361 16.874C84.5468 17.0513 84.8921 17.308 85.1721 17.644C85.4615 17.9707 85.6808 18.3673 85.8301 18.834C85.9795 19.3007 86.0541 19.8187 86.0541 20.388C86.0541 20.9667 85.9795 21.4893 85.8301 21.956C85.6808 22.4133 85.4615 22.81 85.1721 23.146C84.8921 23.4727 84.5468 23.7247 84.1361 23.902C83.7348 24.0793 83.2821 24.168 82.7781 24.168ZM82.7781 23.202C83.4035 23.202 83.9075 23.0153 84.2901 22.642C84.6728 22.2687 84.8641 21.69 84.8641 20.906V19.87C84.8641 19.086 84.6728 18.5073 84.2901 18.134C83.9075 17.7607 83.4035 17.574 82.7781 17.574C82.1528 17.574 81.6488 17.7607 81.2661 18.134C80.8835 18.5073 80.6921 19.086 80.6921 19.87V20.906C80.6921 21.69 80.8835 22.2687 81.2661 22.642C81.6488 23.0153 82.1528 23.202 82.7781 23.202ZM90.4587 24L87.8687 16.776H89.0027L90.0387 19.8L91.1587 23.062H91.2147L92.3347 19.8L93.3707 16.776H94.4767L91.8867 24H90.4587ZM99.6932 24.168C99.1705 24.168 98.6992 24.0793 98.2792 23.902C97.8685 23.7247 97.5139 23.4727 97.2152 23.146C96.9259 22.81 96.7019 22.4133 96.5432 21.956C96.3845 21.4893 96.3052 20.9713 96.3052 20.402C96.3052 19.8233 96.3845 19.3007 96.5432 18.834C96.7112 18.3673 96.9399 17.9707 97.2292 17.644C97.5185 17.308 97.8639 17.0513 98.2652 16.874C98.6759 16.6967 99.1285 16.608 99.6232 16.608C100.109 16.608 100.547 16.6967 100.939 16.874C101.341 17.0513 101.681 17.2987 101.961 17.616C102.241 17.924 102.456 18.2927 102.605 18.722C102.755 19.1513 102.829 19.6227 102.829 20.136V20.668H97.4812V21.004C97.4812 21.3213 97.5325 21.6153 97.6352 21.886C97.7379 22.1567 97.8825 22.39 98.0692 22.586C98.2652 22.782 98.4985 22.936 98.7692 23.048C99.0492 23.1507 99.3572 23.202 99.6932 23.202C100.179 23.202 100.599 23.09 100.953 22.866C101.308 22.642 101.579 22.334 101.765 21.942L102.591 22.502C102.377 22.9873 102.017 23.3887 101.513 23.706C101.019 24.014 100.412 24.168 99.6932 24.168ZM99.6232 17.532C99.3152 17.532 99.0305 17.588 98.7692 17.7C98.5079 17.812 98.2792 17.966 98.0832 18.162C97.8965 18.358 97.7472 18.5913 97.6352 18.862C97.5325 19.1233 97.4812 19.4127 97.4812 19.73V19.828H101.625V19.674C101.625 19.3567 101.574 19.0673 101.471 18.806C101.378 18.5447 101.243 18.3207 101.065 18.134C100.897 17.938 100.687 17.7887 100.435 17.686C100.193 17.5833 99.9219 17.532 99.6232 17.532ZM112.576 16.776H113.57L114.396 23.02H114.522L115.754 16.776H116.986L118.218 23.02H118.344L119.17 16.776H120.136L119.03 24H117.574L116.426 17.952H116.314L115.138 24H113.682L112.576 16.776ZM125.199 15.18C124.872 15.18 124.643 15.1147 124.513 14.984C124.382 14.844 124.317 14.6713 124.317 14.466V14.242C124.317 14.0367 124.382 13.8687 124.513 13.738C124.643 13.598 124.872 13.528 125.199 13.528C125.525 13.528 125.754 13.598 125.885 13.738C126.015 13.8687 126.081 14.0367 126.081 14.242V14.466C126.081 14.6713 126.015 14.844 125.885 14.984C125.754 15.1147 125.525 15.18 125.199 15.18ZM122.035 23.048H124.639V17.728H122.035V16.776H125.759V23.048H128.195V24H122.035V23.048ZM133.495 24C132.945 24 132.539 23.846 132.277 23.538C132.025 23.23 131.899 22.8333 131.899 22.348V17.728H129.491V16.776H131.283C131.526 16.776 131.694 16.7293 131.787 16.636C131.89 16.5333 131.941 16.3607 131.941 16.118V14.228H133.019V16.776H136.309V17.728H133.019V23.048H136.309V24H133.495ZM138.712 13.64H139.832V17.952H139.888C139.963 17.7747 140.056 17.6067 140.168 17.448C140.28 17.28 140.415 17.1353 140.574 17.014C140.742 16.8927 140.938 16.7947 141.162 16.72C141.386 16.6453 141.647 16.608 141.946 16.608C142.702 16.608 143.309 16.8507 143.766 17.336C144.223 17.812 144.452 18.4887 144.452 19.366V24H143.332V19.562C143.332 18.8993 143.187 18.4093 142.898 18.092C142.609 17.7653 142.184 17.602 141.624 17.602C141.4 17.602 141.181 17.63 140.966 17.686C140.751 17.742 140.56 17.826 140.392 17.938C140.224 18.05 140.089 18.1947 139.986 18.372C139.883 18.5493 139.832 18.7547 139.832 18.988V24H138.712V13.64ZM155.501 24V16.776H156.621V17.952H156.677C156.752 17.7747 156.845 17.6067 156.957 17.448C157.069 17.28 157.204 17.1353 157.363 17.014C157.531 16.8927 157.727 16.7947 157.951 16.72C158.175 16.6453 158.436 16.608 158.735 16.608C159.491 16.608 160.098 16.8507 160.555 17.336C161.012 17.812 161.241 18.4887 161.241 19.366V24H160.121V19.562C160.121 18.8993 159.976 18.4093 159.687 18.092C159.398 17.7653 158.973 17.602 158.413 17.602C158.189 17.602 157.97 17.63 157.755 17.686C157.54 17.742 157.349 17.826 157.181 17.938C157.013 18.05 156.878 18.1947 156.775 18.372C156.672 18.5493 156.621 18.7547 156.621 18.988V24H155.501ZM166.723 24.168C166.219 24.168 165.762 24.0793 165.351 23.902C164.95 23.7247 164.605 23.4727 164.315 23.146C164.035 22.81 163.821 22.4133 163.671 21.956C163.522 21.4893 163.447 20.9667 163.447 20.388C163.447 19.8187 163.522 19.3007 163.671 18.834C163.821 18.3673 164.035 17.9707 164.315 17.644C164.605 17.308 164.95 17.0513 165.351 16.874C165.762 16.6967 166.219 16.608 166.723 16.608C167.227 16.608 167.68 16.6967 168.081 16.874C168.492 17.0513 168.837 17.308 169.117 17.644C169.407 17.9707 169.626 18.3673 169.775 18.834C169.925 19.3007 169.999 19.8187 169.999 20.388C169.999 20.9667 169.925 21.4893 169.775 21.956C169.626 22.4133 169.407 22.81 169.117 23.146C168.837 23.4727 168.492 23.7247 168.081 23.902C167.68 24.0793 167.227 24.168 166.723 24.168ZM166.723 23.202C167.349 23.202 167.853 23.0153 168.235 22.642C168.618 22.2687 168.809 21.69 168.809 20.906V19.87C168.809 19.086 168.618 18.5073 168.235 18.134C167.853 17.7607 167.349 17.574 166.723 17.574C166.098 17.574 165.594 17.7607 165.211 18.134C164.829 18.5073 164.637 19.086 164.637 19.87V20.906C164.637 21.69 164.829 22.2687 165.211 22.642C165.594 23.0153 166.098 23.202 166.723 23.202ZM180.573 24V14.228H186.733V15.25H181.749V18.54H186.312V19.562H181.749V24H180.573ZM192.033 24.168C191.51 24.168 191.039 24.0793 190.619 23.902C190.208 23.7247 189.854 23.4727 189.555 23.146C189.266 22.81 189.042 22.4133 188.883 21.956C188.724 21.4893 188.645 20.9713 188.645 20.402C188.645 19.8233 188.724 19.3007 188.883 18.834C189.051 18.3673 189.28 17.9707 189.569 17.644C189.858 17.308 190.204 17.0513 190.605 16.874C191.016 16.6967 191.468 16.608 191.963 16.608C192.448 16.608 192.887 16.6967 193.279 16.874C193.68 17.0513 194.021 17.2987 194.301 17.616C194.581 17.924 194.796 18.2927 194.945 18.722C195.094 19.1513 195.169 19.6227 195.169 20.136V20.668H189.821V21.004C189.821 21.3213 189.872 21.6153 189.975 21.886C190.078 22.1567 190.222 22.39 190.409 22.586C190.605 22.782 190.838 22.936 191.109 23.048C191.389 23.1507 191.697 23.202 192.033 23.202C192.518 23.202 192.938 23.09 193.293 22.866C193.648 22.642 193.918 22.334 194.105 21.942L194.931 22.502C194.716 22.9873 194.357 23.3887 193.853 23.706C193.358 24.014 192.752 24.168 192.033 24.168ZM191.963 17.532C191.655 17.532 191.37 17.588 191.109 17.7C190.848 17.812 190.619 17.966 190.423 18.162C190.236 18.358 190.087 18.5913 189.975 18.862C189.872 19.1233 189.821 19.4127 189.821 19.73V19.828H193.965V19.674C193.965 19.3567 193.914 19.0673 193.811 18.806C193.718 18.5447 193.582 18.3207 193.405 18.134C193.237 17.938 193.027 17.7887 192.775 17.686C192.532 17.5833 192.262 17.532 191.963 17.532ZM200.428 24.168C199.905 24.168 199.434 24.0793 199.014 23.902C198.603 23.7247 198.248 23.4727 197.95 23.146C197.66 22.81 197.436 22.4133 197.278 21.956C197.119 21.4893 197.04 20.9713 197.04 20.402C197.04 19.8233 197.119 19.3007 197.278 18.834C197.446 18.3673 197.674 17.9707 197.964 17.644C198.253 17.308 198.598 17.0513 199 16.874C199.41 16.6967 199.863 16.608 200.358 16.608C200.843 16.608 201.282 16.6967 201.674 16.874C202.075 17.0513 202.416 17.2987 202.696 17.616C202.976 17.924 203.19 18.2927 203.34 18.722C203.489 19.1513 203.564 19.6227 203.564 20.136V20.668H198.216V21.004C198.216 21.3213 198.267 21.6153 198.37 21.886C198.472 22.1567 198.617 22.39 198.804 22.586C199 22.782 199.233 22.936 199.504 23.048C199.784 23.1507 200.092 23.202 200.428 23.202C200.913 23.202 201.333 23.09 201.688 22.866C202.042 22.642 202.313 22.334 202.5 21.942L203.326 22.502C203.111 22.9873 202.752 23.3887 202.248 23.706C201.753 24.014 201.146 24.168 200.428 24.168ZM200.358 17.532C200.05 17.532 199.765 17.588 199.504 17.7C199.242 17.812 199.014 17.966 198.818 18.162C198.631 18.358 198.482 18.5913 198.37 18.862C198.267 19.1233 198.216 19.4127 198.216 19.73V19.828H202.36V19.674C202.36 19.3567 202.308 19.0673 202.206 18.806C202.112 18.5447 201.977 18.3207 201.8 18.134C201.632 17.938 201.422 17.7887 201.17 17.686C200.927 17.5833 200.656 17.532 200.358 17.532Z" fill="#0A090E"/>
<defs>
<filter id="filter0_d_25_2" x="0" y="0" width="255" height="42" filterUnits="userSpaceOnUse" color-interpolation-filters="sRGB">
<feFlood flood-opacity="0" result="BackgroundImageFix"/>
<feColorMatrix in="SourceAlpha" type="matrix" values="0 0 0 0 0 0 0 0 0 0 0 0 0 0 0 0 0 0 127 0" result="hardAlpha"/>
<feOffset dx="5" dy="5"/>
<feComposite in2="hardAlpha" operator="out"/>
<feColorMatrix type="matrix" values="0 0 0 0 0.475 0 0 0 0 0.475 0 0 0 0 0.475 0 0 0 1 0"/>
<feBlend mode="normal" in2="BackgroundImageFix" result="effect1_dropShadow_25_2"/>
<feBlend mode="normal" in="SourceGraphic" in2="effect1_dropShadow_25_2" result="shape"/>
</filter>
</defs>
</svg>
