<svg width="400" height="600" viewBox="0 0 400 600" fill="none" xmlns="http://www.w3.org/2000/svg">
<rect width="400" height="600" fill="#0A090E"/>
<path d="M73.55 171.375V187H71.45V171.375H65.625V169.55H79.375V171.375H73.55ZM84.3402 187H82.2402V169.55H88.5902C90.2069 169.55 91.4402 169.992 92.2902 170.875C93.1402 171.758 93.5652 172.992 93.5652 174.575C93.5652 175.992 93.1986 177.125 92.4652 177.975C91.7319 178.825 90.6652 179.317 89.2652 179.45L93.7152 187H91.3652L87.1152 179.55H84.3402V187ZM88.5402 177.775C89.4236 177.775 90.1069 177.558 90.5902 177.125C91.0902 176.675 91.3402 176.042 91.3402 175.225V173.925C91.3402 173.108 91.0902 172.483 90.5902 172.05C90.1069 171.6 89.4236 171.375 88.5402 171.375H84.3402V177.775H88.5402ZM107.005 187L105.53 182.025H99.4055L97.9305 187H95.7555L101.105 169.55H103.88L109.23 187H107.005ZM102.58 171.775H102.355L99.9055 180.2H105.03L102.58 171.775ZM114.046 172.225H113.871V187H111.971V169.55H114.946L120.896 184.175H121.071V169.55H122.971V187H119.996L114.046 172.225ZM132.411 187.3C130.844 187.3 129.561 187.017 128.561 186.45C127.561 185.867 126.736 185.125 126.086 184.225L127.611 182.975C128.294 183.825 129.011 184.458 129.761 184.875C130.528 185.292 131.436 185.5 132.486 185.5C133.753 185.5 134.719 185.208 135.386 184.625C136.053 184.042 136.386 183.225 136.386 182.175C136.386 181.325 136.144 180.667 135.661 180.2C135.178 179.717 134.336 179.375 133.136 179.175L131.186 178.85C130.336 178.7 129.619 178.475 129.036 178.175C128.469 177.875 128.011 177.517 127.661 177.1C127.311 176.667 127.061 176.2 126.911 175.7C126.761 175.183 126.686 174.65 126.686 174.1C126.686 172.5 127.211 171.292 128.261 170.475C129.311 169.658 130.728 169.25 132.511 169.25C133.911 169.25 135.086 169.483 136.036 169.95C137.003 170.417 137.778 171.075 138.361 171.925L136.886 173.2C136.403 172.567 135.819 172.05 135.136 171.65C134.453 171.25 133.569 171.05 132.486 171.05C131.303 171.05 130.394 171.3 129.761 171.8C129.128 172.3 128.811 173.05 128.811 174.05C128.811 174.833 129.044 175.475 129.511 175.975C129.994 176.458 130.853 176.808 132.086 177.025L133.961 177.35C134.811 177.5 135.528 177.725 136.111 178.025C136.694 178.325 137.161 178.683 137.511 179.1C137.878 179.517 138.136 179.983 138.286 180.5C138.436 181.017 138.511 181.558 138.511 182.125C138.511 183.742 137.978 185.008 136.911 185.925C135.861 186.842 134.361 187.3 132.411 187.3ZM151.976 187L150.501 182.025H144.376L142.901 187H140.726L146.076 169.55H148.851L154.201 187H151.976ZM147.551 171.775H147.326L144.876 180.2H150.001L147.551 171.775ZM163.016 187.3C160.883 187.3 159.291 186.525 158.241 184.975C157.208 183.425 156.691 181.192 156.691 178.275C156.691 175.358 157.208 173.125 158.241 171.575C159.291 170.025 160.883 169.25 163.016 169.25C163.816 169.25 164.508 169.358 165.091 169.575C165.675 169.792 166.175 170.083 166.591 170.45C167.008 170.817 167.358 171.233 167.641 171.7C167.925 172.15 168.175 172.608 168.391 173.075L166.591 173.9C166.441 173.517 166.266 173.158 166.066 172.825C165.866 172.475 165.625 172.175 165.341 171.925C165.075 171.658 164.75 171.45 164.366 171.3C164 171.15 163.55 171.075 163.016 171.075C161.633 171.075 160.6 171.6 159.916 172.65C159.25 173.7 158.916 175.1 158.916 176.85V179.7C158.916 181.45 159.25 182.85 159.916 183.9C160.6 184.95 161.633 185.475 163.016 185.475C163.55 185.475 164 185.4 164.366 185.25C164.75 185.1 165.075 184.9 165.341 184.65C165.625 184.383 165.866 184.083 166.066 183.75C166.266 183.4 166.441 183.033 166.591 182.65L168.391 183.475C168.175 183.958 167.925 184.425 167.641 184.875C167.358 185.325 167.008 185.733 166.591 186.1C166.175 186.467 165.675 186.758 165.091 186.975C164.508 187.192 163.816 187.3 163.016 187.3ZM178.482 171.375V187H176.382V171.375H170.557V169.55H184.307V171.375H178.482ZM187.022 187V185.325H191.372V171.225H187.022V169.55H197.822V171.225H193.472V185.325H197.822V187H187.022ZM207.412 187.3C206.345 187.3 205.429 187.1 204.662 186.7C203.895 186.283 203.262 185.692 202.762 184.925C202.262 184.158 201.895 183.217 201.662 182.1C201.429 180.983 201.312 179.708 201.312 178.275C201.312 176.858 201.429 175.592 201.662 174.475C201.895 173.342 202.262 172.392 202.762 171.625C203.262 170.858 203.895 170.275 204.662 169.875C205.429 169.458 206.345 169.25 207.412 169.25C208.479 169.25 209.395 169.458 210.162 169.875C210.929 170.275 211.562 170.858 212.062 171.625C212.562 172.392 212.929 173.342 213.162 174.475C213.395 175.592 213.512 176.858 213.512 178.275C213.512 179.708 213.395 180.983 213.162 182.1C212.929 183.217 212.562 184.158 212.062 184.925C211.562 185.692 210.929 186.283 210.162 186.7C209.395 187.1 208.479 187.3 207.412 187.3ZM207.412 185.475C208.112 185.475 208.704 185.342 209.187 185.075C209.67 184.792 210.07 184.4 210.387 183.9C210.704 183.4 210.929 182.8 211.062 182.1C211.212 181.383 211.287 180.583 211.287 179.7V176.85C211.287 175.983 211.212 175.192 211.062 174.475C210.929 173.758 210.704 173.15 210.387 172.65C210.07 172.15 209.67 171.767 209.187 171.5C208.704 171.217 208.112 171.075 207.412 171.075C206.712 171.075 206.12 171.217 205.637 171.5C205.154 171.767 204.754 172.15 204.437 172.65C204.12 173.15 203.887 173.758 203.737 174.475C203.604 175.192 203.537 175.983 203.537 176.85V179.7C203.537 180.583 203.604 181.383 203.737 182.1C203.887 182.8 204.12 183.4 204.437 183.9C204.754 184.4 205.154 184.792 205.637 185.075C206.12 185.342 206.712 185.475 207.412 185.475ZM218.977 172.225H218.802V187H216.902V169.55H219.877L225.827 184.175H226.002V169.55H227.902V187H224.927L218.977 172.225ZM256.908 187L255.433 182.025H249.308L247.833 187H245.658L251.008 169.55H253.783L259.133 187H256.908ZM252.483 171.775H252.258L249.808 180.2H254.933L252.483 171.775ZM271.248 178.25V172.725H271.048L267.373 181.7L263.698 172.725H263.498V178.25V187H261.573V169.55H264.273L267.348 177.25H267.498L270.573 169.55H273.173V187H271.248V178.25ZM282.363 187.3C281.297 187.3 280.38 187.1 279.613 186.7C278.847 186.283 278.213 185.692 277.713 184.925C277.213 184.158 276.847 183.217 276.613 182.1C276.38 180.983 276.263 179.708 276.263 178.275C276.263 176.858 276.38 175.592 276.613 174.475C276.847 173.342 277.213 172.392 277.713 171.625C278.213 170.858 278.847 170.275 279.613 169.875C280.38 169.458 281.297 169.25 282.363 169.25C283.43 169.25 284.347 169.458 285.113 169.875C285.88 170.275 286.513 170.858 287.013 171.625C287.513 172.392 287.88 173.342 288.113 174.475C288.347 175.592 288.463 176.858 288.463 178.275C288.463 179.708 288.347 180.983 288.113 182.1C287.88 183.217 287.513 184.158 287.013 184.925C286.513 185.692 285.88 186.283 285.113 186.7C284.347 187.1 283.43 187.3 282.363 187.3ZM282.363 185.475C283.063 185.475 283.655 185.342 284.138 185.075C284.622 184.792 285.022 184.4 285.338 183.9C285.655 183.4 285.88 182.8 286.013 182.1C286.163 181.383 286.238 180.583 286.238 179.7V176.85C286.238 175.983 286.163 175.192 286.013 174.475C285.88 173.758 285.655 173.15 285.338 172.65C285.022 172.15 284.622 171.767 284.138 171.5C283.655 171.217 283.063 171.075 282.363 171.075C281.663 171.075 281.072 171.217 280.588 171.5C280.105 171.767 279.705 172.15 279.388 172.65C279.072 173.15 278.838 173.758 278.688 174.475C278.555 175.192 278.488 175.983 278.488 176.85V179.7C278.488 180.583 278.555 181.383 278.688 182.1C278.838 182.8 279.072 183.4 279.388 183.9C279.705 184.4 280.105 184.792 280.588 185.075C281.072 185.342 281.663 185.475 282.363 185.475ZM293.954 169.55V180.025C293.954 180.875 293.979 181.633 294.029 182.3C294.079 182.967 294.212 183.542 294.429 184.025C294.645 184.492 294.979 184.85 295.429 185.1C295.895 185.35 296.537 185.475 297.354 185.475C298.17 185.475 298.804 185.35 299.254 185.1C299.72 184.85 300.062 184.492 300.279 184.025C300.495 183.542 300.629 182.967 300.679 182.3C300.729 181.633 300.754 180.875 300.754 180.025V169.55H302.854V179.525C302.854 180.825 302.787 181.958 302.654 182.925C302.537 183.892 302.279 184.7 301.879 185.35C301.495 186 300.937 186.492 300.204 186.825C299.487 187.142 298.537 187.3 297.354 187.3C296.17 187.3 295.212 187.142 294.479 186.825C293.762 186.492 293.204 186 292.804 185.35C292.42 184.7 292.162 183.892 292.029 182.925C291.912 181.958 291.854 180.825 291.854 179.525V169.55H293.954ZM308.919 172.225H308.744V187H306.844V169.55H309.819L315.769 184.175H315.944V169.55H317.844V187H314.869L308.919 172.225ZM328.384 171.375V187H326.284V171.375H320.459V169.55H334.209V171.375H328.384Z" fill="#9F9EA1"/>
<path d="M168.47 219.18C167.53 219.18 166.76 219.01 166.16 218.67C165.56 218.32 165.065 217.875 164.675 217.335L165.59 216.585C166 217.095 166.43 217.475 166.88 217.725C167.34 217.975 167.885 218.1 168.515 218.1C169.275 218.1 169.855 217.925 170.255 217.575C170.655 217.225 170.855 216.735 170.855 216.105C170.855 215.595 170.71 215.2 170.42 214.92C170.13 214.63 169.625 214.425 168.905 214.305L167.735 214.11C167.225 214.02 166.795 213.885 166.445 213.705C166.105 213.525 165.83 213.31 165.62 213.06C165.41 212.8 165.26 212.52 165.17 212.22C165.08 211.91 165.035 211.59 165.035 211.26C165.035 210.3 165.35 209.575 165.98 209.085C166.61 208.595 167.46 208.35 168.53 208.35C169.37 208.35 170.075 208.49 170.645 208.77C171.225 209.05 171.69 209.445 172.04 209.955L171.155 210.72C170.865 210.34 170.515 210.03 170.105 209.79C169.695 209.55 169.165 209.43 168.515 209.43C167.805 209.43 167.26 209.58 166.88 209.88C166.5 210.18 166.31 210.63 166.31 211.23C166.31 211.7 166.45 212.085 166.73 212.385C167.02 212.675 167.535 212.885 168.275 213.015L169.4 213.21C169.91 213.3 170.34 213.435 170.69 213.615C171.04 213.795 171.32 214.01 171.53 214.26C171.75 214.51 171.905 214.79 171.995 215.1C172.085 215.41 172.13 215.735 172.13 216.075C172.13 217.045 171.81 217.805 171.17 218.355C170.54 218.905 169.64 219.18 168.47 219.18ZM174.344 219V208.53H180.794V209.625H175.604V213.15H180.614V214.245H175.604V217.905H180.794V219H174.344ZM184.433 210.135H184.328V219H183.188V208.53H184.973L188.543 217.305H188.648V208.53H189.788V219H188.003L184.433 210.135ZM192.407 208.53H195.332C196.612 208.53 197.567 208.97 198.197 209.85C198.827 210.73 199.142 212.035 199.142 213.765C199.142 215.495 198.827 216.8 198.197 217.68C197.567 218.56 196.612 219 195.332 219H192.407V208.53ZM195.272 217.905C196.112 217.905 196.742 217.615 197.162 217.035C197.592 216.455 197.807 215.635 197.807 214.575V212.955C197.807 211.895 197.592 211.075 197.162 210.495C196.742 209.915 196.112 209.625 195.272 209.625H193.667V217.905H195.272ZM201.237 219V217.995H203.847V209.535H201.237V208.53H207.717V209.535H205.107V217.995H207.717V219H201.237ZM211.416 210.135H211.311V219H210.171V208.53H211.956L215.526 217.305H215.631V208.53H216.771V219H214.986L211.416 210.135ZM224.625 217.605H224.55C224.46 217.805 224.355 218 224.235 218.19C224.115 218.38 223.96 218.55 223.77 218.7C223.59 218.84 223.37 218.955 223.11 219.045C222.85 219.135 222.54 219.18 222.18 219.18C221.04 219.18 220.19 218.72 219.63 217.8C219.08 216.88 218.805 215.56 218.805 213.84C218.805 212.04 219.11 210.675 219.72 209.745C220.33 208.815 221.27 208.35 222.54 208.35C223.03 208.35 223.455 208.415 223.815 208.545C224.175 208.675 224.48 208.85 224.73 209.07C224.99 209.29 225.205 209.54 225.375 209.82C225.545 210.09 225.685 210.365 225.795 210.645L224.715 211.14C224.625 210.91 224.52 210.695 224.4 210.495C224.29 210.285 224.15 210.105 223.98 209.955C223.82 209.795 223.625 209.67 223.395 209.58C223.165 209.49 222.895 209.445 222.585 209.445C221.745 209.445 221.125 209.76 220.725 210.39C220.335 211.02 220.14 211.86 220.14 212.91V214.53C220.14 215.06 220.18 215.545 220.26 215.985C220.34 216.415 220.47 216.79 220.65 217.11C220.84 217.43 221.08 217.68 221.37 217.86C221.67 218.03 222.035 218.115 222.465 218.115C223.145 218.115 223.675 217.91 224.055 217.5C224.435 217.09 224.625 216.56 224.625 215.91V214.83H222.42V213.825H225.795V219H224.625V217.605ZM231.459 219.135C231.049 219.135 230.759 219.05 230.589 218.88C230.429 218.71 230.349 218.495 230.349 218.235V217.965C230.349 217.705 230.429 217.49 230.589 217.32C230.759 217.15 231.049 217.065 231.459 217.065C231.869 217.065 232.154 217.15 232.314 217.32C232.484 217.49 232.569 217.705 232.569 217.965V218.235C232.569 218.495 232.484 218.71 232.314 218.88C232.154 219.05 231.869 219.135 231.459 219.135ZM231.459 213.195C231.049 213.195 230.759 213.11 230.589 212.94C230.429 212.77 230.349 212.555 230.349 212.295V212.025C230.349 211.765 230.429 211.55 230.589 211.38C230.759 211.21 231.049 211.125 231.459 211.125C231.869 211.125 232.154 211.21 232.314 211.38C232.484 211.55 232.569 211.765 232.569 212.025V212.295C232.569 212.555 232.484 212.77 232.314 212.94C232.154 213.11 231.869 213.195 231.459 213.195Z" fill="#575657"/>
<path d="M340 50H386V96H340V50Z" fill="white" fill-opacity="0.01"/>
<path d="M347.619 61.4519H378.285" stroke="white" stroke-width="3" stroke-linecap="round" stroke-linejoin="round"/>
<path d="M347.619 72.9519H378.285" stroke="white" stroke-width="3" stroke-linecap="round" stroke-linejoin="round"/>
<path d="M347.619 84.4519H378.285" stroke="white" stroke-width="3" stroke-linecap="round" stroke-linejoin="round"/>
<path d="M289.47 37.18C288.53 37.18 287.76 37.01 287.16 36.67C286.56 36.32 286.065 35.875 285.675 35.335L286.59 34.585C287 35.095 287.43 35.475 287.88 35.725C288.34 35.975 288.885 36.1 289.515 36.1C290.275 36.1 290.855 35.925 291.255 35.575C291.655 35.225 291.855 34.735 291.855 34.105C291.855 33.595 291.71 33.2 291.42 32.92C291.13 32.63 290.625 32.425 289.905 32.305L288.735 32.11C288.225 32.02 287.795 31.885 287.445 31.705C287.105 31.525 286.83 31.31 286.62 31.06C286.41 30.8 286.26 30.52 286.17 30.22C286.08 29.91 286.035 29.59 286.035 29.26C286.035 28.3 286.35 27.575 286.98 27.085C287.61 26.595 288.46 26.35 289.53 26.35C290.37 26.35 291.075 26.49 291.645 26.77C292.225 27.05 292.69 27.445 293.04 27.955L292.155 28.72C291.865 28.34 291.515 28.03 291.105 27.79C290.695 27.55 290.165 27.43 289.515 27.43C288.805 27.43 288.26 27.58 287.88 27.88C287.5 28.18 287.31 28.63 287.31 29.23C287.31 29.7 287.45 30.085 287.73 30.385C288.02 30.675 288.535 30.885 289.275 31.015L290.4 31.21C290.91 31.3 291.34 31.435 291.69 31.615C292.04 31.795 292.32 32.01 292.53 32.26C292.75 32.51 292.905 32.79 292.995 33.1C293.085 33.41 293.13 33.735 293.13 34.075C293.13 35.045 292.81 35.805 292.17 36.355C291.54 36.905 290.64 37.18 289.47 37.18ZM298.494 37.18C297.854 37.18 297.304 37.06 296.844 36.82C296.384 36.57 296.004 36.215 295.704 35.755C295.404 35.295 295.184 34.73 295.044 34.06C294.904 33.39 294.834 32.625 294.834 31.765C294.834 30.915 294.904 30.155 295.044 29.485C295.184 28.805 295.404 28.235 295.704 27.775C296.004 27.315 296.384 26.965 296.844 26.725C297.304 26.475 297.854 26.35 298.494 26.35C299.134 26.35 299.684 26.475 300.144 26.725C300.604 26.965 300.984 27.315 301.284 27.775C301.584 28.235 301.804 28.805 301.944 29.485C302.084 30.155 302.154 30.915 302.154 31.765C302.154 32.625 302.084 33.39 301.944 34.06C301.804 34.73 301.584 35.295 301.284 35.755C300.984 36.215 300.604 36.57 300.144 36.82C299.684 37.06 299.134 37.18 298.494 37.18ZM298.494 36.085C298.914 36.085 299.269 36.005 299.559 35.845C299.849 35.675 300.089 35.44 300.279 35.14C300.469 34.84 300.604 34.48 300.684 34.06C300.774 33.63 300.819 33.15 300.819 32.62V30.91C300.819 30.39 300.774 29.915 300.684 29.485C300.604 29.055 300.469 28.69 300.279 28.39C300.089 28.09 299.849 27.86 299.559 27.7C299.269 27.53 298.914 27.445 298.494 27.445C298.074 27.445 297.719 27.53 297.429 27.7C297.139 27.86 296.899 28.09 296.709 28.39C296.519 28.69 296.379 29.055 296.289 29.485C296.209 29.915 296.169 30.39 296.169 30.91V32.62C296.169 33.15 296.209 33.63 296.289 34.06C296.379 34.48 296.519 34.84 296.709 35.14C296.899 35.44 297.139 35.675 297.429 35.845C297.719 36.005 298.074 36.085 298.494 36.085ZM304.788 37V26.53H306.048V35.905H311.013V37H304.788ZM327.802 31.75V28.435H327.682L325.477 33.82L323.272 28.435H323.152V31.75V37H321.997V26.53H323.617L325.462 31.15H325.552L327.397 26.53H328.957V37H327.802V31.75ZM337.186 37L336.301 34.015H332.626L331.741 37H330.436L333.646 26.53H335.311L338.521 37H337.186ZM334.531 27.865H334.396L332.926 32.92H336.001L334.531 27.865ZM340.225 37V35.995H342.835V27.535H340.225V26.53H346.705V27.535H344.095V35.995H346.705V37H340.225ZM350.404 28.135H350.299V37H349.159V26.53H350.944L354.514 35.305H354.619V26.53H355.759V37H353.974L350.404 28.135ZM359.398 28.135H359.293V37H358.153V26.53H359.938L363.508 35.305H363.613V26.53H364.753V37H362.968L359.398 28.135ZM367.297 37V26.53H373.747V27.625H368.557V31.15H373.567V32.245H368.557V35.905H373.747V37H367.297ZM380.071 27.625V37H378.811V27.625H375.316V26.53H383.566V27.625H380.071Z" fill="#9F9EA1"/>
<path d="M26.825 64.75V61.435H26.705L24.5 66.82L22.295 61.435H22.175V64.75V70H21.02V59.53H22.64L24.485 64.15H24.575L26.42 59.53H27.98V70H26.825V64.75ZM32.8641 70V65.89L29.2491 59.53H30.6891L32.1891 62.26L33.4641 64.645H33.5241L34.8291 62.26L36.3291 59.53H37.7391L34.1241 65.89V70H32.8641ZM54.1974 70L53.3124 67.015H49.6374L48.7524 70H47.4474L50.6574 59.53H52.3224L55.5324 70H54.1974ZM51.5424 60.865H51.4074L49.9374 65.92H53.0124L51.5424 60.865ZM60.8216 70.18C59.5416 70.18 58.5866 69.715 57.9566 68.785C57.3366 67.855 57.0266 66.515 57.0266 64.765C57.0266 63.015 57.3366 61.675 57.9566 60.745C58.5866 59.815 59.5416 59.35 60.8216 59.35C61.3016 59.35 61.7166 59.415 62.0666 59.545C62.4166 59.675 62.7166 59.85 62.9666 60.07C63.2166 60.29 63.4266 60.54 63.5966 60.82C63.7666 61.09 63.9166 61.365 64.0466 61.645L62.9666 62.14C62.8766 61.91 62.7716 61.695 62.6516 61.495C62.5316 61.285 62.3866 61.105 62.2166 60.955C62.0566 60.795 61.8616 60.67 61.6316 60.58C61.4116 60.49 61.1416 60.445 60.8216 60.445C59.9916 60.445 59.3716 60.76 58.9616 61.39C58.5616 62.02 58.3616 62.86 58.3616 63.91V65.62C58.3616 66.67 58.5616 67.51 58.9616 68.14C59.3716 68.77 59.9916 69.085 60.8216 69.085C61.1416 69.085 61.4116 69.04 61.6316 68.95C61.8616 68.86 62.0566 68.74 62.2166 68.59C62.3866 68.43 62.5316 68.25 62.6516 68.05C62.7716 67.84 62.8766 67.62 62.9666 67.39L64.0466 67.885C63.9166 68.175 63.7666 68.455 63.5966 68.725C63.4266 68.995 63.2166 69.24 62.9666 69.46C62.7166 69.68 62.4166 69.855 62.0666 69.985C61.7166 70.115 61.3016 70.18 60.8216 70.18ZM69.8157 70.18C68.5357 70.18 67.5807 69.715 66.9507 68.785C66.3307 67.855 66.0207 66.515 66.0207 64.765C66.0207 63.015 66.3307 61.675 66.9507 60.745C67.5807 59.815 68.5357 59.35 69.8157 59.35C70.2957 59.35 70.7107 59.415 71.0607 59.545C71.4107 59.675 71.7107 59.85 71.9607 60.07C72.2107 60.29 72.4207 60.54 72.5907 60.82C72.7607 61.09 72.9107 61.365 73.0407 61.645L71.9607 62.14C71.8707 61.91 71.7657 61.695 71.6457 61.495C71.5257 61.285 71.3807 61.105 71.2107 60.955C71.0507 60.795 70.8557 60.67 70.6257 60.58C70.4057 60.49 70.1357 60.445 69.8157 60.445C68.9857 60.445 68.3657 60.76 67.9557 61.39C67.5557 62.02 67.3557 62.86 67.3557 63.91V65.62C67.3557 66.67 67.5557 67.51 67.9557 68.14C68.3657 68.77 68.9857 69.085 69.8157 69.085C70.1357 69.085 70.4057 69.04 70.6257 68.95C70.8557 68.86 71.0507 68.74 71.2107 68.59C71.3807 68.43 71.5257 68.25 71.6457 68.05C71.7657 67.84 71.8707 67.62 71.9607 67.39L73.0407 67.885C72.9107 68.175 72.7607 68.455 72.5907 68.725C72.4207 68.995 72.2107 69.24 71.9607 69.46C71.7107 69.68 71.4107 69.855 71.0607 69.985C70.7107 70.115 70.2957 70.18 69.8157 70.18ZM78.4648 70.18C77.8248 70.18 77.2748 70.06 76.8148 69.82C76.3548 69.57 75.9748 69.215 75.6748 68.755C75.3748 68.295 75.1548 67.73 75.0148 67.06C74.8748 66.39 74.8048 65.625 74.8048 64.765C74.8048 63.915 74.8748 63.155 75.0148 62.485C75.1548 61.805 75.3748 61.235 75.6748 60.775C75.9748 60.315 76.3548 59.965 76.8148 59.725C77.2748 59.475 77.8248 59.35 78.4648 59.35C79.1048 59.35 79.6548 59.475 80.1148 59.725C80.5748 59.965 80.9548 60.315 81.2548 60.775C81.5548 61.235 81.7748 61.805 81.9148 62.485C82.0548 63.155 82.1248 63.915 82.1248 64.765C82.1248 65.625 82.0548 66.39 81.9148 67.06C81.7748 67.73 81.5548 68.295 81.2548 68.755C80.9548 69.215 80.5748 69.57 80.1148 69.82C79.6548 70.06 79.1048 70.18 78.4648 70.18ZM78.4648 69.085C78.8848 69.085 79.2398 69.005 79.5298 68.845C79.8198 68.675 80.0598 68.44 80.2498 68.14C80.4398 67.84 80.5748 67.48 80.6548 67.06C80.7448 66.63 80.7898 66.15 80.7898 65.62V63.91C80.7898 63.39 80.7448 62.915 80.6548 62.485C80.5748 62.055 80.4398 61.69 80.2498 61.39C80.0598 61.09 79.8198 60.86 79.5298 60.7C79.2398 60.53 78.8848 60.445 78.4648 60.445C78.0448 60.445 77.6898 60.53 77.3998 60.7C77.1098 60.86 76.8698 61.09 76.6798 61.39C76.4898 61.69 76.3498 62.055 76.2598 62.485C76.1798 62.915 76.1398 63.39 76.1398 63.91V65.62C76.1398 66.15 76.1798 66.63 76.2598 67.06C76.3498 67.48 76.4898 67.84 76.6798 68.14C76.8698 68.44 77.1098 68.675 77.3998 68.845C77.6898 69.005 78.0448 69.085 78.4648 69.085ZM85.419 59.53V65.815C85.419 66.325 85.434 66.78 85.464 67.18C85.494 67.58 85.574 67.925 85.704 68.215C85.834 68.495 86.034 68.71 86.304 68.86C86.584 69.01 86.969 69.085 87.459 69.085C87.949 69.085 88.329 69.01 88.599 68.86C88.879 68.71 89.084 68.495 89.214 68.215C89.344 67.925 89.424 67.58 89.454 67.18C89.484 66.78 89.499 66.325 89.499 65.815V59.53H90.759V65.515C90.759 66.295 90.719 66.975 90.639 67.555C90.569 68.135 90.414 68.62 90.174 69.01C89.944 69.4 89.609 69.695 89.169 69.895C88.739 70.085 88.169 70.18 87.459 70.18C86.749 70.18 86.174 70.085 85.734 69.895C85.304 69.695 84.969 69.4 84.729 69.01C84.499 68.62 84.344 68.135 84.264 67.555C84.194 66.975 84.159 66.295 84.159 65.515V59.53H85.419ZM94.3981 61.135H94.2931V70H93.1531V59.53H94.9381L98.5081 68.305H98.6131V59.53H99.7531V70H97.9681L94.3981 61.135ZM106.077 60.625V70H104.817V60.625H101.322V59.53H109.572V60.625H106.077Z" fill="#9F9EA1"/>
<path d="M57.83 35L57.038 31.976H53.6L52.826 35H50.09L53.492 22.436H57.308L60.71 35H57.83ZM55.4 25.046H55.256L54.032 29.798H56.624L55.4 25.046ZM64.825 35H62.161V22.436H67.021C67.633 22.436 68.179 22.532 68.659 22.724C69.139 22.904 69.541 23.168 69.865 23.516C70.201 23.864 70.453 24.284 70.621 24.776C70.789 25.268 70.873 25.82 70.873 26.432C70.873 27.32 70.681 28.082 70.297 28.718C69.913 29.354 69.367 29.774 68.659 29.978L71.125 35H68.173L66.067 30.338H64.825V35ZM66.373 28.25C67.009 28.25 67.447 28.13 67.687 27.89C67.939 27.65 68.065 27.254 68.065 26.702V26.162C68.065 25.61 67.939 25.214 67.687 24.974C67.447 24.734 67.009 24.614 66.373 24.614H64.825V28.25H66.373ZM76.6259 29.762L75.5099 31.328V35H72.8099V22.436H75.5099V27.692H75.6539L77.0219 25.604L79.2359 22.436H82.2599L78.4979 27.746L82.4399 35H79.3979L76.6259 29.762ZM86.4289 35V30.554L82.4509 22.436H85.4569L86.7889 25.352L87.7609 27.818H87.9049L88.8769 25.352L90.2089 22.436H93.1069L89.1289 30.554V35H86.4289Z" fill="white"/>
<path fill-rule="evenodd" clip-rule="evenodd" d="M29.3987 16.8096L28.4267 16.9358L28.6921 19.0029C28.2141 19.1064 27.7364 19.2471 27.2612 19.4257L26.7629 17.3194L25.8089 17.5455L26.3465 19.8191C25.9037 20.0344 25.464 20.2844 25.0303 20.5715L24.1239 18.3225L23.2157 18.688L24.2139 21.1648C23.9507 21.3748 23.7021 21.5926 23.4665 21.8188L21.693 19.7011L20.9406 20.3306L22.788 22.5369C22.5428 22.8215 22.3154 23.1151 22.1077 23.4171L19.8047 22.0025L19.2916 22.8385L21.5929 24.2498C21.3986 24.601 21.2277 24.961 21.0783 25.3267L18.5851 24.6548L18.331 25.6021L20.7504 26.2529C20.5621 26.8788 20.4341 27.5171 20.3652 28.1594L18.2851 28.0413L18.2311 29.0216L20.3061 29.1379C20.2967 29.7571 20.3404 30.3752 20.4357 30.9838L18.6457 31.313L18.8228 32.2769L20.6308 31.9441C20.7822 32.5486 20.9844 33.1391 21.2372 33.7063L19.8571 34.3341L20.2637 35.2258L21.6799 34.5816C21.9925 35.1343 22.3568 35.6586 22.7699 36.1453L21.693 37.0272L22.3142 37.7861L23.442 36.8617C23.9091 37.3124 24.4241 37.7195 24.9844 38.0747L24.4237 38.9188L25.2401 39.4614L25.84 38.5581C26.4233 38.8496 27.0472 39.0879 27.7087 39.2647L27.8956 38.3352C27.3546 38.1899 26.8437 38 26.3645 37.7681L26.7563 37.1779L25.94 36.6354L25.5057 37.2894C25.0273 36.9848 24.5874 36.636 24.1861 36.2518L24.9155 35.6535L24.2943 34.8962L23.5157 35.5338C23.1609 35.1095 22.8455 34.6549 22.5716 34.1749L23.7518 33.6372L23.3452 32.7455L22.1288 33.2996C21.9089 32.8051 21.7291 32.2921 21.5929 31.7669L23.2878 31.4539L23.1108 30.4901L21.3945 30.8064C21.3113 30.2735 21.2714 29.7334 21.2765 29.1919L23.3763 29.3099L23.4321 28.3312L21.3355 28.2132C21.3738 27.8702 21.4302 27.5277 21.506 27.1888C21.7276 27.2188 21.9864 27.2505 22.2961 27.2855C23.0476 27.3702 24.0184 27.4662 24.9794 27.5575C26.5519 27.7069 27.5831 27.7953 28.0938 27.8394L26.3595 31.6342L26.0564 32.298L26.1268 32.3014L29.3036 34.1455L29.797 33.2981L28.2266 32.3867L30.9427 32.4964L30.982 31.5162L28.3938 31.4113L30.1559 30.7179L29.7969 29.8049L27.9397 30.536L29.2741 27.6166L29.5626 26.984L28.8692 26.925C28.8692 26.925 26.9871 26.7644 25.0713 26.5824C24.1133 26.4914 23.1464 26.3955 22.406 26.3119C22.1637 26.2846 21.9591 26.2587 21.7749 26.2348C22.2906 24.7127 23.216 23.2853 24.5976 22.1172L25.6958 24.8448L26.6056 24.4776L25.4057 21.5009C25.4212 21.4903 25.436 21.4788 25.4516 21.4681C25.8246 21.2143 26.2005 20.991 26.5778 20.7961L27.5678 24.9874L28.5217 24.7629L27.4873 20.3831C27.9296 20.2086 28.3722 20.071 28.8151 19.97L29.433 24.7826L30.4051 24.658L29.7822 19.8045C30.2524 19.7514 30.7209 19.7391 31.1854 19.7618L31.3427 24.8073L32.323 24.7761L32.3049 24.186L34.0999 26.2463L32.1444 27.1414L32.5525 28.0331L34.2474 27.2577L33.4245 28.9542L34.3064 29.3838L35.5341 26.8545L35.6768 26.5627L35.4636 26.3185L33.2934 23.8286L35.9438 21.3191C37.1912 22.1062 38.3267 23.1644 39.2764 24.4318C38.0272 24.7539 36.9673 25.6987 36.6176 27.2495L39.0829 32.6556L39.9681 32.5294L38.5551 28.9297L39.4681 28.5708L40.9663 32.3867L42.7924 32.1245L42.3513 24.8531C41.7345 24.5095 41.059 24.3289 40.3942 24.3089C40.1537 23.96 39.9006 23.6243 39.6352 23.3023L40.6089 22.3221L39.9139 21.632L38.9845 22.5663C38.7183 22.2855 38.4416 22.0187 38.1567 21.7649L39.1075 20.3321L38.2894 19.7912L37.3977 21.137C37.0806 20.8944 36.7536 20.6687 36.4192 20.46L36.9731 18.7897L36.042 18.4815L35.5503 19.9649C35.1755 19.7727 34.7919 19.6018 34.4013 19.4535L34.5668 17.6865L33.5899 17.5948L33.4456 19.1421C33.0165 19.0241 32.5803 18.9346 32.1393 18.8733L32.0901 17.2898L31.11 17.3195L31.1559 18.7848C31.0686 18.7815 30.9812 18.7793 30.8936 18.7783C30.8312 18.7776 30.7693 18.7779 30.7067 18.7783C30.3588 18.7809 30.0096 18.8021 29.6593 18.8423L29.3986 16.8097L29.3987 16.8096ZM32.1705 19.8635C32.569 19.9276 32.9631 20.0183 33.3523 20.1339L33.1195 22.6205L33.1409 22.6222L32.2819 23.4352L32.1704 19.8635H32.1705ZM34.3063 20.4698C34.5584 20.5735 34.808 20.6878 35.0538 20.8125L34.1981 21.6222L34.3063 20.4698H34.3063ZM40.1582 25.2546C40.1994 25.2534 40.2407 25.255 40.2828 25.2579C40.9569 25.3052 41.4546 25.8792 41.4073 26.5529C41.36 27.2264 40.7864 27.7247 40.1123 27.6774C39.4382 27.6301 38.9405 27.0559 38.9878 26.3824C39.0321 25.751 39.5396 25.2729 40.1582 25.2546ZM34.2179 38.0566C33.9405 38.141 33.6677 38.2151 33.3983 38.2811L33.6081 39.2401C33.9034 39.1689 34.202 39.0879 34.5047 38.9958L34.2178 38.0565L34.2179 38.0566ZM32.4394 38.4811C32.0643 38.5455 31.6974 38.5913 31.3394 38.6204L31.3591 39.5925C31.779 39.5631 32.209 39.513 32.6476 39.4384L32.4393 38.4811H32.4394ZM28.8545 38.5385L28.666 39.4711C29.2148 39.5634 29.7862 39.6154 30.3789 39.622L30.3592 38.6598C29.8368 38.6566 29.3356 38.6141 28.8545 38.5385Z" fill="white"/>
<path d="M125.24 280H107.08V277.56L116.96 268.2C118.32 266.92 119.413 265.627 120.24 264.32C121.067 262.987 121.48 261.587 121.48 260.12V259.36C121.48 257.627 120.987 256.253 120 255.24C119.04 254.2 117.6 253.68 115.68 253.68C113.813 253.68 112.36 254.147 111.32 255.08C110.307 255.987 109.56 257.213 109.08 258.76L106.96 258C107.227 257.147 107.587 256.333 108.04 255.56C108.493 254.787 109.067 254.107 109.76 253.52C110.48 252.933 111.333 252.467 112.32 252.12C113.307 251.773 114.44 251.6 115.72 251.6C117.053 251.6 118.227 251.8 119.24 252.2C120.28 252.573 121.147 253.107 121.84 253.8C122.56 254.493 123.093 255.333 123.44 256.32C123.813 257.28 124 258.36 124 259.56C124 261.533 123.493 263.333 122.48 264.96C121.467 266.56 120.107 268.147 118.4 269.72L109.6 277.92H125.24V280ZM139.984 280.28C139.131 280.28 138.531 280.107 138.184 279.76C137.838 279.413 137.664 278.96 137.664 278.4V277.84C137.664 277.307 137.838 276.867 138.184 276.52C138.531 276.147 139.131 275.96 139.984 275.96C140.838 275.96 141.438 276.147 141.784 276.52C142.131 276.867 142.304 277.307 142.304 277.84V278.4C142.304 278.96 142.131 279.413 141.784 279.76C141.438 280.107 140.838 280.28 139.984 280.28ZM173.089 261.84C173.089 264 172.782 266.013 172.169 267.88C171.582 269.72 170.795 271.4 169.809 272.92C168.822 274.44 167.702 275.8 166.449 277C165.222 278.173 163.955 279.173 162.649 280H159.529C161.075 278.933 162.462 277.867 163.689 276.8C164.915 275.733 165.982 274.613 166.889 273.44C167.795 272.24 168.555 270.973 169.169 269.64C169.782 268.28 170.262 266.773 170.609 265.12L170.409 265.08C169.715 266.333 168.795 267.333 167.649 268.08C166.502 268.8 165.075 269.16 163.369 269.16C162.115 269.16 160.969 268.96 159.929 268.56C158.915 268.16 158.035 267.6 157.289 266.88C156.542 266.133 155.969 265.24 155.569 264.2C155.169 263.133 154.969 261.947 154.969 260.64C154.969 259.28 155.182 258.053 155.609 256.96C156.035 255.84 156.635 254.893 157.409 254.12C158.209 253.32 159.169 252.707 160.289 252.28C161.409 251.827 162.649 251.6 164.009 251.6C165.502 251.6 166.809 251.853 167.929 252.36C169.075 252.84 170.022 253.533 170.769 254.44C171.542 255.32 172.115 256.4 172.489 257.68C172.889 258.933 173.089 260.32 173.089 261.84ZM164.049 267.16C166.129 267.16 167.742 266.587 168.889 265.44C170.062 264.267 170.649 262.707 170.649 260.76V260.08C170.649 258.133 170.062 256.587 168.889 255.44C167.742 254.267 166.129 253.68 164.049 253.68C161.969 253.68 160.342 254.267 159.169 255.44C157.995 256.587 157.409 258.133 157.409 260.08V260.76C157.409 262.707 157.995 264.267 159.169 265.44C160.342 266.587 161.969 267.16 164.049 267.16ZM186.913 264.32C188.886 264.32 190.42 263.853 191.513 262.92C192.606 261.96 193.153 260.72 193.153 259.2V258.68C193.153 257.08 192.62 255.853 191.553 255C190.513 254.12 189.153 253.68 187.473 253.68C185.82 253.68 184.5 254.027 183.513 254.72C182.526 255.387 181.74 256.28 181.153 257.4L179.353 256.12C179.673 255.533 180.073 254.973 180.553 254.44C181.06 253.88 181.633 253.387 182.273 252.96C182.94 252.533 183.7 252.2 184.553 251.96C185.433 251.72 186.42 251.6 187.513 251.6C188.686 251.6 189.766 251.76 190.753 252.08C191.766 252.4 192.633 252.867 193.353 253.48C194.073 254.067 194.633 254.8 195.033 255.68C195.46 256.533 195.673 257.507 195.673 258.6C195.673 259.533 195.526 260.373 195.233 261.12C194.966 261.867 194.58 262.507 194.073 263.04C193.593 263.573 193.006 264.027 192.313 264.4C191.646 264.747 190.926 265.013 190.153 265.2V265.36C190.98 265.493 191.766 265.747 192.513 266.12C193.26 266.467 193.9 266.933 194.433 267.52C194.993 268.107 195.433 268.813 195.753 269.64C196.073 270.467 196.233 271.4 196.233 272.44C196.233 273.64 196.02 274.747 195.593 275.76C195.166 276.747 194.553 277.587 193.753 278.28C192.953 278.973 191.993 279.52 190.873 279.92C189.753 280.293 188.5 280.48 187.113 280.48C185.993 280.48 184.98 280.36 184.073 280.12C183.166 279.907 182.353 279.6 181.633 279.2C180.913 278.773 180.273 278.28 179.713 277.72C179.153 277.16 178.66 276.56 178.233 275.92L180.033 274.56C180.806 275.76 181.74 276.707 182.833 277.4C183.926 278.067 185.353 278.4 187.113 278.4C189.166 278.4 190.78 277.893 191.953 276.88C193.126 275.84 193.713 274.44 193.713 272.68V272.04C193.713 270.28 193.14 268.907 191.993 267.92C190.873 266.907 189.233 266.4 187.073 266.4H183.553V264.32H186.913Z" fill="white"/>
<path d="M235.602 280.48C233.202 280.48 231.149 280.067 229.442 279.24C227.762 278.413 226.389 277.32 225.322 275.96L228.482 272.68C229.522 273.88 230.642 274.773 231.842 275.36C233.069 275.92 234.375 276.2 235.762 276.2C237.362 276.2 238.589 275.84 239.442 275.12C240.295 274.4 240.722 273.36 240.722 272C240.722 270.88 240.402 270.04 239.762 269.48C239.122 268.893 238.042 268.48 236.522 268.24L233.562 267.76C230.975 267.307 229.135 266.373 228.042 264.96C226.949 263.52 226.402 261.827 226.402 259.88C226.402 257.213 227.269 255.173 229.002 253.76C230.735 252.32 233.135 251.6 236.202 251.6C238.389 251.6 240.269 251.947 241.842 252.64C243.442 253.333 244.722 254.28 245.682 255.48L242.602 258.76C241.855 257.88 240.962 257.187 239.922 256.68C238.882 256.147 237.655 255.88 236.242 255.88C233.202 255.88 231.682 257.133 231.682 259.64C231.682 260.707 232.002 261.52 232.642 262.08C233.282 262.64 234.375 263.053 235.922 263.32L238.842 263.84C241.269 264.293 243.069 265.187 244.242 266.52C245.415 267.853 246.002 269.56 246.002 271.64C246.002 272.947 245.775 274.147 245.322 275.24C244.869 276.307 244.202 277.24 243.322 278.04C242.442 278.813 241.349 279.413 240.042 279.84C238.762 280.267 237.282 280.48 235.602 280.48ZM259.906 280.48C258.093 280.48 256.52 280.16 255.186 279.52C253.853 278.853 252.746 277.907 251.866 276.68C251.013 275.453 250.373 273.947 249.946 272.16C249.546 270.373 249.346 268.333 249.346 266.04C249.346 263.773 249.546 261.747 249.946 259.96C250.373 258.147 251.013 256.627 251.866 255.4C252.746 254.173 253.853 253.24 255.186 252.6C256.52 251.933 258.093 251.6 259.906 251.6C263.533 251.6 266.2 252.867 267.906 255.4C269.613 257.933 270.466 261.48 270.466 266.04C270.466 270.6 269.613 274.147 267.906 276.68C266.2 279.213 263.533 280.48 259.906 280.48ZM259.906 276.2C260.84 276.2 261.626 276.027 262.266 275.68C262.906 275.307 263.413 274.787 263.786 274.12C264.186 273.453 264.466 272.64 264.626 271.68C264.813 270.693 264.906 269.6 264.906 268.4V263.64C264.906 261.24 264.533 259.347 263.786 257.96C263.066 256.573 261.773 255.88 259.906 255.88C258.04 255.88 256.733 256.573 255.986 257.96C255.266 259.347 254.906 261.24 254.906 263.64V268.44C254.906 270.84 255.266 272.733 255.986 274.12C256.733 275.507 258.04 276.2 259.906 276.2ZM275.891 280V252.08H281.131V275.68H293.491V280H275.891Z" fill="#9F9FED"/>
<path d="M139.006 305.739H138.954C138.876 305.93 138.781 306.112 138.668 306.285C138.555 306.45 138.417 306.597 138.252 306.727C138.087 306.857 137.884 306.961 137.641 307.039C137.407 307.117 137.13 307.156 136.809 307.156C135.821 307.156 135.076 306.77 134.573 305.999C134.07 305.228 133.819 304.062 133.819 302.502C133.819 300.899 134.083 299.711 134.612 298.94C135.149 298.16 135.947 297.77 137.004 297.77C137.377 297.77 137.71 297.822 138.005 297.926C138.3 298.03 138.555 298.169 138.772 298.342C138.989 298.515 139.171 298.719 139.318 298.953C139.474 299.187 139.6 299.434 139.695 299.694L139.019 299.993C138.854 299.551 138.616 299.183 138.304 298.888C138.001 298.593 137.576 298.446 137.03 298.446C136.224 298.446 135.626 298.745 135.236 299.343C134.846 299.932 134.651 300.769 134.651 301.852V303.035C134.651 304.11 134.833 304.955 135.197 305.57C135.57 306.185 136.159 306.493 136.965 306.493C137.286 306.493 137.572 306.441 137.823 306.337C138.074 306.233 138.287 306.086 138.46 305.895C138.633 305.704 138.768 305.483 138.863 305.232C138.958 304.972 139.006 304.686 139.006 304.374V303.295H136.939V302.671H139.734V307H139.006V305.739ZM147.269 307L146.411 304.231H142.979L142.108 307H141.302L144.188 297.926H145.215L148.088 307H147.269ZM144.734 298.758H144.643L143.161 303.555H146.216L144.734 298.758ZM152.49 307.156C152.083 307.156 151.719 307.117 151.398 307.039C151.077 306.961 150.787 306.857 150.527 306.727C150.267 306.588 150.033 306.424 149.825 306.233C149.626 306.042 149.444 305.834 149.279 305.609L149.851 305.141C150.189 305.574 150.562 305.908 150.969 306.142C151.376 306.367 151.892 306.48 152.516 306.48C153.244 306.48 153.803 306.32 154.193 305.999C154.583 305.67 154.778 305.197 154.778 304.582C154.778 304.019 154.613 303.603 154.284 303.334C153.963 303.065 153.504 302.883 152.906 302.788L151.892 302.619C151.441 302.541 151.064 302.424 150.761 302.268C150.466 302.112 150.228 301.93 150.046 301.722C149.864 301.505 149.734 301.267 149.656 301.007C149.587 300.747 149.552 300.478 149.552 300.201C149.552 299.386 149.816 298.78 150.345 298.381C150.882 297.974 151.602 297.77 152.503 297.77C153.24 297.77 153.842 297.891 154.31 298.134C154.787 298.368 155.168 298.693 155.454 299.109L154.908 299.59C154.648 299.226 154.327 298.944 153.946 298.745C153.573 298.546 153.084 298.446 152.477 298.446C151.801 298.446 151.272 298.593 150.891 298.888C150.518 299.174 150.332 299.603 150.332 300.175C150.332 300.704 150.488 301.107 150.8 301.384C151.112 301.653 151.576 301.835 152.191 301.93L153.192 302.099C153.651 302.177 154.033 302.298 154.336 302.463C154.639 302.619 154.882 302.805 155.064 303.022C155.246 303.239 155.372 303.477 155.441 303.737C155.519 303.997 155.558 304.27 155.558 304.556C155.558 305.388 155.289 306.029 154.752 306.48C154.215 306.931 153.461 307.156 152.49 307.156ZM165.441 307V297.926H171.005V298.602H166.221V302.06H170.628V302.736H166.221V307H165.441ZM173.236 307V297.926H178.709V298.602H174.016V302.06H178.54V302.736H174.016V306.324H178.709V307H173.236ZM181.031 307V297.926H186.504V298.602H181.811V302.06H186.335V302.736H181.811V306.324H186.504V307H181.031ZM191.464 307.091C191.187 307.091 190.992 307.035 190.879 306.922C190.767 306.809 190.71 306.662 190.71 306.48V306.298C190.71 306.125 190.767 305.982 190.879 305.869C190.992 305.748 191.187 305.687 191.464 305.687C191.742 305.687 191.937 305.748 192.049 305.869C192.162 305.982 192.218 306.125 192.218 306.298V306.48C192.218 306.662 192.162 306.809 192.049 306.922C191.937 307.035 191.742 307.091 191.464 307.091ZM191.464 301.592C191.187 301.592 190.992 301.536 190.879 301.423C190.767 301.31 190.71 301.163 190.71 300.981V300.799C190.71 300.626 190.767 300.483 190.879 300.37C190.992 300.249 191.187 300.188 191.464 300.188C191.742 300.188 191.937 300.249 192.049 300.37C192.162 300.483 192.218 300.626 192.218 300.799V300.981C192.218 301.163 192.162 301.31 192.049 301.423C191.937 301.536 191.742 301.592 191.464 301.592ZM207.054 307.156C206.006 307.156 205.226 306.766 204.714 305.986C204.212 305.197 203.96 304.023 203.96 302.463C203.96 300.903 204.212 299.733 204.714 298.953C205.226 298.164 206.006 297.77 207.054 297.77C208.103 297.77 208.879 298.164 209.381 298.953C209.893 299.733 210.148 300.903 210.148 302.463C210.148 304.023 209.893 305.197 209.381 305.986C208.879 306.766 208.103 307.156 207.054 307.156ZM207.054 306.48C207.834 306.48 208.406 306.185 208.77 305.596C209.134 304.998 209.316 304.157 209.316 303.074V301.852C209.316 300.777 209.134 299.941 208.77 299.343C208.406 298.745 207.834 298.446 207.054 298.446C206.274 298.446 205.702 298.745 205.338 299.343C204.974 299.941 204.792 300.777 204.792 301.852V303.074C204.792 304.157 204.974 304.998 205.338 305.596C205.702 306.185 206.274 306.48 207.054 306.48ZM207.054 303.061C206.829 303.061 206.669 303.013 206.573 302.918C206.478 302.823 206.43 302.706 206.43 302.567V302.359C206.43 302.22 206.478 302.103 206.573 302.008C206.669 301.913 206.829 301.865 207.054 301.865C207.28 301.865 207.44 301.913 207.535 302.008C207.631 302.103 207.678 302.22 207.678 302.359V302.567C207.678 302.706 207.631 302.823 207.535 302.918C207.44 303.013 207.28 303.061 207.054 303.061ZM214.849 307.091C214.572 307.091 214.377 307.035 214.264 306.922C214.152 306.809 214.095 306.662 214.095 306.48V306.298C214.095 306.125 214.152 305.982 214.264 305.869C214.377 305.748 214.572 305.687 214.849 305.687C215.127 305.687 215.322 305.748 215.434 305.869C215.547 305.982 215.603 306.125 215.603 306.298V306.48C215.603 306.662 215.547 306.809 215.434 306.922C215.322 307.035 215.127 307.091 214.849 307.091ZM222.644 307.156C221.595 307.156 220.815 306.766 220.304 305.986C219.801 305.197 219.55 304.023 219.55 302.463C219.55 300.903 219.801 299.733 220.304 298.953C220.815 298.164 221.595 297.77 222.644 297.77C223.693 297.77 224.468 298.164 224.971 298.953C225.482 299.733 225.738 300.903 225.738 302.463C225.738 304.023 225.482 305.197 224.971 305.986C224.468 306.766 223.693 307.156 222.644 307.156ZM222.644 306.48C223.424 306.48 223.996 306.185 224.36 305.596C224.724 304.998 224.906 304.157 224.906 303.074V301.852C224.906 300.777 224.724 299.941 224.36 299.343C223.996 298.745 223.424 298.446 222.644 298.446C221.864 298.446 221.292 298.745 220.928 299.343C220.564 299.941 220.382 300.777 220.382 301.852V303.074C220.382 304.157 220.564 304.998 220.928 305.596C221.292 306.185 221.864 306.48 222.644 306.48ZM222.644 303.061C222.419 303.061 222.258 303.013 222.163 302.918C222.068 302.823 222.02 302.706 222.02 302.567V302.359C222.02 302.22 222.068 302.103 222.163 302.008C222.258 301.913 222.419 301.865 222.644 301.865C222.869 301.865 223.03 301.913 223.125 302.008C223.22 302.103 223.268 302.22 223.268 302.359V302.567C223.268 302.706 223.22 302.823 223.125 302.918C223.03 303.013 222.869 303.061 222.644 303.061ZM227.709 307V306.324H230.413V298.498H230.348L227.852 300.721L227.41 300.227L229.997 297.926H231.18V306.324H233.715V307H227.709ZM246.029 307.156C245.622 307.156 245.258 307.117 244.937 307.039C244.616 306.961 244.326 306.857 244.066 306.727C243.806 306.588 243.572 306.424 243.364 306.233C243.165 306.042 242.983 305.834 242.818 305.609L243.39 305.141C243.728 305.574 244.101 305.908 244.508 306.142C244.915 306.367 245.431 306.48 246.055 306.48C246.783 306.48 247.342 306.32 247.732 305.999C248.122 305.67 248.317 305.197 248.317 304.582C248.317 304.019 248.152 303.603 247.823 303.334C247.502 303.065 247.043 302.883 246.445 302.788L245.431 302.619C244.98 302.541 244.603 302.424 244.3 302.268C244.005 302.112 243.767 301.93 243.585 301.722C243.403 301.505 243.273 301.267 243.195 301.007C243.126 300.747 243.091 300.478 243.091 300.201C243.091 299.386 243.355 298.78 243.884 298.381C244.421 297.974 245.141 297.77 246.042 297.77C246.779 297.77 247.381 297.891 247.849 298.134C248.326 298.368 248.707 298.693 248.993 299.109L248.447 299.59C248.187 299.226 247.866 298.944 247.485 298.745C247.112 298.546 246.623 298.446 246.016 298.446C245.34 298.446 244.811 298.593 244.43 298.888C244.057 299.174 243.871 299.603 243.871 300.175C243.871 300.704 244.027 301.107 244.339 301.384C244.651 301.653 245.115 301.835 245.73 301.93L246.731 302.099C247.19 302.177 247.572 302.298 247.875 302.463C248.178 302.619 248.421 302.805 248.603 303.022C248.785 303.239 248.911 303.477 248.98 303.737C249.058 303.997 249.097 304.27 249.097 304.556C249.097 305.388 248.828 306.029 248.291 306.48C247.754 306.931 247 307.156 246.029 307.156ZM253.824 307.156C252.775 307.156 251.995 306.766 251.484 305.986C250.981 305.197 250.73 304.023 250.73 302.463C250.73 300.903 250.981 299.733 251.484 298.953C251.995 298.164 252.775 297.77 253.824 297.77C254.872 297.77 255.648 298.164 256.151 298.953C256.662 299.733 256.918 300.903 256.918 302.463C256.918 304.023 256.662 305.197 256.151 305.986C255.648 306.766 254.872 307.156 253.824 307.156ZM253.824 306.48C254.604 306.48 255.176 306.185 255.54 305.596C255.904 304.998 256.086 304.157 256.086 303.074V301.852C256.086 300.777 255.904 299.941 255.54 299.343C255.176 298.745 254.604 298.446 253.824 298.446C253.044 298.446 252.472 298.745 252.108 299.343C251.744 299.941 251.562 300.777 251.562 301.852V303.074C251.562 304.157 251.744 304.998 252.108 305.596C252.472 306.185 253.044 306.48 253.824 306.48ZM259.409 307V297.926H260.189V306.324H264.635V307H259.409Z" fill="white"/>
<g filter="url(#filter0_d_25_9)">
<rect x="75" y="356" width="250" height="37" fill="#5F5F5F"/>
</g>
<path d="M138.734 380L137.908 377.214H134.478L133.652 380H132.434L135.43 370.228H136.984L139.98 380H138.734ZM136.256 371.474H136.13L134.758 376.192H137.628L136.256 371.474ZM141.725 372.776H142.845V373.952H142.901C143.367 373.056 144.109 372.608 145.127 372.608C146.013 372.608 146.704 372.939 147.199 373.602C147.703 374.265 147.955 375.193 147.955 376.388C147.955 377.583 147.703 378.511 147.199 379.174C146.704 379.837 146.013 380.168 145.127 380.168C144.109 380.168 143.367 379.72 142.901 378.824H142.845V382.8H141.725V372.776ZM144.693 379.174C145.346 379.174 145.85 378.978 146.205 378.586C146.569 378.185 146.751 377.657 146.751 377.004V375.772C146.751 375.119 146.569 374.596 146.205 374.204C145.85 373.803 145.346 373.602 144.693 373.602C144.441 373.602 144.203 373.635 143.979 373.7C143.755 373.765 143.559 373.863 143.391 373.994C143.223 374.115 143.087 374.269 142.985 374.456C142.891 374.633 142.845 374.843 142.845 375.086V377.69C142.845 377.933 142.891 378.147 142.985 378.334C143.087 378.511 143.223 378.665 143.391 378.796C143.559 378.917 143.755 379.011 143.979 379.076C144.203 379.141 144.441 379.174 144.693 379.174ZM150.119 372.776H151.239V373.952H151.295C151.762 373.056 152.504 372.608 153.521 372.608C154.408 372.608 155.098 372.939 155.593 373.602C156.097 374.265 156.349 375.193 156.349 376.388C156.349 377.583 156.097 378.511 155.593 379.174C155.098 379.837 154.408 380.168 153.521 380.168C152.504 380.168 151.762 379.72 151.295 378.824H151.239V382.8H150.119V372.776ZM153.087 379.174C153.74 379.174 154.244 378.978 154.599 378.586C154.963 378.185 155.145 377.657 155.145 377.004V375.772C155.145 375.119 154.963 374.596 154.599 374.204C154.244 373.803 153.74 373.602 153.087 373.602C152.835 373.602 152.597 373.635 152.373 373.7C152.149 373.765 151.953 373.863 151.785 373.994C151.617 374.115 151.482 374.269 151.379 374.456C151.286 374.633 151.239 374.843 151.239 375.086V377.69C151.239 377.933 151.286 378.147 151.379 378.334C151.482 378.511 151.617 378.665 151.785 378.796C151.953 378.917 152.149 379.011 152.373 379.076C152.597 379.141 152.835 379.174 153.087 379.174ZM158.262 379.048H160.376V373.728H158.262V372.776H161.496V374.596H161.566C161.715 374.027 161.995 373.583 162.406 373.266C162.826 372.939 163.358 372.776 164.002 372.776H165.01V373.896H163.652C163.008 373.896 162.485 374.083 162.084 374.456C161.692 374.829 161.496 375.319 161.496 375.926V379.048H164.296V380H158.262V379.048ZM169.778 380.168C169.274 380.168 168.817 380.079 168.406 379.902C168.005 379.725 167.659 379.473 167.37 379.146C167.09 378.81 166.875 378.413 166.726 377.956C166.577 377.489 166.502 376.967 166.502 376.388C166.502 375.819 166.577 375.301 166.726 374.834C166.875 374.367 167.09 373.971 167.37 373.644C167.659 373.308 168.005 373.051 168.406 372.874C168.817 372.697 169.274 372.608 169.778 372.608C170.282 372.608 170.735 372.697 171.136 372.874C171.547 373.051 171.892 373.308 172.172 373.644C172.461 373.971 172.681 374.367 172.83 374.834C172.979 375.301 173.054 375.819 173.054 376.388C173.054 376.967 172.979 377.489 172.83 377.956C172.681 378.413 172.461 378.81 172.172 379.146C171.892 379.473 171.547 379.725 171.136 379.902C170.735 380.079 170.282 380.168 169.778 380.168ZM169.778 379.202C170.403 379.202 170.907 379.015 171.29 378.642C171.673 378.269 171.864 377.69 171.864 376.906V375.87C171.864 375.086 171.673 374.507 171.29 374.134C170.907 373.761 170.403 373.574 169.778 373.574C169.153 373.574 168.649 373.761 168.266 374.134C167.883 374.507 167.692 375.086 167.692 375.87V376.906C167.692 377.69 167.883 378.269 168.266 378.642C168.649 379.015 169.153 379.202 169.778 379.202ZM177.459 380L174.869 372.776H176.003L177.039 375.8L178.159 379.062H178.215L179.335 375.8L180.371 372.776H181.477L178.887 380H177.459ZM186.693 380.168C186.171 380.168 185.699 380.079 185.279 379.902C184.869 379.725 184.514 379.473 184.215 379.146C183.926 378.81 183.702 378.413 183.543 377.956C183.385 377.489 183.305 376.971 183.305 376.402C183.305 375.823 183.385 375.301 183.543 374.834C183.711 374.367 183.94 373.971 184.229 373.644C184.519 373.308 184.864 373.051 185.265 372.874C185.676 372.697 186.129 372.608 186.623 372.608C187.109 372.608 187.547 372.697 187.939 372.874C188.341 373.051 188.681 373.299 188.961 373.616C189.241 373.924 189.456 374.293 189.605 374.722C189.755 375.151 189.829 375.623 189.829 376.136V376.668H184.481V377.004C184.481 377.321 184.533 377.615 184.635 377.886C184.738 378.157 184.883 378.39 185.069 378.586C185.265 378.782 185.499 378.936 185.769 379.048C186.049 379.151 186.357 379.202 186.693 379.202C187.179 379.202 187.599 379.09 187.953 378.866C188.308 378.642 188.579 378.334 188.765 377.942L189.591 378.502C189.377 378.987 189.017 379.389 188.513 379.706C188.019 380.014 187.412 380.168 186.693 380.168ZM186.623 373.532C186.315 373.532 186.031 373.588 185.769 373.7C185.508 373.812 185.279 373.966 185.083 374.162C184.897 374.358 184.747 374.591 184.635 374.862C184.533 375.123 184.481 375.413 184.481 375.73V375.828H188.625V375.674C188.625 375.357 188.574 375.067 188.471 374.806C188.378 374.545 188.243 374.321 188.065 374.134C187.897 373.938 187.687 373.789 187.435 373.686C187.193 373.583 186.922 373.532 186.623 373.532ZM199.576 372.776H200.57L201.396 379.02H201.522L202.754 372.776H203.986L205.218 379.02H205.344L206.17 372.776H207.136L206.03 380H204.574L203.426 373.952H203.314L202.138 380H200.682L199.576 372.776ZM212.199 371.18C211.872 371.18 211.643 371.115 211.513 370.984C211.382 370.844 211.317 370.671 211.317 370.466V370.242C211.317 370.037 211.382 369.869 211.513 369.738C211.643 369.598 211.872 369.528 212.199 369.528C212.525 369.528 212.754 369.598 212.885 369.738C213.015 369.869 213.081 370.037 213.081 370.242V370.466C213.081 370.671 213.015 370.844 212.885 370.984C212.754 371.115 212.525 371.18 212.199 371.18ZM209.035 379.048H211.639V373.728H209.035V372.776H212.759V379.048H215.195V380H209.035V379.048ZM220.495 380C219.945 380 219.539 379.846 219.277 379.538C219.025 379.23 218.899 378.833 218.899 378.348V373.728H216.491V372.776H218.283C218.526 372.776 218.694 372.729 218.787 372.636C218.89 372.533 218.941 372.361 218.941 372.118V370.228H220.019V372.776H223.309V373.728H220.019V379.048H223.309V380H220.495ZM225.712 369.64H226.832V373.952H226.888C226.963 373.775 227.056 373.607 227.168 373.448C227.28 373.28 227.415 373.135 227.574 373.014C227.742 372.893 227.938 372.795 228.162 372.72C228.386 372.645 228.647 372.608 228.946 372.608C229.702 372.608 230.309 372.851 230.766 373.336C231.223 373.812 231.452 374.489 231.452 375.366V380H230.332V375.562C230.332 374.899 230.187 374.409 229.898 374.092C229.609 373.765 229.184 373.602 228.624 373.602C228.4 373.602 228.181 373.63 227.966 373.686C227.751 373.742 227.56 373.826 227.392 373.938C227.224 374.05 227.089 374.195 226.986 374.372C226.883 374.549 226.832 374.755 226.832 374.988V380H225.712V369.64ZM242.389 380V370.228H248.549V371.25H243.565V374.54H248.129V375.562H243.565V380H242.389ZM253.849 380.168C253.327 380.168 252.855 380.079 252.435 379.902C252.025 379.725 251.67 379.473 251.371 379.146C251.082 378.81 250.858 378.413 250.699 377.956C250.541 377.489 250.461 376.971 250.461 376.402C250.461 375.823 250.541 375.301 250.699 374.834C250.867 374.367 251.096 373.971 251.385 373.644C251.675 373.308 252.02 373.051 252.421 372.874C252.832 372.697 253.285 372.608 253.779 372.608C254.265 372.608 254.703 372.697 255.095 372.874C255.497 373.051 255.837 373.299 256.117 373.616C256.397 373.924 256.612 374.293 256.761 374.722C256.911 375.151 256.985 375.623 256.985 376.136V376.668H251.637V377.004C251.637 377.321 251.689 377.615 251.791 377.886C251.894 378.157 252.039 378.39 252.225 378.586C252.421 378.782 252.655 378.936 252.925 379.048C253.205 379.151 253.513 379.202 253.849 379.202C254.335 379.202 254.755 379.09 255.109 378.866C255.464 378.642 255.735 378.334 255.921 377.942L256.747 378.502C256.533 378.987 256.173 379.389 255.669 379.706C255.175 380.014 254.568 380.168 253.849 380.168ZM253.779 373.532C253.471 373.532 253.187 373.588 252.925 373.7C252.664 373.812 252.435 373.966 252.239 374.162C252.053 374.358 251.903 374.591 251.791 374.862C251.689 375.123 251.637 375.413 251.637 375.73V375.828H255.781V375.674C255.781 375.357 255.73 375.067 255.627 374.806C255.534 374.545 255.399 374.321 255.221 374.134C255.053 373.938 254.843 373.789 254.591 373.686C254.349 373.583 254.078 373.532 253.779 373.532ZM262.244 380.168C261.721 380.168 261.25 380.079 260.83 379.902C260.419 379.725 260.065 379.473 259.766 379.146C259.477 378.81 259.253 378.413 259.094 377.956C258.935 377.489 258.856 376.971 258.856 376.402C258.856 375.823 258.935 375.301 259.094 374.834C259.262 374.367 259.491 373.971 259.78 373.644C260.069 373.308 260.415 373.051 260.816 372.874C261.227 372.697 261.679 372.608 262.174 372.608C262.659 372.608 263.098 372.697 263.49 372.874C263.891 373.051 264.232 373.299 264.512 373.616C264.792 373.924 265.007 374.293 265.156 374.722C265.305 375.151 265.38 375.623 265.38 376.136V376.668H260.032V377.004C260.032 377.321 260.083 377.615 260.186 377.886C260.289 378.157 260.433 378.39 260.62 378.586C260.816 378.782 261.049 378.936 261.32 379.048C261.6 379.151 261.908 379.202 262.244 379.202C262.729 379.202 263.149 379.09 263.504 378.866C263.859 378.642 264.129 378.334 264.316 377.942L265.142 378.502C264.927 378.987 264.568 379.389 264.064 379.706C263.569 380.014 262.963 380.168 262.244 380.168ZM262.174 373.532C261.866 373.532 261.581 373.588 261.32 373.7C261.059 373.812 260.83 373.966 260.634 374.162C260.447 374.358 260.298 374.591 260.186 374.862C260.083 375.123 260.032 375.413 260.032 375.73V375.828H264.176V375.674C264.176 375.357 264.125 375.067 264.022 374.806C263.929 374.545 263.793 374.321 263.616 374.134C263.448 373.938 263.238 373.789 262.986 373.686C262.743 373.583 262.473 373.532 262.174 373.532Z" fill="white"/>
<path d="M91.8567 498V494.532L88.7727 489.624H89.2767L92.0607 494.076H92.0967L94.8807 489.624H95.3727L92.2887 494.532V498H91.8567ZM99.268 498.144C98.452 498.144 97.816 497.868 97.36 497.316C96.904 496.764 96.676 495.96 96.676 494.904C96.676 493.848 96.904 493.044 97.36 492.492C97.816 491.94 98.452 491.664 99.268 491.664C100.084 491.664 100.72 491.94 101.176 492.492C101.632 493.044 101.86 493.848 101.86 494.904C101.86 495.96 101.632 496.764 101.176 497.316C100.72 497.868 100.084 498.144 99.268 498.144ZM99.268 497.772C99.948 497.772 100.472 497.548 100.84 497.1C101.216 496.652 101.404 496.028 101.404 495.228V494.58C101.404 493.78 101.216 493.156 100.84 492.708C100.472 492.26 99.948 492.036 99.268 492.036C98.588 492.036 98.06 492.26 97.684 492.708C97.316 493.156 97.132 493.78 97.132 494.58V495.228C97.132 496.028 97.316 496.652 97.684 497.1C98.06 497.548 98.588 497.772 99.268 497.772ZM108.203 497.088H108.167C108.055 497.36 107.847 497.604 107.543 497.82C107.247 498.036 106.831 498.144 106.295 498.144C105.615 498.144 105.095 497.948 104.735 497.556C104.375 497.156 104.195 496.58 104.195 495.828V491.808H104.615V495.756C104.615 496.46 104.767 496.972 105.071 497.292C105.375 497.612 105.815 497.772 106.391 497.772C106.623 497.772 106.847 497.74 107.063 497.676C107.287 497.612 107.483 497.516 107.651 497.388C107.819 497.26 107.951 497.1 108.047 496.908C108.151 496.716 108.203 496.492 108.203 496.236V491.808H108.623V498H108.203V497.088ZM111.007 497.628H113.071V492.18H111.007V491.808H113.491V493.092H113.527C113.599 492.916 113.683 492.752 113.779 492.6C113.883 492.44 114.011 492.304 114.163 492.192C114.323 492.072 114.511 491.98 114.727 491.916C114.943 491.844 115.195 491.808 115.483 491.808H116.743V492.204H115.375C115.111 492.204 114.863 492.248 114.631 492.336C114.407 492.416 114.211 492.536 114.043 492.696C113.875 492.856 113.739 493.06 113.635 493.308C113.539 493.548 113.491 493.824 113.491 494.136V497.628H116.131V498H111.007V497.628ZM131.013 498.744C131.013 499.368 130.761 499.824 130.257 500.112C129.753 500.4 129.029 500.544 128.085 500.544C127.157 500.544 126.489 500.4 126.081 500.112C125.673 499.832 125.469 499.456 125.469 498.984C125.469 498.624 125.569 498.328 125.769 498.096C125.977 497.872 126.265 497.704 126.633 497.592V497.532C126.217 497.396 126.009 497.124 126.009 496.716C126.009 496.42 126.113 496.188 126.321 496.02C126.529 495.852 126.773 495.728 127.053 495.648V495.612C126.701 495.452 126.425 495.216 126.225 494.904C126.033 494.584 125.937 494.196 125.937 493.74C125.937 493.428 125.985 493.144 126.081 492.888C126.185 492.632 126.329 492.416 126.513 492.24C126.697 492.056 126.921 491.916 127.185 491.82C127.457 491.716 127.757 491.664 128.085 491.664C128.597 491.664 129.033 491.788 129.393 492.036V491.64C129.393 491.344 129.541 491.196 129.837 491.196H131.121V491.568H129.681V492.264C129.865 492.448 130.005 492.664 130.101 492.912C130.197 493.16 130.245 493.436 130.245 493.74C130.245 494.052 130.193 494.34 130.089 494.604C129.985 494.86 129.837 495.08 129.645 495.264C129.453 495.44 129.225 495.58 128.961 495.684C128.697 495.78 128.405 495.828 128.085 495.828C127.869 495.828 127.653 495.804 127.437 495.756C127.117 495.836 126.861 495.948 126.669 496.092C126.485 496.236 126.393 496.424 126.393 496.656C126.393 496.824 126.465 496.968 126.609 497.088C126.761 497.208 127.033 497.268 127.425 497.268H128.985C129.697 497.268 130.213 497.404 130.533 497.676C130.853 497.94 131.013 498.296 131.013 498.744ZM130.605 498.768C130.605 498.424 130.481 498.156 130.233 497.964C129.993 497.764 129.569 497.664 128.961 497.664H127.041C126.697 497.76 126.421 497.908 126.213 498.108C126.005 498.316 125.901 498.592 125.901 498.936C125.901 499.32 126.061 499.624 126.381 499.848C126.709 500.072 127.161 500.184 127.737 500.184H128.409C129.073 500.184 129.605 500.068 130.005 499.836C130.405 499.612 130.605 499.256 130.605 498.768ZM128.085 495.48C128.637 495.48 129.057 495.336 129.345 495.048C129.641 494.76 129.789 494.396 129.789 493.956V493.524C129.789 493.092 129.641 492.732 129.345 492.444C129.057 492.156 128.637 492.012 128.085 492.012C127.533 492.012 127.113 492.156 126.825 492.444C126.537 492.732 126.393 493.092 126.393 493.524V493.956C126.393 494.396 126.537 494.76 126.825 495.048C127.121 495.336 127.541 495.48 128.085 495.48ZM137.213 498C137.029 498 136.897 497.956 136.817 497.868C136.737 497.78 136.693 497.656 136.685 497.496V497.052H136.637C136.493 497.356 136.261 497.616 135.941 497.832C135.621 498.04 135.181 498.144 134.621 498.144C133.957 498.144 133.445 497.992 133.085 497.688C132.725 497.384 132.545 496.952 132.545 496.392C132.545 496.136 132.585 495.9 132.665 495.684C132.745 495.468 132.881 495.284 133.073 495.132C133.265 494.972 133.517 494.852 133.829 494.772C134.141 494.684 134.525 494.64 134.981 494.64H136.673V493.752C136.673 493.168 136.517 492.736 136.205 492.456C135.901 492.176 135.481 492.036 134.945 492.036C134.513 492.036 134.133 492.128 133.805 492.312C133.477 492.488 133.229 492.768 133.061 493.152L132.749 492.948C132.917 492.564 133.181 492.256 133.541 492.024C133.909 491.784 134.381 491.664 134.957 491.664C135.629 491.664 136.153 491.844 136.529 492.204C136.905 492.556 137.093 493.056 137.093 493.704V497.628H138.077V498H137.213ZM134.657 497.784C134.929 497.784 135.185 497.752 135.425 497.688C135.673 497.616 135.889 497.516 136.073 497.388C136.257 497.252 136.401 497.088 136.505 496.896C136.617 496.704 136.673 496.48 136.673 496.224V494.976H134.993C134.281 494.976 133.769 495.092 133.457 495.324C133.153 495.548 133.001 495.844 133.001 496.212V496.572C133.001 496.964 133.153 497.264 133.457 497.472C133.761 497.68 134.161 497.784 134.657 497.784ZM142.62 498.144C142.02 498.144 141.492 498.044 141.036 497.844C140.588 497.636 140.196 497.328 139.86 496.92L140.16 496.668C140.472 497.052 140.824 497.336 141.216 497.52C141.616 497.696 142.084 497.784 142.62 497.784C143.228 497.784 143.716 497.668 144.084 497.436C144.46 497.196 144.648 496.828 144.648 496.332C144.648 496.116 144.612 495.936 144.54 495.792C144.468 495.648 144.364 495.532 144.228 495.444C144.092 495.348 143.928 495.276 143.736 495.228C143.544 495.172 143.332 495.128 143.1 495.096L142.14 494.964C141.876 494.924 141.624 494.876 141.384 494.82C141.144 494.756 140.932 494.664 140.748 494.544C140.572 494.424 140.428 494.272 140.316 494.088C140.212 493.896 140.16 493.656 140.16 493.368C140.16 493.064 140.22 492.804 140.34 492.588C140.46 492.372 140.62 492.196 140.82 492.06C141.028 491.924 141.268 491.824 141.54 491.76C141.82 491.696 142.116 491.664 142.428 491.664C142.724 491.664 142.992 491.692 143.232 491.748C143.48 491.796 143.7 491.868 143.892 491.964C144.092 492.052 144.268 492.156 144.42 492.276C144.58 492.388 144.72 492.508 144.84 492.636L144.552 492.924C144.456 492.812 144.344 492.704 144.216 492.6C144.088 492.488 143.936 492.392 143.76 492.312C143.592 492.224 143.396 492.156 143.172 492.108C142.956 492.052 142.704 492.024 142.416 492.024C141.856 492.024 141.408 492.132 141.072 492.348C140.744 492.556 140.58 492.888 140.58 493.344C140.58 493.56 140.616 493.74 140.688 493.884C140.76 494.02 140.864 494.136 141 494.232C141.136 494.32 141.3 494.392 141.492 494.448C141.684 494.496 141.896 494.536 142.128 494.568L143.1 494.712C143.364 494.752 143.612 494.804 143.844 494.868C144.084 494.924 144.292 495.012 144.468 495.132C144.652 495.244 144.796 495.396 144.9 495.588C145.012 495.78 145.068 496.02 145.068 496.308C145.068 496.62 145.004 496.892 144.876 497.124C144.756 497.356 144.588 497.548 144.372 497.7C144.156 497.844 143.896 497.952 143.592 498.024C143.296 498.104 142.972 498.144 142.62 498.144ZM154.322 497.628H156.59V492.18H154.202V491.808H156.59V489.72C156.59 489.32 156.786 489.12 157.178 489.12H159.662V489.492H156.998V491.808H159.662V492.18H156.998V497.628H159.386V498H154.322V497.628ZM164.11 498.144C163.278 498.144 162.626 497.868 162.154 497.316C161.69 496.764 161.458 495.96 161.458 494.904C161.458 493.848 161.69 493.044 162.154 492.492C162.618 491.94 163.25 491.664 164.05 491.664C164.466 491.664 164.834 491.74 165.154 491.892C165.474 492.036 165.742 492.244 165.958 492.516C166.174 492.788 166.338 493.116 166.45 493.5C166.562 493.884 166.618 494.308 166.618 494.772V494.94H161.914V495.252C161.914 496.028 162.102 496.644 162.478 497.1C162.862 497.548 163.406 497.772 164.11 497.772C164.606 497.772 165.026 497.656 165.37 497.424C165.714 497.192 165.978 496.844 166.162 496.38L166.498 496.56C166.314 497.04 166.018 497.424 165.61 497.712C165.21 498 164.71 498.144 164.11 498.144ZM164.05 492.024C163.37 492.024 162.842 492.252 162.466 492.708C162.098 493.164 161.914 493.78 161.914 494.556V494.604H166.174V494.544C166.174 493.768 165.99 493.156 165.622 492.708C165.254 492.252 164.73 492.024 164.05 492.024ZM171.305 498.144C170.473 498.144 169.821 497.868 169.349 497.316C168.885 496.764 168.653 495.96 168.653 494.904C168.653 493.848 168.885 493.044 169.349 492.492C169.813 491.94 170.445 491.664 171.245 491.664C171.661 491.664 172.029 491.74 172.349 491.892C172.669 492.036 172.937 492.244 173.153 492.516C173.369 492.788 173.533 493.116 173.645 493.5C173.757 493.884 173.813 494.308 173.813 494.772V494.94H169.109V495.252C169.109 496.028 169.297 496.644 169.673 497.1C170.057 497.548 170.601 497.772 171.305 497.772C171.801 497.772 172.221 497.656 172.565 497.424C172.909 497.192 173.173 496.844 173.357 496.38L173.693 496.56C173.509 497.04 173.213 497.424 172.805 497.712C172.405 498 171.905 498.144 171.305 498.144ZM171.245 492.024C170.565 492.024 170.037 492.252 169.661 492.708C169.293 493.164 169.109 493.78 169.109 494.556V494.604H173.369V494.544C173.369 493.768 173.185 493.156 172.817 492.708C172.449 492.252 171.925 492.024 171.245 492.024ZM182.444 491.808H182.828L183.86 497.628H183.908L185.348 491.808H185.888L187.328 497.628H187.376L188.408 491.808H188.78L187.664 498H187.064L185.648 492.228H185.6L184.16 498H183.56L182.444 491.808ZM193.191 489.876C193.031 489.876 192.915 489.844 192.843 489.78C192.779 489.708 192.747 489.62 192.747 489.516V489.408C192.747 489.304 192.779 489.22 192.843 489.156C192.915 489.084 193.031 489.048 193.191 489.048C193.351 489.048 193.463 489.084 193.527 489.156C193.599 489.22 193.635 489.304 193.635 489.408V489.516C193.635 489.62 193.599 489.708 193.527 489.78C193.463 489.844 193.351 489.876 193.191 489.876ZM190.575 497.628H192.987V492.18H190.575V491.808H193.407V497.628H195.663V498H190.575V497.628ZM197.458 497.628H199.798V489.492H197.458V489.12H200.218V497.628H202.546V498H197.458V497.628ZM204.654 497.628H206.994V489.492H204.654V489.12H207.414V497.628H209.742V498H204.654V497.628ZM219.404 489.12H219.824V492.756H219.86C220.004 492.468 220.236 492.216 220.556 492C220.876 491.776 221.288 491.664 221.792 491.664C222.576 491.664 223.188 491.936 223.628 492.48C224.068 493.024 224.288 493.832 224.288 494.904C224.288 495.976 224.068 496.784 223.628 497.328C223.188 497.872 222.576 498.144 221.792 498.144C221.288 498.144 220.876 498.036 220.556 497.82C220.236 497.596 220.004 497.34 219.86 497.052H219.824V498H219.404V489.12ZM221.696 497.772C222.384 497.772 222.912 497.548 223.28 497.1C223.648 496.644 223.832 496.028 223.832 495.252V494.556C223.832 493.78 223.648 493.168 223.28 492.72C222.912 492.264 222.384 492.036 221.696 492.036C221.448 492.036 221.212 492.072 220.988 492.144C220.764 492.216 220.564 492.32 220.388 492.456C220.22 492.592 220.084 492.756 219.98 492.948C219.876 493.14 219.824 493.352 219.824 493.584V496.224C219.824 496.456 219.876 496.668 219.98 496.86C220.084 497.052 220.22 497.216 220.388 497.352C220.564 497.488 220.764 497.592 220.988 497.664C221.212 497.736 221.448 497.772 221.696 497.772ZM228.868 498.144C228.036 498.144 227.384 497.868 226.912 497.316C226.448 496.764 226.216 495.96 226.216 494.904C226.216 493.848 226.448 493.044 226.912 492.492C227.376 491.94 228.008 491.664 228.808 491.664C229.224 491.664 229.592 491.74 229.912 491.892C230.232 492.036 230.5 492.244 230.716 492.516C230.932 492.788 231.096 493.116 231.208 493.5C231.32 493.884 231.376 494.308 231.376 494.772V494.94H226.672V495.252C226.672 496.028 226.86 496.644 227.236 497.1C227.62 497.548 228.164 497.772 228.868 497.772C229.364 497.772 229.784 497.656 230.128 497.424C230.472 497.192 230.736 496.844 230.92 496.38L231.256 496.56C231.072 497.04 230.776 497.424 230.368 497.712C229.968 498 229.468 498.144 228.868 498.144ZM228.808 492.024C228.128 492.024 227.6 492.252 227.224 492.708C226.856 493.164 226.672 493.78 226.672 494.556V494.604H230.932V494.544C230.932 493.768 230.748 493.156 230.38 492.708C230.012 492.252 229.488 492.024 228.808 492.024ZM243.426 498.144C242.602 498.144 241.962 497.868 241.506 497.316C241.05 496.764 240.822 495.96 240.822 494.904C240.822 493.848 241.05 493.044 241.506 492.492C241.962 491.94 242.602 491.664 243.426 491.664C243.978 491.664 244.434 491.792 244.794 492.048C245.154 492.296 245.41 492.624 245.562 493.032L245.202 493.176C245.066 492.808 244.846 492.528 244.542 492.336C244.238 492.136 243.866 492.036 243.426 492.036C242.73 492.036 242.198 492.264 241.83 492.72C241.462 493.168 241.278 493.78 241.278 494.556V495.252C241.278 496.028 241.462 496.644 241.83 497.1C242.198 497.548 242.73 497.772 243.426 497.772C243.898 497.772 244.29 497.664 244.602 497.448C244.914 497.232 245.154 496.94 245.322 496.572L245.646 496.764C245.566 496.956 245.458 497.136 245.322 497.304C245.186 497.464 245.026 497.608 244.842 497.736C244.658 497.864 244.446 497.964 244.206 498.036C243.974 498.108 243.714 498.144 243.426 498.144ZM250.37 498.144C249.554 498.144 248.918 497.868 248.462 497.316C248.006 496.764 247.778 495.96 247.778 494.904C247.778 493.848 248.006 493.044 248.462 492.492C248.918 491.94 249.554 491.664 250.37 491.664C251.186 491.664 251.822 491.94 252.278 492.492C252.734 493.044 252.962 493.848 252.962 494.904C252.962 495.96 252.734 496.764 252.278 497.316C251.822 497.868 251.186 498.144 250.37 498.144ZM250.37 497.772C251.05 497.772 251.574 497.548 251.942 497.1C252.318 496.652 252.506 496.028 252.506 495.228V494.58C252.506 493.78 252.318 493.156 251.942 492.708C251.574 492.26 251.05 492.036 250.37 492.036C249.69 492.036 249.162 492.26 248.786 492.708C248.418 493.156 248.234 493.78 248.234 494.58V495.228C248.234 496.028 248.418 496.652 248.786 497.1C249.162 497.548 249.69 497.772 250.37 497.772ZM257.301 498L254.997 491.808H255.429L257.553 497.592H257.589L259.713 491.808H260.133L257.829 498H257.301ZM264.844 498.144C264.012 498.144 263.36 497.868 262.888 497.316C262.424 496.764 262.192 495.96 262.192 494.904C262.192 493.848 262.424 493.044 262.888 492.492C263.352 491.94 263.984 491.664 264.784 491.664C265.2 491.664 265.568 491.74 265.888 491.892C266.208 492.036 266.476 492.244 266.692 492.516C266.908 492.788 267.072 493.116 267.184 493.5C267.296 493.884 267.352 494.308 267.352 494.772V494.94H262.648V495.252C262.648 496.028 262.836 496.644 263.212 497.1C263.596 497.548 264.14 497.772 264.844 497.772C265.34 497.772 265.76 497.656 266.104 497.424C266.448 497.192 266.712 496.844 266.896 496.38L267.232 496.56C267.048 497.04 266.752 497.424 266.344 497.712C265.944 498 265.444 498.144 264.844 498.144ZM264.784 492.024C264.104 492.024 263.576 492.252 263.2 492.708C262.832 493.164 262.648 493.78 262.648 494.556V494.604H266.908V494.544C266.908 493.768 266.724 493.156 266.356 492.708C265.988 492.252 265.464 492.024 264.784 492.024ZM269.303 497.628H271.367V492.18H269.303V491.808H271.787V493.092H271.823C271.895 492.916 271.979 492.752 272.075 492.6C272.179 492.44 272.307 492.304 272.459 492.192C272.619 492.072 272.807 491.98 273.023 491.916C273.239 491.844 273.491 491.808 273.779 491.808H275.039V492.204H273.671C273.407 492.204 273.159 492.248 272.927 492.336C272.703 492.416 272.507 492.536 272.339 492.696C272.171 492.856 272.035 493.06 271.931 493.308C271.835 493.548 271.787 493.824 271.787 494.136V497.628H274.427V498H269.303V497.628ZM279.235 498.144C278.403 498.144 277.751 497.868 277.279 497.316C276.815 496.764 276.583 495.96 276.583 494.904C276.583 493.848 276.815 493.044 277.279 492.492C277.743 491.94 278.375 491.664 279.175 491.664C279.591 491.664 279.959 491.74 280.279 491.892C280.599 492.036 280.867 492.244 281.083 492.516C281.299 492.788 281.463 493.116 281.575 493.5C281.687 493.884 281.743 494.308 281.743 494.772V494.94H277.039V495.252C277.039 496.028 277.227 496.644 277.603 497.1C277.987 497.548 278.531 497.772 279.235 497.772C279.731 497.772 280.151 497.656 280.495 497.424C280.839 497.192 281.103 496.844 281.287 496.38L281.623 496.56C281.439 497.04 281.143 497.424 280.735 497.712C280.335 498 279.835 498.144 279.235 498.144ZM279.175 492.024C278.495 492.024 277.967 492.252 277.591 492.708C277.223 493.164 277.039 493.78 277.039 494.556V494.604H281.299V494.544C281.299 493.768 281.115 493.156 280.747 492.708C280.379 492.252 279.855 492.024 279.175 492.024ZM288.11 497.052H288.074C287.93 497.34 287.698 497.596 287.378 497.82C287.058 498.036 286.646 498.144 286.142 498.144C285.358 498.144 284.746 497.872 284.306 497.328C283.866 496.784 283.646 495.976 283.646 494.904C283.646 493.832 283.866 493.024 284.306 492.48C284.746 491.936 285.358 491.664 286.142 491.664C286.646 491.664 287.058 491.776 287.378 492C287.698 492.216 287.93 492.468 288.074 492.756H288.11V489.12H288.53V498H288.11V497.052ZM286.238 497.772C286.486 497.772 286.722 497.736 286.946 497.664C287.17 497.592 287.366 497.488 287.534 497.352C287.71 497.216 287.85 497.052 287.954 496.86C288.058 496.668 288.11 496.456 288.11 496.224V493.584C288.11 493.352 288.058 493.14 287.954 492.948C287.85 492.756 287.71 492.592 287.534 492.456C287.366 492.32 287.17 492.216 286.946 492.144C286.722 492.072 286.486 492.036 286.238 492.036C285.55 492.036 285.022 492.264 284.654 492.72C284.286 493.168 284.102 493.78 284.102 494.556V495.252C284.102 496.028 284.286 496.644 284.654 497.1C285.022 497.548 285.55 497.772 286.238 497.772ZM298.553 489.12H298.973V492.756H299.009C299.153 492.468 299.385 492.216 299.705 492C300.025 491.776 300.437 491.664 300.941 491.664C301.725 491.664 302.337 491.936 302.777 492.48C303.217 493.024 303.437 493.832 303.437 494.904C303.437 495.976 303.217 496.784 302.777 497.328C302.337 497.872 301.725 498.144 300.941 498.144C300.437 498.144 300.025 498.036 299.705 497.82C299.385 497.596 299.153 497.34 299.009 497.052H298.973V498H298.553V489.12ZM300.845 497.772C301.533 497.772 302.061 497.548 302.429 497.1C302.797 496.644 302.981 496.028 302.981 495.252V494.556C302.981 493.78 302.797 493.168 302.429 492.72C302.061 492.264 301.533 492.036 300.845 492.036C300.597 492.036 300.361 492.072 300.137 492.144C299.913 492.216 299.713 492.32 299.537 492.456C299.369 492.592 299.233 492.756 299.129 492.948C299.025 493.14 298.973 493.352 298.973 493.584V496.224C298.973 496.456 299.025 496.668 299.129 496.86C299.233 497.052 299.369 497.216 299.537 497.352C299.713 497.488 299.913 497.592 300.137 497.664C300.361 497.736 300.597 497.772 300.845 497.772ZM310.188 491.808H310.62L307.236 499.98C307.172 500.124 307.092 500.228 306.996 500.292C306.9 500.364 306.76 500.4 306.576 500.4H305.424V500.028H306.792L307.716 497.796L305.244 491.808H305.688L307.92 497.256H307.956L310.188 491.808ZM124.188 514L121.884 507.808H122.316L124.44 513.592H124.476L126.6 507.808H127.02L124.716 514H124.188ZM132.031 505.876C131.871 505.876 131.755 505.844 131.683 505.78C131.619 505.708 131.587 505.62 131.587 505.516V505.408C131.587 505.304 131.619 505.22 131.683 505.156C131.755 505.084 131.871 505.048 132.031 505.048C132.191 505.048 132.303 505.084 132.367 505.156C132.439 505.22 132.475 505.304 132.475 505.408V505.516C132.475 505.62 132.439 505.708 132.367 505.78C132.303 505.844 132.191 505.876 132.031 505.876ZM129.415 513.628H131.827V508.18H129.415V507.808H132.247V513.628H134.503V514H129.415V513.628ZM138.926 514.144C138.094 514.144 137.442 513.868 136.97 513.316C136.506 512.764 136.274 511.96 136.274 510.904C136.274 509.848 136.506 509.044 136.97 508.492C137.434 507.94 138.066 507.664 138.866 507.664C139.282 507.664 139.65 507.74 139.97 507.892C140.29 508.036 140.558 508.244 140.774 508.516C140.99 508.788 141.154 509.116 141.266 509.5C141.378 509.884 141.434 510.308 141.434 510.772V510.94H136.73V511.252C136.73 512.028 136.918 512.644 137.294 513.1C137.678 513.548 138.222 513.772 138.926 513.772C139.422 513.772 139.842 513.656 140.186 513.424C140.53 513.192 140.794 512.844 140.978 512.38L141.314 512.56C141.13 513.04 140.834 513.424 140.426 513.712C140.026 514 139.526 514.144 138.926 514.144ZM138.866 508.024C138.186 508.024 137.658 508.252 137.282 508.708C136.914 509.164 136.73 509.78 136.73 510.556V510.604H140.99V510.544C140.99 509.768 140.806 509.156 140.438 508.708C140.07 508.252 139.546 508.024 138.866 508.024ZM142.87 507.808H143.254L144.286 513.628H144.334L145.774 507.808H146.314L147.754 513.628H147.802L148.834 507.808H149.206L148.09 514H147.49L146.074 508.228H146.026L144.586 514H143.986L142.87 507.808ZM153.617 505.876C153.457 505.876 153.341 505.844 153.269 505.78C153.205 505.708 153.173 505.62 153.173 505.516V505.408C153.173 505.304 153.205 505.22 153.269 505.156C153.341 505.084 153.457 505.048 153.617 505.048C153.777 505.048 153.889 505.084 153.953 505.156C154.025 505.22 154.061 505.304 154.061 505.408V505.516C154.061 505.62 154.025 505.708 153.953 505.78C153.889 505.844 153.777 505.876 153.617 505.876ZM151.001 513.628H153.413V508.18H151.001V507.808H153.833V513.628H156.089V514H151.001V513.628ZM158.268 514V507.808H158.688V508.72H158.724C158.78 508.584 158.856 508.452 158.952 508.324C159.056 508.196 159.184 508.084 159.336 507.988C159.488 507.892 159.668 507.816 159.876 507.76C160.084 507.696 160.324 507.664 160.596 507.664C161.276 507.664 161.796 507.864 162.156 508.264C162.516 508.656 162.696 509.228 162.696 509.98V514H162.276V510.052C162.276 509.348 162.124 508.836 161.82 508.516C161.516 508.196 161.076 508.036 160.5 508.036C160.268 508.036 160.04 508.068 159.816 508.132C159.6 508.196 159.408 508.292 159.24 508.42C159.072 508.548 158.936 508.708 158.832 508.9C158.736 509.092 158.688 509.316 158.688 509.572V514H158.268ZM170.587 514.744C170.587 515.368 170.335 515.824 169.831 516.112C169.327 516.4 168.603 516.544 167.659 516.544C166.731 516.544 166.063 516.4 165.655 516.112C165.247 515.832 165.043 515.456 165.043 514.984C165.043 514.624 165.143 514.328 165.343 514.096C165.551 513.872 165.839 513.704 166.207 513.592V513.532C165.791 513.396 165.583 513.124 165.583 512.716C165.583 512.42 165.687 512.188 165.895 512.02C166.103 511.852 166.347 511.728 166.627 511.648V511.612C166.275 511.452 165.999 511.216 165.799 510.904C165.607 510.584 165.511 510.196 165.511 509.74C165.511 509.428 165.559 509.144 165.655 508.888C165.759 508.632 165.903 508.416 166.087 508.24C166.271 508.056 166.495 507.916 166.759 507.82C167.031 507.716 167.331 507.664 167.659 507.664C168.171 507.664 168.607 507.788 168.967 508.036V507.64C168.967 507.344 169.115 507.196 169.411 507.196H170.695V507.568H169.255V508.264C169.439 508.448 169.579 508.664 169.675 508.912C169.771 509.16 169.819 509.436 169.819 509.74C169.819 510.052 169.767 510.34 169.663 510.604C169.559 510.86 169.411 511.08 169.219 511.264C169.027 511.44 168.799 511.58 168.535 511.684C168.271 511.78 167.979 511.828 167.659 511.828C167.443 511.828 167.227 511.804 167.011 511.756C166.691 511.836 166.435 511.948 166.243 512.092C166.059 512.236 165.967 512.424 165.967 512.656C165.967 512.824 166.039 512.968 166.183 513.088C166.335 513.208 166.607 513.268 166.999 513.268H168.559C169.271 513.268 169.787 513.404 170.107 513.676C170.427 513.94 170.587 514.296 170.587 514.744ZM170.179 514.768C170.179 514.424 170.055 514.156 169.807 513.964C169.567 513.764 169.143 513.664 168.535 513.664H166.615C166.271 513.76 165.995 513.908 165.787 514.108C165.579 514.316 165.475 514.592 165.475 514.936C165.475 515.32 165.635 515.624 165.955 515.848C166.283 516.072 166.735 516.184 167.311 516.184H167.983C168.647 516.184 169.179 516.068 169.579 515.836C169.979 515.612 170.179 515.256 170.179 514.768ZM167.659 511.48C168.211 511.48 168.631 511.336 168.919 511.048C169.215 510.76 169.363 510.396 169.363 509.956V509.524C169.363 509.092 169.215 508.732 168.919 508.444C168.631 508.156 168.211 508.012 167.659 508.012C167.107 508.012 166.687 508.156 166.399 508.444C166.111 508.732 165.967 509.092 165.967 509.524V509.956C165.967 510.396 166.111 510.76 166.399 511.048C166.695 511.336 167.115 511.48 167.659 511.48ZM183.982 514C183.798 514 183.666 513.956 183.586 513.868C183.506 513.78 183.462 513.656 183.454 513.496V513.052H183.406C183.262 513.356 183.03 513.616 182.71 513.832C182.39 514.04 181.95 514.144 181.39 514.144C180.726 514.144 180.214 513.992 179.854 513.688C179.494 513.384 179.314 512.952 179.314 512.392C179.314 512.136 179.354 511.9 179.434 511.684C179.514 511.468 179.65 511.284 179.842 511.132C180.034 510.972 180.286 510.852 180.598 510.772C180.91 510.684 181.294 510.64 181.75 510.64H183.442V509.752C183.442 509.168 183.286 508.736 182.974 508.456C182.67 508.176 182.25 508.036 181.714 508.036C181.282 508.036 180.902 508.128 180.574 508.312C180.246 508.488 179.998 508.768 179.83 509.152L179.518 508.948C179.686 508.564 179.95 508.256 180.31 508.024C180.678 507.784 181.15 507.664 181.726 507.664C182.398 507.664 182.922 507.844 183.298 508.204C183.674 508.556 183.862 509.056 183.862 509.704V513.628H184.846V514H183.982ZM181.426 513.784C181.698 513.784 181.954 513.752 182.194 513.688C182.442 513.616 182.658 513.516 182.842 513.388C183.026 513.252 183.17 513.088 183.274 512.896C183.386 512.704 183.442 512.48 183.442 512.224V510.976H181.762C181.05 510.976 180.538 511.092 180.226 511.324C179.922 511.548 179.77 511.844 179.77 512.212V512.572C179.77 512.964 179.922 513.264 180.226 513.472C180.53 513.68 180.93 513.784 181.426 513.784ZM196.585 514.144C195.985 514.144 195.457 514.044 195.001 513.844C194.553 513.636 194.161 513.328 193.825 512.92L194.125 512.668C194.437 513.052 194.789 513.336 195.181 513.52C195.581 513.696 196.049 513.784 196.585 513.784C197.193 513.784 197.681 513.668 198.049 513.436C198.425 513.196 198.613 512.828 198.613 512.332C198.613 512.116 198.577 511.936 198.505 511.792C198.433 511.648 198.329 511.532 198.193 511.444C198.057 511.348 197.893 511.276 197.701 511.228C197.509 511.172 197.297 511.128 197.065 511.096L196.105 510.964C195.841 510.924 195.589 510.876 195.349 510.82C195.109 510.756 194.897 510.664 194.713 510.544C194.537 510.424 194.393 510.272 194.281 510.088C194.177 509.896 194.125 509.656 194.125 509.368C194.125 509.064 194.185 508.804 194.305 508.588C194.425 508.372 194.585 508.196 194.785 508.06C194.993 507.924 195.233 507.824 195.505 507.76C195.785 507.696 196.081 507.664 196.393 507.664C196.689 507.664 196.957 507.692 197.197 507.748C197.445 507.796 197.665 507.868 197.857 507.964C198.057 508.052 198.233 508.156 198.385 508.276C198.545 508.388 198.685 508.508 198.805 508.636L198.517 508.924C198.421 508.812 198.309 508.704 198.181 508.6C198.053 508.488 197.901 508.392 197.725 508.312C197.557 508.224 197.361 508.156 197.137 508.108C196.921 508.052 196.669 508.024 196.381 508.024C195.821 508.024 195.373 508.132 195.037 508.348C194.709 508.556 194.545 508.888 194.545 509.344C194.545 509.56 194.581 509.74 194.653 509.884C194.725 510.02 194.829 510.136 194.965 510.232C195.101 510.32 195.265 510.392 195.457 510.448C195.649 510.496 195.861 510.536 196.093 510.568L197.065 510.712C197.329 510.752 197.577 510.804 197.809 510.868C198.049 510.924 198.257 511.012 198.433 511.132C198.617 511.244 198.761 511.396 198.865 511.588C198.977 511.78 199.033 512.02 199.033 512.308C199.033 512.62 198.969 512.892 198.841 513.124C198.721 513.356 198.553 513.548 198.337 513.7C198.121 513.844 197.861 513.952 197.557 514.024C197.261 514.104 196.937 514.144 196.585 514.144ZM201.44 505.12H201.86V508.72H201.896C201.952 508.584 202.028 508.452 202.124 508.324C202.228 508.196 202.356 508.084 202.508 507.988C202.66 507.892 202.84 507.816 203.048 507.76C203.256 507.696 203.496 507.664 203.768 507.664C204.448 507.664 204.968 507.864 205.328 508.264C205.688 508.656 205.868 509.228 205.868 509.98V514H205.448V510.052C205.448 509.348 205.296 508.836 204.992 508.516C204.688 508.196 204.248 508.036 203.672 508.036C203.44 508.036 203.212 508.068 202.988 508.132C202.772 508.196 202.58 508.292 202.412 508.42C202.244 508.548 202.108 508.708 202.004 508.9C201.908 509.092 201.86 509.316 201.86 509.572V514H201.44V505.12ZM210.795 514.144C209.979 514.144 209.343 513.868 208.887 513.316C208.431 512.764 208.203 511.96 208.203 510.904C208.203 509.848 208.431 509.044 208.887 508.492C209.343 507.94 209.979 507.664 210.795 507.664C211.611 507.664 212.247 507.94 212.703 508.492C213.159 509.044 213.387 509.848 213.387 510.904C213.387 511.96 213.159 512.764 212.703 513.316C212.247 513.868 211.611 514.144 210.795 514.144ZM210.795 513.772C211.475 513.772 211.999 513.548 212.367 513.1C212.743 512.652 212.931 512.028 212.931 511.228V510.58C212.931 509.78 212.743 509.156 212.367 508.708C211.999 508.26 211.475 508.036 210.795 508.036C210.115 508.036 209.587 508.26 209.211 508.708C208.843 509.156 208.659 509.78 208.659 510.58V511.228C208.659 512.028 208.843 512.652 209.211 513.1C209.587 513.548 210.115 513.772 210.795 513.772ZM215.339 513.628H217.403V508.18H215.339V507.808H217.823V509.092H217.859C217.931 508.916 218.015 508.752 218.111 508.6C218.215 508.44 218.343 508.304 218.495 508.192C218.655 508.072 218.843 507.98 219.059 507.916C219.275 507.844 219.527 507.808 219.815 507.808H221.075V508.204H219.707C219.443 508.204 219.195 508.248 218.963 508.336C218.739 508.416 218.543 508.536 218.375 508.696C218.207 508.856 218.071 509.06 217.967 509.308C217.871 509.548 217.823 509.824 217.823 510.136V513.628H220.463V514H215.339V513.628ZM224.946 514C224.554 514 224.358 513.8 224.358 513.4V508.18H222.03V507.808H223.962C224.234 507.808 224.37 507.676 224.37 507.412V505.624H224.778V507.808H227.862V508.18H224.778V513.628H227.862V514H224.946ZM239.313 514L237.009 507.808H237.441L239.565 513.592H239.601L241.725 507.808H242.145L239.841 514H239.313ZM247.156 505.876C246.996 505.876 246.88 505.844 246.808 505.78C246.744 505.708 246.712 505.62 246.712 505.516V505.408C246.712 505.304 246.744 505.22 246.808 505.156C246.88 505.084 246.996 505.048 247.156 505.048C247.316 505.048 247.428 505.084 247.492 505.156C247.564 505.22 247.6 505.304 247.6 505.408V505.516C247.6 505.62 247.564 505.708 247.492 505.78C247.428 505.844 247.316 505.876 247.156 505.876ZM244.54 513.628H246.952V508.18H244.54V507.808H247.372V513.628H249.628V514H244.54V513.628ZM255.731 513.052H255.695C255.551 513.34 255.319 513.596 254.999 513.82C254.679 514.036 254.267 514.144 253.763 514.144C252.979 514.144 252.367 513.872 251.927 513.328C251.487 512.784 251.267 511.976 251.267 510.904C251.267 509.832 251.487 509.024 251.927 508.48C252.367 507.936 252.979 507.664 253.763 507.664C254.267 507.664 254.679 507.776 254.999 508C255.319 508.216 255.551 508.468 255.695 508.756H255.731V505.12H256.151V514H255.731V513.052ZM253.859 513.772C254.107 513.772 254.343 513.736 254.567 513.664C254.791 513.592 254.987 513.488 255.155 513.352C255.331 513.216 255.471 513.052 255.575 512.86C255.679 512.668 255.731 512.456 255.731 512.224V509.584C255.731 509.352 255.679 509.14 255.575 508.948C255.471 508.756 255.331 508.592 255.155 508.456C254.987 508.32 254.791 508.216 254.567 508.144C254.343 508.072 254.107 508.036 253.859 508.036C253.171 508.036 252.643 508.264 252.275 508.72C251.907 509.168 251.723 509.78 251.723 510.556V511.252C251.723 512.028 251.907 512.644 252.275 513.1C252.643 513.548 253.171 513.772 253.859 513.772ZM261.247 514.144C260.415 514.144 259.763 513.868 259.291 513.316C258.827 512.764 258.595 511.96 258.595 510.904C258.595 509.848 258.827 509.044 259.291 508.492C259.755 507.94 260.387 507.664 261.187 507.664C261.603 507.664 261.971 507.74 262.291 507.892C262.611 508.036 262.879 508.244 263.095 508.516C263.311 508.788 263.475 509.116 263.587 509.5C263.699 509.884 263.755 510.308 263.755 510.772V510.94H259.051V511.252C259.051 512.028 259.239 512.644 259.615 513.1C259.999 513.548 260.543 513.772 261.247 513.772C261.743 513.772 262.163 513.656 262.507 513.424C262.851 513.192 263.115 512.844 263.299 512.38L263.635 512.56C263.451 513.04 263.155 513.424 262.747 513.712C262.347 514 261.847 514.144 261.247 514.144ZM261.187 508.024C260.507 508.024 259.979 508.252 259.603 508.708C259.235 509.164 259.051 509.78 259.051 510.556V510.604H263.311V510.544C263.311 509.768 263.127 509.156 262.759 508.708C262.391 508.252 261.867 508.024 261.187 508.024ZM268.358 514.144C267.542 514.144 266.906 513.868 266.45 513.316C265.994 512.764 265.766 511.96 265.766 510.904C265.766 509.848 265.994 509.044 266.45 508.492C266.906 507.94 267.542 507.664 268.358 507.664C269.174 507.664 269.81 507.94 270.266 508.492C270.722 509.044 270.95 509.848 270.95 510.904C270.95 511.96 270.722 512.764 270.266 513.316C269.81 513.868 269.174 514.144 268.358 514.144ZM268.358 513.772C269.038 513.772 269.562 513.548 269.93 513.1C270.306 512.652 270.494 512.028 270.494 511.228V510.58C270.494 509.78 270.306 509.156 269.93 508.708C269.562 508.26 269.038 508.036 268.358 508.036C267.678 508.036 267.15 508.26 266.774 508.708C266.406 509.156 266.222 509.78 266.222 510.58V511.228C266.222 512.028 266.406 512.652 266.774 513.1C267.15 513.548 267.678 513.772 268.358 513.772ZM275.553 514.072C275.369 514.072 275.237 514.036 275.157 513.964C275.077 513.884 275.037 513.78 275.037 513.652V513.532C275.037 513.404 275.077 513.304 275.157 513.232C275.237 513.152 275.369 513.112 275.553 513.112C275.737 513.112 275.869 513.152 275.949 513.232C276.029 513.304 276.069 513.404 276.069 513.532V513.652C276.069 513.78 276.029 513.884 275.949 513.964C275.869 514.036 275.737 514.072 275.553 514.072Z" fill="#BBBBBB"/>
<defs>
<filter id="filter0_d_25_9" x="75" y="356" width="255" height="42" filterUnits="userSpaceOnUse" color-interpolation-filters="sRGB">
<feFlood flood-opacity="0" result="BackgroundImageFix"/>
<feColorMatrix in="SourceAlpha" type="matrix" values="0 0 0 0 0 0 0 0 0 0 0 0 0 0 0 0 0 0 127 0" result="hardAlpha"/>
<feOffset dx="5" dy="5"/>
<feComposite in2="hardAlpha" operator="out"/>
<feColorMatrix type="matrix" values="0 0 0 0 0.220312 0 0 0 0 0.220312 0 0 0 0 0.225 0 0 0 1 0"/>
<feBlend mode="normal" in2="BackgroundImageFix" result="effect1_dropShadow_25_9"/>
<feBlend mode="normal" in="SourceGraphic" in2="effect1_dropShadow_25_9" result="shape"/>
</filter>
</defs>
</svg>
