<svg width="400" height="600" viewBox="0 0 400 600" fill="none" xmlns="http://www.w3.org/2000/svg">
<rect width="400" height="600" fill="#0A090E"/>
<path d="M119.8 149L118.7 135.04H120.2L120.78 143.04L121.08 147.26H121.24L123.08 138.68H124.96L126.8 147.26H126.96L127.26 143.04L127.84 135.04H129.3L128.2 149H125.78L124.08 140.66H123.92L122.22 149H119.8ZM139.612 149L138.432 145.02H133.532L132.352 149H130.612L134.892 135.04H137.112L141.392 149H139.612ZM136.072 136.82H135.892L133.932 143.56H138.032L136.072 136.82ZM144.384 149V135.04H146.064V147.54H152.684V149H144.384ZM156.377 149V135.04H158.057V147.54H164.677V149H156.377ZM167.769 149V135.04H176.369V136.5H169.449V141.2H176.129V142.66H169.449V147.54H176.369V149H167.769ZM184.801 136.5V149H183.121V136.5H178.461V135.04H189.461V136.5H184.801ZM203.705 135.04H208.445C209.645 135.04 210.585 135.367 211.265 136.02C211.945 136.673 212.285 137.547 212.285 138.64C212.285 139.48 212.079 140.14 211.665 140.62C211.265 141.1 210.745 141.44 210.105 141.64V141.7C210.892 141.887 211.539 142.24 212.045 142.76C212.552 143.267 212.805 144.007 212.805 144.98C212.805 145.54 212.712 146.067 212.525 146.56C212.339 147.053 212.072 147.48 211.725 147.84C211.392 148.2 210.992 148.487 210.525 148.7C210.072 148.9 209.579 149 209.045 149H203.705V135.04ZM208.545 147.54C209.319 147.54 209.925 147.367 210.365 147.02C210.805 146.673 211.025 146.14 211.025 145.42V144.6C211.025 143.893 210.805 143.367 210.365 143.02C209.925 142.66 209.319 142.48 208.545 142.48H205.385V147.54H208.545ZM208.265 141.1C208.972 141.1 209.525 140.947 209.925 140.64C210.325 140.32 210.525 139.84 210.525 139.2V138.42C210.525 137.78 210.325 137.3 209.925 136.98C209.525 136.66 208.972 136.5 208.265 136.5H205.385V141.1H208.265ZM223.558 149L222.378 145.02H217.478L216.298 149H214.558L218.838 135.04H221.058L225.338 149H223.558ZM220.018 136.82H219.838L217.878 143.56H221.978L220.018 136.82ZM228.33 149V135.04H230.01V147.54H236.63V149H228.33ZM247.542 149L246.362 145.02H241.462L240.282 149H238.542L242.822 135.04H245.042L249.322 149H247.542ZM244.002 136.82H243.822L241.862 143.56H245.962L244.002 136.82ZM253.174 137.18H253.034V149H251.514V135.04H253.894L258.654 146.74H258.794V135.04H260.314V149H257.934L253.174 137.18ZM268.366 149.24C266.66 149.24 265.386 148.62 264.546 147.38C263.72 146.14 263.306 144.353 263.306 142.02C263.306 139.687 263.72 137.9 264.546 136.66C265.386 135.42 266.66 134.8 268.366 134.8C269.006 134.8 269.56 134.887 270.026 135.06C270.493 135.233 270.893 135.467 271.226 135.76C271.56 136.053 271.84 136.387 272.066 136.76C272.293 137.12 272.493 137.487 272.666 137.86L271.226 138.52C271.106 138.213 270.966 137.927 270.806 137.66C270.646 137.38 270.453 137.14 270.226 136.94C270.013 136.727 269.753 136.56 269.446 136.44C269.153 136.32 268.793 136.26 268.366 136.26C267.26 136.26 266.433 136.68 265.886 137.52C265.353 138.36 265.086 139.48 265.086 140.88V143.16C265.086 144.56 265.353 145.68 265.886 146.52C266.433 147.36 267.26 147.78 268.366 147.78C268.793 147.78 269.153 147.72 269.446 147.6C269.753 147.48 270.013 147.32 270.226 147.12C270.453 146.907 270.646 146.667 270.806 146.4C270.966 146.12 271.106 145.827 271.226 145.52L272.666 146.18C272.493 146.567 272.293 146.94 272.066 147.3C271.84 147.66 271.56 147.987 271.226 148.28C270.893 148.573 270.493 148.807 270.026 148.98C269.56 149.153 269.006 149.24 268.366 149.24ZM275.698 149V135.04H284.298V136.5H277.378V141.2H284.058V142.66H277.378V147.54H284.298V149H275.698Z" fill="#9F9EA1"/>
<path d="M140.84 346.5V359H139.16V346.5H134.5V345.04H145.5V346.5H140.84ZM157.492 359H155.592L153.932 356.22L152.092 353.18H152.012L150.112 356.22L148.352 359H146.512L151.072 351.88L146.772 345.04H148.672L150.292 347.74L152.032 350.56H152.112L153.832 347.74L155.512 345.04H157.352L153.032 351.86L157.492 359ZM161.244 347.18H161.104V359H159.584V345.04H161.964L166.724 356.74H166.864V345.04H168.384V359H166.004L161.244 347.18ZM190.689 352.66H185.249V359H183.569V345.04H185.249V351.2H190.689V345.04H192.369V359H190.689V352.66ZM195.641 359V357.66H199.121V346.38H195.641V345.04H204.281V346.38H200.801V357.66H204.281V359H195.641ZM211.913 359.24C210.66 359.24 209.633 359.013 208.833 358.56C208.033 358.093 207.373 357.5 206.853 356.78L208.073 355.78C208.62 356.46 209.193 356.967 209.793 357.3C210.406 357.633 211.133 357.8 211.973 357.8C212.986 357.8 213.76 357.567 214.293 357.1C214.826 356.633 215.093 355.98 215.093 355.14C215.093 354.46 214.9 353.933 214.513 353.56C214.126 353.173 213.453 352.9 212.493 352.74L210.933 352.48C210.253 352.36 209.68 352.18 209.213 351.94C208.76 351.7 208.393 351.413 208.113 351.08C207.833 350.733 207.633 350.36 207.513 349.96C207.393 349.547 207.333 349.12 207.333 348.68C207.333 347.4 207.753 346.433 208.593 345.78C209.433 345.127 210.566 344.8 211.993 344.8C213.113 344.8 214.053 344.987 214.813 345.36C215.586 345.733 216.206 346.26 216.673 346.94L215.493 347.96C215.106 347.453 214.64 347.04 214.093 346.72C213.546 346.4 212.84 346.24 211.973 346.24C211.026 346.24 210.3 346.44 209.793 346.84C209.286 347.24 209.033 347.84 209.033 348.64C209.033 349.267 209.22 349.78 209.593 350.18C209.98 350.567 210.666 350.847 211.653 351.02L213.153 351.28C213.833 351.4 214.406 351.58 214.873 351.82C215.34 352.06 215.713 352.347 215.993 352.68C216.286 353.013 216.493 353.387 216.613 353.8C216.733 354.213 216.793 354.647 216.793 355.1C216.793 356.393 216.366 357.407 215.513 358.14C214.673 358.873 213.473 359.24 211.913 359.24ZM224.785 346.5V359H223.105V346.5H218.445V345.04H229.445V346.5H224.785ZM235.938 359.24C235.084 359.24 234.351 359.08 233.738 358.76C233.124 358.427 232.618 357.953 232.218 357.34C231.818 356.727 231.524 355.973 231.338 355.08C231.151 354.187 231.058 353.167 231.058 352.02C231.058 350.887 231.151 349.873 231.338 348.98C231.524 348.073 231.818 347.313 232.218 346.7C232.618 346.087 233.124 345.62 233.738 345.3C234.351 344.967 235.084 344.8 235.938 344.8C236.791 344.8 237.524 344.967 238.138 345.3C238.751 345.62 239.258 346.087 239.658 346.7C240.058 347.313 240.351 348.073 240.538 348.98C240.724 349.873 240.818 350.887 240.818 352.02C240.818 353.167 240.724 354.187 240.538 355.08C240.351 355.973 240.058 356.727 239.658 357.34C239.258 357.953 238.751 358.427 238.138 358.76C237.524 359.08 236.791 359.24 235.938 359.24ZM235.938 357.78C236.498 357.78 236.971 357.673 237.358 357.46C237.744 357.233 238.064 356.92 238.318 356.52C238.571 356.12 238.751 355.64 238.858 355.08C238.978 354.507 239.038 353.867 239.038 353.16V350.88C239.038 350.187 238.978 349.553 238.858 348.98C238.751 348.407 238.571 347.92 238.318 347.52C238.064 347.12 237.744 346.813 237.358 346.6C236.971 346.373 236.498 346.26 235.938 346.26C235.378 346.26 234.904 346.373 234.518 346.6C234.131 346.813 233.811 347.12 233.558 347.52C233.304 347.92 233.118 348.407 232.998 348.98C232.891 349.553 232.838 350.187 232.838 350.88V353.16C232.838 353.867 232.891 354.507 232.998 355.08C233.118 355.64 233.304 356.12 233.558 356.52C233.811 356.92 234.131 357.233 234.518 357.46C234.904 357.673 235.378 357.78 235.938 357.78ZM245.41 359H243.73V345.04H248.81C250.103 345.04 251.09 345.393 251.77 346.1C252.45 346.807 252.79 347.793 252.79 349.06C252.79 350.193 252.496 351.1 251.91 351.78C251.323 352.46 250.47 352.853 249.35 352.96L252.91 359H251.03L247.63 353.04H245.41V359ZM248.77 351.62C249.476 351.62 250.023 351.447 250.41 351.1C250.81 350.74 251.01 350.233 251.01 349.58V348.54C251.01 347.887 250.81 347.387 250.41 347.04C250.023 346.68 249.476 346.5 248.77 346.5H245.41V351.62H248.77ZM259.082 359V353.52L254.262 345.04H256.182L258.182 348.68L259.882 351.86H259.962L261.702 348.68L263.702 345.04H265.582L260.762 353.52V359H259.082Z" fill="#9F9EA1"/>
<path d="M95.59 189.28C97.3167 189.28 98.6583 188.872 99.615 188.055C100.572 187.215 101.05 186.13 101.05 184.8V184.345C101.05 182.945 100.583 181.872 99.65 181.125C98.74 180.355 97.55 179.97 96.08 179.97C94.6333 179.97 93.4783 180.273 92.615 180.88C91.7517 181.463 91.0633 182.245 90.55 183.225L88.975 182.105C89.255 181.592 89.605 181.102 90.025 180.635C90.4683 180.145 90.97 179.713 91.53 179.34C92.1133 178.967 92.7783 178.675 93.525 178.465C94.295 178.255 95.1583 178.15 96.115 178.15C97.1417 178.15 98.0867 178.29 98.95 178.57C99.8367 178.85 100.595 179.258 101.225 179.795C101.855 180.308 102.345 180.95 102.695 181.72C103.068 182.467 103.255 183.318 103.255 184.275C103.255 185.092 103.127 185.827 102.87 186.48C102.637 187.133 102.298 187.693 101.855 188.16C101.435 188.627 100.922 189.023 100.315 189.35C99.7317 189.653 99.1017 189.887 98.425 190.05V190.19C99.1483 190.307 99.8367 190.528 100.49 190.855C101.143 191.158 101.703 191.567 102.17 192.08C102.66 192.593 103.045 193.212 103.325 193.935C103.605 194.658 103.745 195.475 103.745 196.385C103.745 197.435 103.558 198.403 103.185 199.29C102.812 200.153 102.275 200.888 101.575 201.495C100.875 202.102 100.035 202.58 99.055 202.93C98.075 203.257 96.9783 203.42 95.765 203.42C94.785 203.42 93.8983 203.315 93.105 203.105C92.3117 202.918 91.6 202.65 90.97 202.3C90.34 201.927 89.78 201.495 89.29 201.005C88.8 200.515 88.3683 199.99 87.995 199.43L89.57 198.24C90.2467 199.29 91.0633 200.118 92.02 200.725C92.9767 201.308 94.225 201.6 95.765 201.6C97.5617 201.6 98.9733 201.157 100 200.27C101.027 199.36 101.54 198.135 101.54 196.595V196.035C101.54 194.495 101.038 193.293 100.035 192.43C99.055 191.543 97.62 191.1 95.73 191.1H92.65V189.28H95.59ZM117.486 203.245C116.74 203.245 116.215 203.093 115.911 202.79C115.608 202.487 115.456 202.09 115.456 201.6V201.11C115.456 200.643 115.608 200.258 115.911 199.955C116.215 199.628 116.74 199.465 117.486 199.465C118.233 199.465 118.758 199.628 119.061 199.955C119.365 200.258 119.516 200.643 119.516 201.11V201.6C119.516 202.09 119.365 202.487 119.061 202.79C118.758 203.093 118.233 203.245 117.486 203.245ZM141.658 203V197.89H129.338V196.035L140.713 178.57H143.653V196.175H147.468V197.89H143.653V203H141.658ZM131.228 196.175H141.658V180.355H141.553L131.228 196.175ZM167.544 203H151.654V200.865L160.299 192.675C161.489 191.555 162.446 190.423 163.169 189.28C163.892 188.113 164.254 186.888 164.254 185.605V184.94C164.254 183.423 163.822 182.222 162.959 181.335C162.119 180.425 160.859 179.97 159.179 179.97C157.546 179.97 156.274 180.378 155.364 181.195C154.477 181.988 153.824 183.062 153.404 184.415L151.549 183.75C151.782 183.003 152.097 182.292 152.494 181.615C152.891 180.938 153.392 180.343 153.999 179.83C154.629 179.317 155.376 178.908 156.239 178.605C157.102 178.302 158.094 178.15 159.214 178.15C160.381 178.15 161.407 178.325 162.294 178.675C163.204 179.002 163.962 179.468 164.569 180.075C165.199 180.682 165.666 181.417 165.969 182.28C166.296 183.12 166.459 184.065 166.459 185.115C166.459 186.842 166.016 188.417 165.129 189.84C164.242 191.24 163.052 192.628 161.559 194.005L153.859 201.18H167.544V203ZM180.445 203.42C177.622 203.42 175.522 202.37 174.145 200.27C172.792 198.147 172.115 194.985 172.115 190.785C172.115 186.585 172.792 183.435 174.145 181.335C175.522 179.212 177.622 178.15 180.445 178.15C183.269 178.15 185.357 179.212 186.71 181.335C188.087 183.435 188.775 186.585 188.775 190.785C188.775 194.985 188.087 198.147 186.71 200.27C185.357 202.37 183.269 203.42 180.445 203.42ZM180.445 201.6C182.545 201.6 184.085 200.807 185.065 199.22C186.045 197.61 186.535 195.347 186.535 192.43V189.14C186.535 186.247 186.045 183.995 185.065 182.385C184.085 180.775 182.545 179.97 180.445 179.97C178.345 179.97 176.805 180.775 175.825 182.385C174.845 183.995 174.355 186.247 174.355 189.14V192.43C174.355 195.347 174.845 197.61 175.825 199.22C176.805 200.807 178.345 201.6 180.445 201.6ZM180.445 192.395C179.839 192.395 179.407 192.267 179.15 192.01C178.894 191.753 178.765 191.438 178.765 191.065V190.505C178.765 190.132 178.894 189.817 179.15 189.56C179.407 189.303 179.839 189.175 180.445 189.175C181.052 189.175 181.484 189.303 181.74 189.56C181.997 189.817 182.125 190.132 182.125 190.505V191.065C182.125 191.438 181.997 191.753 181.74 192.01C181.484 192.267 181.052 192.395 180.445 192.395ZM201.467 203.42C200.16 203.42 199.005 203.21 198.002 202.79C197.022 202.347 196.193 201.74 195.517 200.97C194.84 200.177 194.327 199.232 193.977 198.135C193.65 197.015 193.487 195.79 193.487 194.46C193.487 192.57 193.743 190.82 194.257 189.21C194.793 187.577 195.482 186.095 196.322 184.765C197.185 183.435 198.165 182.257 199.262 181.23C200.358 180.18 201.478 179.293 202.622 178.57H205.352C203.975 179.503 202.75 180.437 201.677 181.37C200.627 182.303 199.705 183.295 198.912 184.345C198.118 185.372 197.453 186.48 196.917 187.67C196.403 188.86 195.995 190.167 195.692 191.59L195.832 191.625C196.438 190.528 197.243 189.665 198.247 189.035C199.25 188.382 200.498 188.055 201.992 188.055C203.088 188.055 204.08 188.23 204.967 188.58C205.877 188.93 206.658 189.432 207.312 190.085C207.965 190.715 208.467 191.497 208.817 192.43C209.167 193.34 209.342 194.367 209.342 195.51C209.342 196.7 209.155 197.785 208.782 198.765C208.408 199.722 207.883 200.55 207.207 201.25C206.53 201.927 205.702 202.463 204.722 202.86C203.742 203.233 202.657 203.42 201.467 203.42ZM201.432 201.635C203.252 201.635 204.663 201.133 205.667 200.13C206.693 199.103 207.207 197.738 207.207 196.035V195.405C207.207 193.702 206.693 192.348 205.667 191.345C204.663 190.318 203.252 189.805 201.432 189.805C199.588 189.805 198.153 190.318 197.127 191.345C196.123 192.348 195.622 193.702 195.622 195.405V196.035C195.622 197.738 196.123 199.103 197.127 200.13C198.153 201.133 199.588 201.635 201.432 201.635ZM230.398 187.11C230.398 189 230.13 190.762 229.593 192.395C229.08 194.005 228.391 195.475 227.528 196.805C226.665 198.135 225.685 199.325 224.588 200.375C223.515 201.402 222.406 202.277 221.263 203H218.533C219.886 202.067 221.1 201.133 222.173 200.2C223.246 199.267 224.18 198.287 224.973 197.26C225.766 196.21 226.431 195.102 226.968 193.935C227.505 192.745 227.925 191.427 228.228 189.98L228.053 189.945C227.446 191.042 226.641 191.917 225.638 192.57C224.635 193.2 223.386 193.515 221.893 193.515C220.796 193.515 219.793 193.34 218.883 192.99C217.996 192.64 217.226 192.15 216.573 191.52C215.92 190.867 215.418 190.085 215.068 189.175C214.718 188.242 214.543 187.203 214.543 186.06C214.543 184.87 214.73 183.797 215.103 182.84C215.476 181.86 216.001 181.032 216.678 180.355C217.378 179.655 218.218 179.118 219.198 178.745C220.178 178.348 221.263 178.15 222.453 178.15C223.76 178.15 224.903 178.372 225.883 178.815C226.886 179.235 227.715 179.842 228.368 180.635C229.045 181.405 229.546 182.35 229.873 183.47C230.223 184.567 230.398 185.78 230.398 187.11ZM222.488 191.765C224.308 191.765 225.72 191.263 226.723 190.26C227.75 189.233 228.263 187.868 228.263 186.165V185.57C228.263 183.867 227.75 182.513 226.723 181.51C225.72 180.483 224.308 179.97 222.488 179.97C220.668 179.97 219.245 180.483 218.218 181.51C217.191 182.513 216.678 183.867 216.678 185.57V186.165C216.678 187.868 217.191 189.233 218.218 190.26C219.245 191.263 220.668 191.765 222.488 191.765Z" fill="white"/>
<path d="M264.111 203.42C262.011 203.42 260.214 203.058 258.721 202.335C257.251 201.612 256.049 200.655 255.116 199.465L257.881 196.595C258.791 197.645 259.771 198.427 260.821 198.94C261.894 199.43 263.037 199.675 264.251 199.675C265.651 199.675 266.724 199.36 267.471 198.73C268.217 198.1 268.591 197.19 268.591 196C268.591 195.02 268.311 194.285 267.751 193.795C267.191 193.282 266.246 192.92 264.916 192.71L262.326 192.29C260.062 191.893 258.452 191.077 257.496 189.84C256.539 188.58 256.061 187.098 256.061 185.395C256.061 183.062 256.819 181.277 258.336 180.04C259.852 178.78 261.952 178.15 264.636 178.15C266.549 178.15 268.194 178.453 269.571 179.06C270.971 179.667 272.091 180.495 272.931 181.545L270.236 184.415C269.582 183.645 268.801 183.038 267.891 182.595C266.981 182.128 265.907 181.895 264.671 181.895C262.011 181.895 260.681 182.992 260.681 185.185C260.681 186.118 260.961 186.83 261.521 187.32C262.081 187.81 263.037 188.172 264.391 188.405L266.946 188.86C269.069 189.257 270.644 190.038 271.671 191.205C272.697 192.372 273.211 193.865 273.211 195.685C273.211 196.828 273.012 197.878 272.616 198.835C272.219 199.768 271.636 200.585 270.866 201.285C270.096 201.962 269.139 202.487 267.996 202.86C266.876 203.233 265.581 203.42 264.111 203.42ZM285.377 203.42C283.79 203.42 282.414 203.14 281.247 202.58C280.08 201.997 279.112 201.168 278.342 200.095C277.595 199.022 277.035 197.703 276.662 196.14C276.312 194.577 276.137 192.792 276.137 190.785C276.137 188.802 276.312 187.028 276.662 185.465C277.035 183.878 277.595 182.548 278.342 181.475C279.112 180.402 280.08 179.585 281.247 179.025C282.414 178.442 283.79 178.15 285.377 178.15C288.55 178.15 290.884 179.258 292.377 181.475C293.87 183.692 294.617 186.795 294.617 190.785C294.617 194.775 293.87 197.878 292.377 200.095C290.884 202.312 288.55 203.42 285.377 203.42ZM285.377 199.675C286.194 199.675 286.882 199.523 287.442 199.22C288.002 198.893 288.445 198.438 288.772 197.855C289.122 197.272 289.367 196.56 289.507 195.72C289.67 194.857 289.752 193.9 289.752 192.85V188.685C289.752 186.585 289.425 184.928 288.772 183.715C288.142 182.502 287.01 181.895 285.377 181.895C283.744 181.895 282.6 182.502 281.947 183.715C281.317 184.928 281.002 186.585 281.002 188.685V192.885C281.002 194.985 281.317 196.642 281.947 197.855C282.6 199.068 283.744 199.675 285.377 199.675ZM299.363 203V178.57H303.948V199.22H314.763V203H299.363Z" fill="#9F9FED"/>
<path d="M340 50H386V96H340V50Z" fill="white" fill-opacity="0.01"/>
<path d="M347.619 61.4519H378.285" stroke="white" stroke-width="3" stroke-linecap="round" stroke-linejoin="round"/>
<path d="M347.619 72.9519H378.285" stroke="white" stroke-width="3" stroke-linecap="round" stroke-linejoin="round"/>
<path d="M347.619 84.4519H378.285" stroke="white" stroke-width="3" stroke-linecap="round" stroke-linejoin="round"/>
<path d="M299.47 37.18C298.53 37.18 297.76 37.01 297.16 36.67C296.56 36.32 296.065 35.875 295.675 35.335L296.59 34.585C297 35.095 297.43 35.475 297.88 35.725C298.34 35.975 298.885 36.1 299.515 36.1C300.275 36.1 300.855 35.925 301.255 35.575C301.655 35.225 301.855 34.735 301.855 34.105C301.855 33.595 301.71 33.2 301.42 32.92C301.13 32.63 300.625 32.425 299.905 32.305L298.735 32.11C298.225 32.02 297.795 31.885 297.445 31.705C297.105 31.525 296.83 31.31 296.62 31.06C296.41 30.8 296.26 30.52 296.17 30.22C296.08 29.91 296.035 29.59 296.035 29.26C296.035 28.3 296.35 27.575 296.98 27.085C297.61 26.595 298.46 26.35 299.53 26.35C300.37 26.35 301.075 26.49 301.645 26.77C302.225 27.05 302.69 27.445 303.04 27.955L302.155 28.72C301.865 28.34 301.515 28.03 301.105 27.79C300.695 27.55 300.165 27.43 299.515 27.43C298.805 27.43 298.26 27.58 297.88 27.88C297.5 28.18 297.31 28.63 297.31 29.23C297.31 29.7 297.45 30.085 297.73 30.385C298.02 30.675 298.535 30.885 299.275 31.015L300.4 31.21C300.91 31.3 301.34 31.435 301.69 31.615C302.04 31.795 302.32 32.01 302.53 32.26C302.75 32.51 302.905 32.79 302.995 33.1C303.085 33.41 303.13 33.735 303.13 34.075C303.13 35.045 302.81 35.805 302.17 36.355C301.54 36.905 300.64 37.18 299.47 37.18ZM308.494 37.18C307.854 37.18 307.304 37.06 306.844 36.82C306.384 36.57 306.004 36.215 305.704 35.755C305.404 35.295 305.184 34.73 305.044 34.06C304.904 33.39 304.834 32.625 304.834 31.765C304.834 30.915 304.904 30.155 305.044 29.485C305.184 28.805 305.404 28.235 305.704 27.775C306.004 27.315 306.384 26.965 306.844 26.725C307.304 26.475 307.854 26.35 308.494 26.35C309.134 26.35 309.684 26.475 310.144 26.725C310.604 26.965 310.984 27.315 311.284 27.775C311.584 28.235 311.804 28.805 311.944 29.485C312.084 30.155 312.154 30.915 312.154 31.765C312.154 32.625 312.084 33.39 311.944 34.06C311.804 34.73 311.584 35.295 311.284 35.755C310.984 36.215 310.604 36.57 310.144 36.82C309.684 37.06 309.134 37.18 308.494 37.18ZM308.494 36.085C308.914 36.085 309.269 36.005 309.559 35.845C309.849 35.675 310.089 35.44 310.279 35.14C310.469 34.84 310.604 34.48 310.684 34.06C310.774 33.63 310.819 33.15 310.819 32.62V30.91C310.819 30.39 310.774 29.915 310.684 29.485C310.604 29.055 310.469 28.69 310.279 28.39C310.089 28.09 309.849 27.86 309.559 27.7C309.269 27.53 308.914 27.445 308.494 27.445C308.074 27.445 307.719 27.53 307.429 27.7C307.139 27.86 306.899 28.09 306.709 28.39C306.519 28.69 306.379 29.055 306.289 29.485C306.209 29.915 306.169 30.39 306.169 30.91V32.62C306.169 33.15 306.209 33.63 306.289 34.06C306.379 34.48 306.519 34.84 306.709 35.14C306.899 35.44 307.139 35.675 307.429 35.845C307.719 36.005 308.074 36.085 308.494 36.085ZM314.788 37V26.53H316.048V35.905H321.013V37H314.788ZM337.802 31.75V28.435H337.682L335.477 33.82L333.272 28.435H333.152V31.75V37H331.997V26.53H333.617L335.462 31.15H335.552L337.397 26.53H338.957V37H337.802V31.75ZM347.186 37L346.301 34.015H342.626L341.741 37H340.436L343.646 26.53H345.311L348.521 37H347.186ZM344.531 27.865H344.396L342.926 32.92H346.001L344.531 27.865ZM350.225 37V35.995H352.835V27.535H350.225V26.53H356.705V27.535H354.095V35.995H356.705V37H350.225ZM360.404 28.135H360.299V37H359.159V26.53H360.944L364.514 35.305H364.619V26.53H365.759V37H363.974L360.404 28.135ZM368.303 37V26.53H374.753V27.625H369.563V31.15H374.573V32.245H369.563V35.905H374.753V37H368.303ZM381.077 27.625V37H379.817V27.625H376.322V26.53H384.572V27.625H381.077Z" fill="#9F9EA1"/>
<path d="M26.825 64.75V61.435H26.705L24.5 66.82L22.295 61.435H22.175V64.75V70H21.02V59.53H22.64L24.485 64.15H24.575L26.42 59.53H27.98V70H26.825V64.75ZM32.8641 70V65.89L29.2491 59.53H30.6891L32.1891 62.26L33.4641 64.645H33.5241L34.8291 62.26L36.3291 59.53H37.7391L34.1241 65.89V70H32.8641ZM54.1974 70L53.3124 67.015H49.6374L48.7524 70H47.4474L50.6574 59.53H52.3224L55.5324 70H54.1974ZM51.5424 60.865H51.4074L49.9374 65.92H53.0124L51.5424 60.865ZM60.8216 70.18C59.5416 70.18 58.5866 69.715 57.9566 68.785C57.3366 67.855 57.0266 66.515 57.0266 64.765C57.0266 63.015 57.3366 61.675 57.9566 60.745C58.5866 59.815 59.5416 59.35 60.8216 59.35C61.3016 59.35 61.7166 59.415 62.0666 59.545C62.4166 59.675 62.7166 59.85 62.9666 60.07C63.2166 60.29 63.4266 60.54 63.5966 60.82C63.7666 61.09 63.9166 61.365 64.0466 61.645L62.9666 62.14C62.8766 61.91 62.7716 61.695 62.6516 61.495C62.5316 61.285 62.3866 61.105 62.2166 60.955C62.0566 60.795 61.8616 60.67 61.6316 60.58C61.4116 60.49 61.1416 60.445 60.8216 60.445C59.9916 60.445 59.3716 60.76 58.9616 61.39C58.5616 62.02 58.3616 62.86 58.3616 63.91V65.62C58.3616 66.67 58.5616 67.51 58.9616 68.14C59.3716 68.77 59.9916 69.085 60.8216 69.085C61.1416 69.085 61.4116 69.04 61.6316 68.95C61.8616 68.86 62.0566 68.74 62.2166 68.59C62.3866 68.43 62.5316 68.25 62.6516 68.05C62.7716 67.84 62.8766 67.62 62.9666 67.39L64.0466 67.885C63.9166 68.175 63.7666 68.455 63.5966 68.725C63.4266 68.995 63.2166 69.24 62.9666 69.46C62.7166 69.68 62.4166 69.855 62.0666 69.985C61.7166 70.115 61.3016 70.18 60.8216 70.18ZM69.8157 70.18C68.5357 70.18 67.5807 69.715 66.9507 68.785C66.3307 67.855 66.0207 66.515 66.0207 64.765C66.0207 63.015 66.3307 61.675 66.9507 60.745C67.5807 59.815 68.5357 59.35 69.8157 59.35C70.2957 59.35 70.7107 59.415 71.0607 59.545C71.4107 59.675 71.7107 59.85 71.9607 60.07C72.2107 60.29 72.4207 60.54 72.5907 60.82C72.7607 61.09 72.9107 61.365 73.0407 61.645L71.9607 62.14C71.8707 61.91 71.7657 61.695 71.6457 61.495C71.5257 61.285 71.3807 61.105 71.2107 60.955C71.0507 60.795 70.8557 60.67 70.6257 60.58C70.4057 60.49 70.1357 60.445 69.8157 60.445C68.9857 60.445 68.3657 60.76 67.9557 61.39C67.5557 62.02 67.3557 62.86 67.3557 63.91V65.62C67.3557 66.67 67.5557 67.51 67.9557 68.14C68.3657 68.77 68.9857 69.085 69.8157 69.085C70.1357 69.085 70.4057 69.04 70.6257 68.95C70.8557 68.86 71.0507 68.74 71.2107 68.59C71.3807 68.43 71.5257 68.25 71.6457 68.05C71.7657 67.84 71.8707 67.62 71.9607 67.39L73.0407 67.885C72.9107 68.175 72.7607 68.455 72.5907 68.725C72.4207 68.995 72.2107 69.24 71.9607 69.46C71.7107 69.68 71.4107 69.855 71.0607 69.985C70.7107 70.115 70.2957 70.18 69.8157 70.18ZM78.4648 70.18C77.8248 70.18 77.2748 70.06 76.8148 69.82C76.3548 69.57 75.9748 69.215 75.6748 68.755C75.3748 68.295 75.1548 67.73 75.0148 67.06C74.8748 66.39 74.8048 65.625 74.8048 64.765C74.8048 63.915 74.8748 63.155 75.0148 62.485C75.1548 61.805 75.3748 61.235 75.6748 60.775C75.9748 60.315 76.3548 59.965 76.8148 59.725C77.2748 59.475 77.8248 59.35 78.4648 59.35C79.1048 59.35 79.6548 59.475 80.1148 59.725C80.5748 59.965 80.9548 60.315 81.2548 60.775C81.5548 61.235 81.7748 61.805 81.9148 62.485C82.0548 63.155 82.1248 63.915 82.1248 64.765C82.1248 65.625 82.0548 66.39 81.9148 67.06C81.7748 67.73 81.5548 68.295 81.2548 68.755C80.9548 69.215 80.5748 69.57 80.1148 69.82C79.6548 70.06 79.1048 70.18 78.4648 70.18ZM78.4648 69.085C78.8848 69.085 79.2398 69.005 79.5298 68.845C79.8198 68.675 80.0598 68.44 80.2498 68.14C80.4398 67.84 80.5748 67.48 80.6548 67.06C80.7448 66.63 80.7898 66.15 80.7898 65.62V63.91C80.7898 63.39 80.7448 62.915 80.6548 62.485C80.5748 62.055 80.4398 61.69 80.2498 61.39C80.0598 61.09 79.8198 60.86 79.5298 60.7C79.2398 60.53 78.8848 60.445 78.4648 60.445C78.0448 60.445 77.6898 60.53 77.3998 60.7C77.1098 60.86 76.8698 61.09 76.6798 61.39C76.4898 61.69 76.3498 62.055 76.2598 62.485C76.1798 62.915 76.1398 63.39 76.1398 63.91V65.62C76.1398 66.15 76.1798 66.63 76.2598 67.06C76.3498 67.48 76.4898 67.84 76.6798 68.14C76.8698 68.44 77.1098 68.675 77.3998 68.845C77.6898 69.005 78.0448 69.085 78.4648 69.085ZM85.419 59.53V65.815C85.419 66.325 85.434 66.78 85.464 67.18C85.494 67.58 85.574 67.925 85.704 68.215C85.834 68.495 86.034 68.71 86.304 68.86C86.584 69.01 86.969 69.085 87.459 69.085C87.949 69.085 88.329 69.01 88.599 68.86C88.879 68.71 89.084 68.495 89.214 68.215C89.344 67.925 89.424 67.58 89.454 67.18C89.484 66.78 89.499 66.325 89.499 65.815V59.53H90.759V65.515C90.759 66.295 90.719 66.975 90.639 67.555C90.569 68.135 90.414 68.62 90.174 69.01C89.944 69.4 89.609 69.695 89.169 69.895C88.739 70.085 88.169 70.18 87.459 70.18C86.749 70.18 86.174 70.085 85.734 69.895C85.304 69.695 84.969 69.4 84.729 69.01C84.499 68.62 84.344 68.135 84.264 67.555C84.194 66.975 84.159 66.295 84.159 65.515V59.53H85.419ZM94.3981 61.135H94.2931V70H93.1531V59.53H94.9381L98.5081 68.305H98.6131V59.53H99.7531V70H97.9681L94.3981 61.135ZM106.077 60.625V70H104.817V60.625H101.322V59.53H109.572V60.625H106.077Z" fill="#9F9EA1"/>
<path d="M57.83 35L57.038 31.976H53.6L52.826 35H50.09L53.492 22.436H57.308L60.71 35H57.83ZM55.4 25.046H55.256L54.032 29.798H56.624L55.4 25.046ZM64.825 35H62.161V22.436H67.021C67.633 22.436 68.179 22.532 68.659 22.724C69.139 22.904 69.541 23.168 69.865 23.516C70.201 23.864 70.453 24.284 70.621 24.776C70.789 25.268 70.873 25.82 70.873 26.432C70.873 27.32 70.681 28.082 70.297 28.718C69.913 29.354 69.367 29.774 68.659 29.978L71.125 35H68.173L66.067 30.338H64.825V35ZM66.373 28.25C67.009 28.25 67.447 28.13 67.687 27.89C67.939 27.65 68.065 27.254 68.065 26.702V26.162C68.065 25.61 67.939 25.214 67.687 24.974C67.447 24.734 67.009 24.614 66.373 24.614H64.825V28.25H66.373ZM76.6259 29.762L75.5099 31.328V35H72.8099V22.436H75.5099V27.692H75.6539L77.0219 25.604L79.2359 22.436H82.2599L78.4979 27.746L82.4399 35H79.3979L76.6259 29.762ZM86.4289 35V30.554L82.4509 22.436H85.4569L86.7889 25.352L87.7609 27.818H87.9049L88.8769 25.352L90.2089 22.436H93.1069L89.1289 30.554V35H86.4289Z" fill="white"/>
<g filter="url(#filter0_d_1_3)">
<rect x="155" y="240" width="91" height="37" fill="#5F5F5F"/>
</g>
<g filter="url(#filter1_d_1_3)">
<rect x="45" y="240" width="91" height="37" fill="white"/>
</g>
<g filter="url(#filter2_d_1_3)">
<rect x="263" y="240" width="92" height="37" fill="#5F5F5F"/>
</g>
<path d="M78.32 252.53H81.875C82.775 252.53 83.48 252.775 83.99 253.265C84.5 253.755 84.755 254.41 84.755 255.23C84.755 255.86 84.6 256.355 84.29 256.715C83.99 257.075 83.6 257.33 83.12 257.48V257.525C83.71 257.665 84.195 257.93 84.575 258.32C84.955 258.7 85.145 259.255 85.145 259.985C85.145 260.405 85.075 260.8 84.935 261.17C84.795 261.54 84.595 261.86 84.335 262.13C84.085 262.4 83.785 262.615 83.435 262.775C83.095 262.925 82.725 263 82.325 263H78.32V252.53ZM81.95 261.905C82.53 261.905 82.985 261.775 83.315 261.515C83.645 261.255 83.81 260.855 83.81 260.315V259.7C83.81 259.17 83.645 258.775 83.315 258.515C82.985 258.245 82.53 258.11 81.95 258.11H79.58V261.905H81.95ZM81.74 257.075C82.27 257.075 82.685 256.96 82.985 256.73C83.285 256.49 83.435 256.13 83.435 255.65V255.065C83.435 254.585 83.285 254.225 82.985 253.985C82.685 253.745 82.27 253.625 81.74 253.625H79.58V257.075H81.74ZM88.4541 252.53V258.815C88.4541 259.325 88.4691 259.78 88.4991 260.18C88.5291 260.58 88.6091 260.925 88.7391 261.215C88.8691 261.495 89.0691 261.71 89.3391 261.86C89.6191 262.01 90.0041 262.085 90.4941 262.085C90.9841 262.085 91.3641 262.01 91.6341 261.86C91.9141 261.71 92.1191 261.495 92.2491 261.215C92.3791 260.925 92.4591 260.58 92.4891 260.18C92.5191 259.78 92.5341 259.325 92.5341 258.815V252.53H93.7941V258.515C93.7941 259.295 93.7541 259.975 93.6741 260.555C93.6041 261.135 93.4491 261.62 93.2091 262.01C92.9791 262.4 92.6441 262.695 92.2041 262.895C91.7741 263.085 91.2041 263.18 90.4941 263.18C89.7841 263.18 89.2091 263.085 88.7691 262.895C88.3391 262.695 88.0041 262.4 87.7641 262.01C87.5341 261.62 87.3791 261.135 87.2991 260.555C87.2291 259.975 87.1941 259.295 87.1941 258.515V252.53H88.4541ZM98.8583 263V258.89L95.2433 252.53H96.6833L98.1833 255.26L99.4583 257.645H99.5183L100.823 255.26L102.323 252.53H103.733L100.118 258.89V263H98.8583Z" fill="#0A090E"/>
<path d="M189.47 263.18C188.53 263.18 187.76 263.01 187.16 262.67C186.56 262.32 186.065 261.875 185.675 261.335L186.59 260.585C187 261.095 187.43 261.475 187.88 261.725C188.34 261.975 188.885 262.1 189.515 262.1C190.275 262.1 190.855 261.925 191.255 261.575C191.655 261.225 191.855 260.735 191.855 260.105C191.855 259.595 191.71 259.2 191.42 258.92C191.13 258.63 190.625 258.425 189.905 258.305L188.735 258.11C188.225 258.02 187.795 257.885 187.445 257.705C187.105 257.525 186.83 257.31 186.62 257.06C186.41 256.8 186.26 256.52 186.17 256.22C186.08 255.91 186.035 255.59 186.035 255.26C186.035 254.3 186.35 253.575 186.98 253.085C187.61 252.595 188.46 252.35 189.53 252.35C190.37 252.35 191.075 252.49 191.645 252.77C192.225 253.05 192.69 253.445 193.04 253.955L192.155 254.72C191.865 254.34 191.515 254.03 191.105 253.79C190.695 253.55 190.165 253.43 189.515 253.43C188.805 253.43 188.26 253.58 187.88 253.88C187.5 254.18 187.31 254.63 187.31 255.23C187.31 255.7 187.45 256.085 187.73 256.385C188.02 256.675 188.535 256.885 189.275 257.015L190.4 257.21C190.91 257.3 191.34 257.435 191.69 257.615C192.04 257.795 192.32 258.01 192.53 258.26C192.75 258.51 192.905 258.79 192.995 259.1C193.085 259.41 193.13 259.735 193.13 260.075C193.13 261.045 192.81 261.805 192.17 262.355C191.54 262.905 190.64 263.18 189.47 263.18ZM195.344 263V252.53H201.794V253.625H196.604V257.15H201.614V258.245H196.604V261.905H201.794V263H195.344ZM204.788 263V252.53H206.048V261.905H211.013V263H204.788ZM213.782 263V252.53H215.042V261.905H220.007V263H213.782Z" fill="white"/>
<path d="M291.13 253.625V263H289.87V253.625H286.375V252.53H294.625V253.625H291.13ZM297.604 263H296.344V252.53H300.154C301.124 252.53 301.864 252.795 302.374 253.325C302.884 253.855 303.139 254.595 303.139 255.545C303.139 256.395 302.919 257.075 302.479 257.585C302.039 258.095 301.399 258.39 300.559 258.47L303.229 263H301.819L299.269 258.53H297.604V263ZM300.124 257.465C300.654 257.465 301.064 257.335 301.354 257.075C301.654 256.805 301.804 256.425 301.804 255.935V255.155C301.804 254.665 301.654 254.29 301.354 254.03C301.064 253.76 300.654 253.625 300.124 253.625H297.604V257.465H300.124ZM311.203 263L310.318 260.015H306.643L305.758 263H304.453L307.663 252.53H309.328L312.538 263H311.203ZM308.548 253.865H308.413L306.943 258.92H310.018L308.548 253.865ZM314.407 252.53H317.332C318.612 252.53 319.567 252.97 320.197 253.85C320.827 254.73 321.142 256.035 321.142 257.765C321.142 259.495 320.827 260.8 320.197 261.68C319.567 262.56 318.612 263 317.332 263H314.407V252.53ZM317.272 261.905C318.112 261.905 318.742 261.615 319.162 261.035C319.592 260.455 319.807 259.635 319.807 258.575V256.955C319.807 255.895 319.592 255.075 319.162 254.495C318.742 253.915 318.112 253.625 317.272 253.625H315.667V261.905H317.272ZM323.327 263V252.53H329.777V253.625H324.587V257.15H329.597V258.245H324.587V261.905H329.777V263H323.327Z" fill="white"/>
<path d="M105.095 558.53H108.35C109.71 558.53 110.72 558.98 111.38 559.88C112.05 560.78 112.385 562.075 112.385 563.765C112.385 565.465 112.05 566.765 111.38 567.665C110.72 568.555 109.71 569 108.35 569H105.095V558.53ZM108.215 567.425C108.935 567.425 109.465 567.19 109.805 566.72C110.155 566.25 110.33 565.565 110.33 564.665V562.85C110.33 561.96 110.155 561.28 109.805 560.81C109.465 560.34 108.935 560.105 108.215 560.105H107.03V567.425H108.215ZM114.239 569V558.53H120.854V560.15H116.204V562.88H120.689V564.5H116.204V567.38H120.854V569H114.239ZM123.188 569V558.53H127.163C128.183 558.53 128.963 558.82 129.503 559.4C130.043 559.98 130.313 560.77 130.313 561.77C130.313 562.77 130.043 563.56 129.503 564.14C128.963 564.72 128.183 565.01 127.163 565.01H125.153V569H123.188ZM125.153 563.405H126.758C127.288 563.405 127.668 563.3 127.898 563.09C128.128 562.87 128.243 562.525 128.243 562.055V561.485C128.243 561.015 128.128 560.675 127.898 560.465C127.668 560.245 127.288 560.135 126.758 560.135H125.153V563.405ZM135.482 569.18C134.802 569.18 134.212 569.06 133.712 568.82C133.212 568.57 132.797 568.215 132.467 567.755C132.147 567.295 131.907 566.73 131.747 566.06C131.597 565.39 131.522 564.625 131.522 563.765C131.522 562.915 131.597 562.155 131.747 561.485C131.907 560.805 132.147 560.235 132.467 559.775C132.797 559.315 133.212 558.965 133.712 558.725C134.212 558.475 134.802 558.35 135.482 558.35C136.842 558.35 137.842 558.825 138.482 559.775C139.122 560.725 139.442 562.055 139.442 563.765C139.442 565.475 139.122 566.805 138.482 567.755C137.842 568.705 136.842 569.18 135.482 569.18ZM135.482 567.575C135.832 567.575 136.127 567.51 136.367 567.38C136.607 567.24 136.797 567.045 136.937 566.795C137.087 566.545 137.192 566.24 137.252 565.88C137.322 565.51 137.357 565.1 137.357 564.65V562.865C137.357 561.965 137.217 561.255 136.937 560.735C136.667 560.215 136.182 559.955 135.482 559.955C134.782 559.955 134.292 560.215 134.012 560.735C133.742 561.255 133.607 561.965 133.607 562.865V564.665C133.607 565.565 133.742 566.275 134.012 566.795C134.292 567.315 134.782 567.575 135.482 567.575ZM144.357 569.18C143.457 569.18 142.687 569.025 142.047 568.715C141.417 568.405 140.902 567.995 140.502 567.485L141.687 566.255C142.077 566.705 142.497 567.04 142.947 567.26C143.407 567.47 143.897 567.575 144.417 567.575C145.017 567.575 145.477 567.44 145.797 567.17C146.117 566.9 146.277 566.51 146.277 566C146.277 565.58 146.157 565.265 145.917 565.055C145.677 564.835 145.272 564.68 144.702 564.59L143.592 564.41C142.622 564.24 141.932 563.89 141.522 563.36C141.112 562.82 140.907 562.185 140.907 561.455C140.907 560.455 141.232 559.69 141.882 559.16C142.532 558.62 143.432 558.35 144.582 558.35C145.402 558.35 146.107 558.48 146.697 558.74C147.297 559 147.777 559.355 148.137 559.805L146.982 561.035C146.702 560.705 146.367 560.445 145.977 560.255C145.587 560.055 145.127 559.955 144.597 559.955C143.457 559.955 142.887 560.425 142.887 561.365C142.887 561.765 143.007 562.07 143.247 562.28C143.487 562.49 143.897 562.645 144.477 562.745L145.572 562.94C146.482 563.11 147.157 563.445 147.597 563.945C148.037 564.445 148.257 565.085 148.257 565.865C148.257 566.355 148.172 566.805 148.002 567.215C147.832 567.615 147.582 567.965 147.252 568.265C146.922 568.555 146.512 568.78 146.022 568.94C145.542 569.1 144.987 569.18 144.357 569.18ZM150.141 569V567.53H152.496V560H150.141V558.53H156.801V560H154.446V567.53H156.801V569H150.141ZM163.44 560.15V569H161.49V560.15H158.34V558.53H166.59V560.15H163.44ZM182.523 564.155L182.613 561.125H182.478L180.453 566.51L178.428 561.125H178.293L178.383 564.155V569H176.673V558.53H179.013L180.468 562.385H180.573L182.043 558.53H184.233V569H182.523V564.155ZM189.447 569.18C188.767 569.18 188.177 569.06 187.677 568.82C187.177 568.57 186.762 568.215 186.432 567.755C186.112 567.295 185.872 566.73 185.712 566.06C185.562 565.39 185.487 564.625 185.487 563.765C185.487 562.915 185.562 562.155 185.712 561.485C185.872 560.805 186.112 560.235 186.432 559.775C186.762 559.315 187.177 558.965 187.677 558.725C188.177 558.475 188.767 558.35 189.447 558.35C190.807 558.35 191.807 558.825 192.447 559.775C193.087 560.725 193.407 562.055 193.407 563.765C193.407 565.475 193.087 566.805 192.447 567.755C191.807 568.705 190.807 569.18 189.447 569.18ZM189.447 567.575C189.797 567.575 190.092 567.51 190.332 567.38C190.572 567.24 190.762 567.045 190.902 566.795C191.052 566.545 191.157 566.24 191.217 565.88C191.287 565.51 191.322 565.1 191.322 564.65V562.865C191.322 561.965 191.182 561.255 190.902 560.735C190.632 560.215 190.147 559.955 189.447 559.955C188.747 559.955 188.257 560.215 187.977 560.735C187.707 561.255 187.572 561.965 187.572 562.865V564.665C187.572 565.565 187.707 566.275 187.977 566.795C188.257 567.315 188.747 567.575 189.447 567.575ZM197.106 569H195.141V558.53H199.116C200.136 558.53 200.916 558.82 201.456 559.4C201.996 559.98 202.266 560.77 202.266 561.77C202.266 562.54 202.086 563.19 201.726 563.72C201.376 564.24 200.871 564.57 200.211 564.71L202.446 569H200.286L198.291 564.935H197.106V569ZM198.711 563.405C199.241 563.405 199.621 563.3 199.851 563.09C200.081 562.87 200.196 562.525 200.196 562.055V561.485C200.196 561.015 200.081 560.675 199.851 560.465C199.621 560.245 199.241 560.135 198.711 560.135H197.106V563.405H198.711ZM204.181 569V558.53H210.796V560.15H206.146V562.88H210.631V564.5H206.146V567.38H210.796V569H204.181ZM225.694 569.18C224.324 569.18 223.309 568.71 222.649 567.77C221.999 566.83 221.674 565.495 221.674 563.765C221.674 562.045 221.999 560.715 222.649 559.775C223.309 558.825 224.324 558.35 225.694 558.35C226.214 558.35 226.669 558.42 227.059 558.56C227.459 558.7 227.804 558.895 228.094 559.145C228.384 559.385 228.624 559.68 228.814 560.03C229.004 560.37 229.154 560.745 229.264 561.155L227.464 561.665C227.394 561.425 227.314 561.2 227.224 560.99C227.134 560.78 227.019 560.6 226.879 560.45C226.749 560.29 226.584 560.17 226.384 560.09C226.184 560 225.944 559.955 225.664 559.955C224.984 559.955 224.494 560.215 224.194 560.735C223.904 561.255 223.759 561.965 223.759 562.865V564.665C223.759 565.565 223.904 566.275 224.194 566.795C224.494 567.315 224.984 567.575 225.664 567.575C225.944 567.575 226.184 567.535 226.384 567.455C226.584 567.365 226.749 567.245 226.879 567.095C227.019 566.935 227.134 566.75 227.224 566.54C227.314 566.33 227.394 566.105 227.464 565.865L229.264 566.375C229.154 566.785 229.004 567.165 228.814 567.515C228.624 567.855 228.384 568.15 228.094 568.4C227.804 568.64 227.459 568.83 227.059 568.97C226.669 569.11 226.214 569.18 225.694 569.18ZM233.083 569H231.118V558.53H235.093C236.113 558.53 236.893 558.82 237.433 559.4C237.973 559.98 238.243 560.77 238.243 561.77C238.243 562.54 238.063 563.19 237.703 563.72C237.353 564.24 236.848 564.57 236.188 564.71L238.423 569H236.263L234.268 564.935H233.083V569ZM234.688 563.405C235.218 563.405 235.598 563.3 235.828 563.09C236.058 562.87 236.173 562.525 236.173 562.055V561.485C236.173 561.015 236.058 560.675 235.828 560.465C235.598 560.245 235.218 560.135 234.688 560.135H233.083V563.405H234.688ZM242.437 569V565.175L239.032 558.53H241.222L242.437 561.05L243.382 563.195H243.487L244.447 561.05L245.677 558.53H247.792L244.387 565.175V569H242.437ZM249.106 569V558.53H253.081C254.101 558.53 254.881 558.82 255.421 559.4C255.961 559.98 256.231 560.77 256.231 561.77C256.231 562.77 255.961 563.56 255.421 564.14C254.881 564.72 254.101 565.01 253.081 565.01H251.071V569H249.106ZM251.071 563.405H252.676C253.206 563.405 253.586 563.3 253.816 563.09C254.046 562.87 254.161 562.525 254.161 562.055V561.485C254.161 561.015 254.046 560.675 253.816 560.465C253.586 560.245 253.206 560.135 252.676 560.135H251.071V563.405ZM262.375 560.15V569H260.425V560.15H257.275V558.53H265.525V560.15H262.375ZM270.395 569.18C269.715 569.18 269.125 569.06 268.625 568.82C268.125 568.57 267.71 568.215 267.38 567.755C267.06 567.295 266.82 566.73 266.66 566.06C266.51 565.39 266.435 564.625 266.435 563.765C266.435 562.915 266.51 562.155 266.66 561.485C266.82 560.805 267.06 560.235 267.38 559.775C267.71 559.315 268.125 558.965 268.625 558.725C269.125 558.475 269.715 558.35 270.395 558.35C271.755 558.35 272.755 558.825 273.395 559.775C274.035 560.725 274.355 562.055 274.355 563.765C274.355 565.475 274.035 566.805 273.395 567.755C272.755 568.705 271.755 569.18 270.395 569.18ZM270.395 567.575C270.745 567.575 271.04 567.51 271.28 567.38C271.52 567.24 271.71 567.045 271.85 566.795C272 566.545 272.105 566.24 272.165 565.88C272.235 565.51 272.27 565.1 272.27 564.65V562.865C272.27 561.965 272.13 561.255 271.85 560.735C271.58 560.215 271.095 559.955 270.395 559.955C269.695 559.955 269.205 560.215 268.925 560.735C268.655 561.255 268.52 561.965 268.52 562.865V564.665C268.52 565.565 268.655 566.275 268.925 566.795C269.205 567.315 269.695 567.575 270.395 567.575ZM288.763 567.76V563.92H285.123V561.86H288.763V558.02H291.003V561.86H294.643V563.92H291.003V567.76H288.763Z" fill="white"/>
<rect x="46" y="311" width="314" height="1" fill="white"/>
<rect x="46.25" y="387.25" width="317.5" height="32.5" fill="#0A090E" stroke="#565656" stroke-width="0.5"/>
<rect x="46" y="387" width="76" height="33" fill="#CEFFC6"/>
<path d="M61.47 409.18C60.53 409.18 59.76 409.01 59.16 408.67C58.56 408.32 58.065 407.875 57.675 407.335L58.59 406.585C59 407.095 59.43 407.475 59.88 407.725C60.34 407.975 60.885 408.1 61.515 408.1C62.275 408.1 62.855 407.925 63.255 407.575C63.655 407.225 63.855 406.735 63.855 406.105C63.855 405.595 63.71 405.2 63.42 404.92C63.13 404.63 62.625 404.425 61.905 404.305L60.735 404.11C60.225 404.02 59.795 403.885 59.445 403.705C59.105 403.525 58.83 403.31 58.62 403.06C58.41 402.8 58.26 402.52 58.17 402.22C58.08 401.91 58.035 401.59 58.035 401.26C58.035 400.3 58.35 399.575 58.98 399.085C59.61 398.595 60.46 398.35 61.53 398.35C62.37 398.35 63.075 398.49 63.645 398.77C64.225 399.05 64.69 399.445 65.04 399.955L64.155 400.72C63.865 400.34 63.515 400.03 63.105 399.79C62.695 399.55 62.165 399.43 61.515 399.43C60.805 399.43 60.26 399.58 59.88 399.88C59.5 400.18 59.31 400.63 59.31 401.23C59.31 401.7 59.45 402.085 59.73 402.385C60.02 402.675 60.535 402.885 61.275 403.015L62.4 403.21C62.91 403.3 63.34 403.435 63.69 403.615C64.04 403.795 64.32 404.01 64.53 404.26C64.75 404.51 64.905 404.79 64.995 405.1C65.085 405.41 65.13 405.735 65.13 406.075C65.13 407.045 64.81 407.805 64.17 408.355C63.54 408.905 62.64 409.18 61.47 409.18ZM70.4941 409.18C69.9541 409.18 69.4641 409.085 69.0241 408.895C68.5941 408.705 68.2241 408.435 67.9141 408.085C67.6141 407.725 67.3841 407.3 67.2241 406.81C67.0641 406.31 66.9841 405.75 66.9841 405.13C66.9841 404.52 67.0641 403.965 67.2241 403.465C67.3841 402.965 67.6141 402.54 67.9141 402.19C68.2241 401.83 68.5941 401.555 69.0241 401.365C69.4641 401.175 69.9541 401.08 70.4941 401.08C71.0341 401.08 71.5191 401.175 71.9491 401.365C72.3891 401.555 72.7591 401.83 73.0591 402.19C73.3691 402.54 73.6041 402.965 73.7641 403.465C73.9241 403.965 74.0041 404.52 74.0041 405.13C74.0041 405.75 73.9241 406.31 73.7641 406.81C73.6041 407.3 73.3691 407.725 73.0591 408.085C72.7591 408.435 72.3891 408.705 71.9491 408.895C71.5191 409.085 71.0341 409.18 70.4941 409.18ZM70.4941 408.145C71.1641 408.145 71.7041 407.945 72.1141 407.545C72.5241 407.145 72.7291 406.525 72.7291 405.685V404.575C72.7291 403.735 72.5241 403.115 72.1141 402.715C71.7041 402.315 71.1641 402.115 70.4941 402.115C69.8241 402.115 69.2841 402.315 68.8741 402.715C68.4641 403.115 68.2591 403.735 68.2591 404.575V405.685C68.2591 406.525 68.4641 407.145 68.8741 407.545C69.2841 407.945 69.8241 408.145 70.4941 408.145ZM76.1883 407.98H78.8883V398.92H76.1883V397.9H80.0883V407.98H82.7883V409H76.1883V407.98ZM91.4074 409C90.9374 409 90.6024 408.88 90.4024 408.64C90.2024 408.4 90.0774 408.1 90.0274 407.74H89.9524C89.7824 408.19 89.5074 408.545 89.1274 408.805C88.7574 409.055 88.2574 409.18 87.6274 409.18C86.8174 409.18 86.1724 408.97 85.6924 408.55C85.2124 408.13 84.9724 407.555 84.9724 406.825C84.9724 406.105 85.2324 405.55 85.7524 405.16C86.2824 404.77 87.1324 404.575 88.3024 404.575H89.9524V403.81C89.9524 403.24 89.7924 402.815 89.4724 402.535C89.1524 402.245 88.6974 402.1 88.1074 402.1C87.5874 402.1 87.1624 402.205 86.8324 402.415C86.5024 402.615 86.2374 402.89 86.0374 403.24L85.2274 402.64C85.3274 402.44 85.4624 402.245 85.6324 402.055C85.8024 401.865 86.0124 401.7 86.2624 401.56C86.5124 401.41 86.7974 401.295 87.1174 401.215C87.4374 401.125 87.7924 401.08 88.1824 401.08C89.0924 401.08 89.8124 401.31 90.3424 401.77C90.8824 402.23 91.1524 402.87 91.1524 403.69V407.95H92.2324V409H91.4074ZM87.8374 408.175C88.1474 408.175 88.4274 408.14 88.6774 408.07C88.9374 407.99 89.1624 407.89 89.3524 407.77C89.5424 407.64 89.6874 407.49 89.7874 407.32C89.8974 407.14 89.9524 406.95 89.9524 406.75V405.475H88.3024C87.5824 405.475 87.0574 405.575 86.7274 405.775C86.3974 405.975 86.2324 406.265 86.2324 406.645V406.96C86.2324 407.36 86.3724 407.665 86.6524 407.875C86.9424 408.075 87.3374 408.175 87.8374 408.175ZM94.4466 409V401.26H95.6466V402.52H95.7066C95.7866 402.33 95.8866 402.15 96.0066 401.98C96.1266 401.8 96.2716 401.645 96.4416 401.515C96.6216 401.385 96.8316 401.28 97.0716 401.2C97.3116 401.12 97.5916 401.08 97.9116 401.08C98.7216 401.08 99.3716 401.34 99.8616 401.86C100.352 402.37 100.597 403.095 100.597 404.035V409H99.3966V404.245C99.3966 403.535 99.2416 403.01 98.9316 402.67C98.6216 402.32 98.1666 402.145 97.5666 402.145C97.3266 402.145 97.0916 402.175 96.8616 402.235C96.6316 402.295 96.4266 402.385 96.2466 402.505C96.0666 402.625 95.9216 402.78 95.8116 402.97C95.7016 403.16 95.6466 403.38 95.6466 403.63V409H94.4466ZM109.396 409C108.926 409 108.591 408.88 108.391 408.64C108.191 408.4 108.066 408.1 108.016 407.74H107.941C107.771 408.19 107.496 408.545 107.116 408.805C106.746 409.055 106.246 409.18 105.616 409.18C104.806 409.18 104.161 408.97 103.681 408.55C103.201 408.13 102.961 407.555 102.961 406.825C102.961 406.105 103.221 405.55 103.741 405.16C104.271 404.77 105.121 404.575 106.291 404.575H107.941V403.81C107.941 403.24 107.781 402.815 107.461 402.535C107.141 402.245 106.686 402.1 106.096 402.1C105.576 402.1 105.151 402.205 104.821 402.415C104.491 402.615 104.226 402.89 104.026 403.24L103.216 402.64C103.316 402.44 103.451 402.245 103.621 402.055C103.791 401.865 104.001 401.7 104.251 401.56C104.501 401.41 104.786 401.295 105.106 401.215C105.426 401.125 105.781 401.08 106.171 401.08C107.081 401.08 107.801 401.31 108.331 401.77C108.871 402.23 109.141 402.87 109.141 403.69V407.95H110.221V409H109.396ZM105.826 408.175C106.136 408.175 106.416 408.14 106.666 408.07C106.926 407.99 107.151 407.89 107.341 407.77C107.531 407.64 107.676 407.49 107.776 407.32C107.886 407.14 107.941 406.95 107.941 406.75V405.475H106.291C105.571 405.475 105.046 405.575 104.716 405.775C104.386 405.975 104.221 406.265 104.221 406.645V406.96C104.221 407.36 104.361 407.665 104.641 407.875C104.931 408.075 105.326 408.175 105.826 408.175Z" fill="#0A090E"/>
<path d="M259.668 408.132V405.206H256.868V404.254H259.668V401.328H260.732V404.254H263.532V405.206H260.732V408.132H259.668ZM268.175 403.372C268.856 403.372 269.365 403.223 269.701 402.924C270.046 402.616 270.219 402.224 270.219 401.748V401.65C270.219 401.127 270.051 400.735 269.715 400.474C269.388 400.213 268.959 400.082 268.427 400.082C267.904 400.082 267.479 400.199 267.153 400.432C266.835 400.656 266.574 400.955 266.369 401.328L265.487 400.656C265.608 400.46 265.757 400.269 265.935 400.082C266.112 399.886 266.317 399.713 266.551 399.564C266.793 399.415 267.069 399.293 267.377 399.2C267.694 399.107 268.053 399.06 268.455 399.06C268.875 399.06 269.267 399.116 269.631 399.228C269.995 399.331 270.312 399.489 270.583 399.704C270.853 399.909 271.063 400.166 271.213 400.474C271.371 400.782 271.451 401.132 271.451 401.524C271.451 401.841 271.399 402.126 271.297 402.378C271.203 402.63 271.068 402.849 270.891 403.036C270.723 403.223 270.522 403.381 270.289 403.512C270.055 403.643 269.808 403.741 269.547 403.806V403.862C269.817 403.918 270.079 404.011 270.331 404.142C270.583 404.263 270.807 404.427 271.003 404.632C271.199 404.828 271.353 405.071 271.465 405.36C271.586 405.64 271.647 405.962 271.647 406.326C271.647 406.746 271.563 407.133 271.395 407.488C271.236 407.833 271.007 408.132 270.709 408.384C270.419 408.627 270.065 408.818 269.645 408.958C269.234 409.098 268.777 409.168 268.273 409.168C267.843 409.168 267.461 409.121 267.125 409.028C266.798 408.935 266.504 408.809 266.243 408.65C265.991 408.491 265.767 408.314 265.571 408.118C265.384 407.922 265.216 407.717 265.067 407.502L265.949 406.83C266.079 407.026 266.215 407.203 266.355 407.362C266.495 407.521 266.653 407.661 266.831 407.782C267.017 407.894 267.227 407.983 267.461 408.048C267.694 408.113 267.965 408.146 268.273 408.146C268.963 408.146 269.491 407.987 269.855 407.67C270.228 407.353 270.415 406.9 270.415 406.312V406.2C270.415 405.621 270.233 405.173 269.869 404.856C269.514 404.539 268.977 404.38 268.259 404.38H267.097V403.372H268.175ZM276.989 409.126C276.606 409.126 276.336 409.047 276.177 408.888C276.028 408.729 275.953 408.529 275.953 408.286V408.034C275.953 407.791 276.028 407.591 276.177 407.432C276.336 407.273 276.606 407.194 276.989 407.194C277.372 407.194 277.638 407.273 277.787 407.432C277.946 407.591 278.025 407.791 278.025 408.034V408.286C278.025 408.529 277.946 408.729 277.787 408.888C277.638 409.047 277.372 409.126 276.989 409.126ZM286.476 409V407.082H281.66V406.046L285.888 399.228H287.596V406.116H289.052V407.082H287.596V409H286.476ZM282.71 406.116H286.476V400.138H286.42L282.71 406.116ZM297.096 409H290.572V407.796L293.834 404.856C294.31 404.427 294.702 403.988 295.01 403.54C295.318 403.083 295.472 402.602 295.472 402.098V401.93C295.472 401.342 295.318 400.889 295.01 400.572C294.702 400.245 294.245 400.082 293.638 400.082C293.041 400.082 292.579 400.236 292.252 400.544C291.935 400.843 291.697 401.244 291.538 401.748L290.488 401.356C290.581 401.067 290.707 400.787 290.866 400.516C291.034 400.236 291.244 399.989 291.496 399.774C291.748 399.559 292.051 399.387 292.406 399.256C292.77 399.125 293.19 399.06 293.666 399.06C294.151 399.06 294.581 399.13 294.954 399.27C295.337 399.41 295.654 399.606 295.906 399.858C296.167 400.11 296.363 400.409 296.494 400.754C296.634 401.099 296.704 401.477 296.704 401.888C296.704 402.261 296.648 402.611 296.536 402.938C296.433 403.265 296.284 403.577 296.088 403.876C295.901 404.175 295.673 404.469 295.402 404.758C295.141 405.038 294.847 405.318 294.52 405.598L291.79 407.978H297.096V409ZM302.173 409.168C301.575 409.168 301.062 409.056 300.633 408.832C300.203 408.599 299.849 408.267 299.569 407.838C299.289 407.409 299.083 406.881 298.953 406.256C298.822 405.631 298.757 404.917 298.757 404.114C298.757 403.321 298.822 402.611 298.953 401.986C299.083 401.351 299.289 400.819 299.569 400.39C299.849 399.961 300.203 399.634 300.633 399.41C301.062 399.177 301.575 399.06 302.173 399.06C302.77 399.06 303.283 399.177 303.713 399.41C304.142 399.634 304.497 399.961 304.777 400.39C305.057 400.819 305.262 401.351 305.393 401.986C305.523 402.611 305.589 403.321 305.589 404.114C305.589 404.917 305.523 405.631 305.393 406.256C305.262 406.881 305.057 407.409 304.777 407.838C304.497 408.267 304.142 408.599 303.713 408.832C303.283 409.056 302.77 409.168 302.173 409.168ZM302.173 408.146C302.565 408.146 302.901 408.071 303.181 407.922C303.461 407.763 303.685 407.544 303.853 407.264C304.03 406.984 304.161 406.648 304.245 406.256C304.329 405.855 304.371 405.407 304.371 404.912V403.316C304.371 402.831 304.329 402.387 304.245 401.986C304.161 401.585 304.03 401.244 303.853 400.964C303.685 400.684 303.461 400.469 303.181 400.32C302.901 400.161 302.565 400.082 302.173 400.082C301.781 400.082 301.445 400.161 301.165 400.32C300.885 400.469 300.656 400.684 300.479 400.964C300.311 401.244 300.185 401.585 300.101 401.986C300.017 402.387 299.975 402.831 299.975 403.316V404.912C299.975 405.407 300.017 405.855 300.101 406.256C300.185 406.648 300.311 406.984 300.479 407.264C300.656 407.544 300.885 407.763 301.165 407.922C301.445 408.071 301.781 408.146 302.173 408.146ZM302.173 404.94C301.846 404.94 301.617 404.875 301.487 404.744C301.365 404.613 301.305 404.455 301.305 404.268V403.96C301.305 403.773 301.365 403.615 301.487 403.484C301.617 403.353 301.846 403.288 302.173 403.288C302.499 403.288 302.723 403.353 302.845 403.484C302.975 403.615 303.041 403.773 303.041 403.96V404.268C303.041 404.455 302.975 404.613 302.845 404.744C302.723 404.875 302.499 404.94 302.173 404.94ZM313.381 400.25H309.013L308.733 403.988H308.831C309.074 403.661 309.345 403.405 309.643 403.218C309.942 403.022 310.353 402.924 310.875 402.924C311.305 402.924 311.697 402.994 312.051 403.134C312.415 403.265 312.728 403.461 312.989 403.722C313.251 403.983 313.456 404.301 313.605 404.674C313.755 405.038 313.829 405.458 313.829 405.934C313.829 406.41 313.755 406.849 313.605 407.25C313.456 407.642 313.237 407.983 312.947 408.272C312.658 408.552 312.308 408.771 311.897 408.93C311.487 409.089 311.02 409.168 310.497 409.168C310.087 409.168 309.718 409.121 309.391 409.028C309.074 408.935 308.789 408.809 308.537 408.65C308.295 408.491 308.08 408.314 307.893 408.118C307.707 407.922 307.539 407.717 307.389 407.502L308.271 406.83C308.402 407.026 308.533 407.203 308.663 407.362C308.803 407.521 308.962 407.661 309.139 407.782C309.317 407.894 309.517 407.983 309.741 408.048C309.965 408.113 310.227 408.146 310.525 408.146C311.197 408.146 311.711 407.964 312.065 407.6C312.429 407.236 312.611 406.732 312.611 406.088V405.976C312.611 405.332 312.429 404.828 312.065 404.464C311.701 404.1 311.179 403.918 310.497 403.918C310.031 403.918 309.667 403.997 309.405 404.156C309.153 404.315 308.92 404.511 308.705 404.744L307.711 404.604L308.061 399.228H313.381V400.25ZM322.266 402.812C322.266 403.54 322.154 404.226 321.93 404.87C321.715 405.505 321.435 406.088 321.09 406.62C320.744 407.143 320.362 407.609 319.942 408.02C319.531 408.421 319.125 408.748 318.724 409H317.212C317.744 408.617 318.215 408.244 318.626 407.88C319.046 407.516 319.414 407.138 319.732 406.746C320.049 406.345 320.315 405.92 320.53 405.472C320.744 405.015 320.922 404.501 321.062 403.932L320.992 403.904C320.749 404.305 320.436 404.641 320.054 404.912C319.68 405.173 319.19 405.304 318.584 405.304C318.154 405.304 317.758 405.234 317.394 405.094C317.039 404.954 316.731 404.753 316.47 404.492C316.218 404.231 316.017 403.918 315.868 403.554C315.728 403.181 315.658 402.761 315.658 402.294C315.658 401.818 315.732 401.384 315.882 400.992C316.04 400.591 316.264 400.25 316.554 399.97C316.843 399.681 317.188 399.457 317.59 399.298C318 399.139 318.453 399.06 318.948 399.06C319.461 399.06 319.923 399.149 320.334 399.326C320.744 399.494 321.09 399.741 321.37 400.068C321.659 400.385 321.878 400.777 322.028 401.244C322.186 401.711 322.266 402.233 322.266 402.812ZM318.962 404.338C319.634 404.338 320.152 404.156 320.516 403.792C320.889 403.428 321.076 402.915 321.076 402.252V402.14C321.076 401.477 320.889 400.964 320.516 400.6C320.152 400.236 319.634 400.054 318.962 400.054C318.29 400.054 317.767 400.236 317.394 400.6C317.03 400.964 316.848 401.477 316.848 402.14V402.252C316.848 402.915 317.03 403.428 317.394 403.792C317.767 404.156 318.29 404.338 318.962 404.338ZM335.723 409.168C334.845 409.168 334.127 409.009 333.567 408.692C333.007 408.365 332.545 407.95 332.181 407.446L333.035 406.746C333.417 407.222 333.819 407.577 334.239 407.81C334.668 408.043 335.177 408.16 335.765 408.16C336.474 408.16 337.015 407.997 337.389 407.67C337.762 407.343 337.949 406.886 337.949 406.298C337.949 405.822 337.813 405.453 337.543 405.192C337.272 404.921 336.801 404.73 336.129 404.618L335.037 404.436C334.561 404.352 334.159 404.226 333.833 404.058C333.515 403.89 333.259 403.689 333.063 403.456C332.867 403.213 332.727 402.952 332.643 402.672C332.559 402.383 332.517 402.084 332.517 401.776C332.517 400.88 332.811 400.203 333.399 399.746C333.987 399.289 334.78 399.06 335.779 399.06C336.563 399.06 337.221 399.191 337.753 399.452C338.294 399.713 338.728 400.082 339.055 400.558L338.229 401.272C337.958 400.917 337.631 400.628 337.249 400.404C336.866 400.18 336.371 400.068 335.765 400.068C335.102 400.068 334.593 400.208 334.239 400.488C333.884 400.768 333.707 401.188 333.707 401.748C333.707 402.187 333.837 402.546 334.099 402.826C334.369 403.097 334.85 403.293 335.541 403.414L336.591 403.596C337.067 403.68 337.468 403.806 337.795 403.974C338.121 404.142 338.383 404.343 338.579 404.576C338.784 404.809 338.929 405.071 339.013 405.36C339.097 405.649 339.139 405.953 339.139 406.27C339.139 407.175 338.84 407.885 338.243 408.398C337.655 408.911 336.815 409.168 335.723 409.168ZM344.145 409.168C343.548 409.168 343.035 409.056 342.605 408.832C342.176 408.599 341.821 408.267 341.541 407.838C341.261 407.409 341.056 406.881 340.925 406.256C340.795 405.631 340.729 404.917 340.729 404.114C340.729 403.321 340.795 402.611 340.925 401.986C341.056 401.351 341.261 400.819 341.541 400.39C341.821 399.961 342.176 399.634 342.605 399.41C343.035 399.177 343.548 399.06 344.145 399.06C344.743 399.06 345.256 399.177 345.685 399.41C346.115 399.634 346.469 399.961 346.749 400.39C347.029 400.819 347.235 401.351 347.365 401.986C347.496 402.611 347.561 403.321 347.561 404.114C347.561 404.917 347.496 405.631 347.365 406.256C347.235 406.881 347.029 407.409 346.749 407.838C346.469 408.267 346.115 408.599 345.685 408.832C345.256 409.056 344.743 409.168 344.145 409.168ZM344.145 408.146C344.537 408.146 344.869 408.071 345.139 407.922C345.41 407.763 345.634 407.544 345.811 407.264C345.989 406.984 346.115 406.648 346.189 406.256C346.273 405.855 346.315 405.407 346.315 404.912V403.316C346.315 402.831 346.273 402.387 346.189 401.986C346.115 401.585 345.989 401.244 345.811 400.964C345.634 400.684 345.41 400.469 345.139 400.32C344.869 400.161 344.537 400.082 344.145 400.082C343.753 400.082 343.422 400.161 343.151 400.32C342.881 400.469 342.657 400.684 342.479 400.964C342.302 401.244 342.171 401.585 342.087 401.986C342.013 402.387 341.975 402.831 341.975 403.316V404.912C341.975 405.407 342.013 405.855 342.087 406.256C342.171 406.648 342.302 406.984 342.479 407.264C342.657 407.544 342.881 407.763 343.151 407.922C343.422 408.071 343.753 408.146 344.145 408.146ZM350.02 409V399.228H351.196V407.978H355.83V409H350.02Z" fill="#9F9EA1"/>
<rect x="46.25" y="434.25" width="317.5" height="32.5" fill="#0A090E" stroke="#565656" stroke-width="0.5"/>
<rect x="46" y="434" width="76" height="33" fill="#FFC9C6"/>
<path d="M61.47 456.18C60.53 456.18 59.76 456.01 59.16 455.67C58.56 455.32 58.065 454.875 57.675 454.335L58.59 453.585C59 454.095 59.43 454.475 59.88 454.725C60.34 454.975 60.885 455.1 61.515 455.1C62.275 455.1 62.855 454.925 63.255 454.575C63.655 454.225 63.855 453.735 63.855 453.105C63.855 452.595 63.71 452.2 63.42 451.92C63.13 451.63 62.625 451.425 61.905 451.305L60.735 451.11C60.225 451.02 59.795 450.885 59.445 450.705C59.105 450.525 58.83 450.31 58.62 450.06C58.41 449.8 58.26 449.52 58.17 449.22C58.08 448.91 58.035 448.59 58.035 448.26C58.035 447.3 58.35 446.575 58.98 446.085C59.61 445.595 60.46 445.35 61.53 445.35C62.37 445.35 63.075 445.49 63.645 445.77C64.225 446.05 64.69 446.445 65.04 446.955L64.155 447.72C63.865 447.34 63.515 447.03 63.105 446.79C62.695 446.55 62.165 446.43 61.515 446.43C60.805 446.43 60.26 446.58 59.88 446.88C59.5 447.18 59.31 447.63 59.31 448.23C59.31 448.7 59.45 449.085 59.73 449.385C60.02 449.675 60.535 449.885 61.275 450.015L62.4 450.21C62.91 450.3 63.34 450.435 63.69 450.615C64.04 450.795 64.32 451.01 64.53 451.26C64.75 451.51 64.905 451.79 64.995 452.1C65.085 452.41 65.13 452.735 65.13 453.075C65.13 454.045 64.81 454.805 64.17 455.355C63.54 455.905 62.64 456.18 61.47 456.18ZM70.4941 456.18C69.9541 456.18 69.4641 456.085 69.0241 455.895C68.5941 455.705 68.2241 455.435 67.9141 455.085C67.6141 454.725 67.3841 454.3 67.2241 453.81C67.0641 453.31 66.9841 452.75 66.9841 452.13C66.9841 451.52 67.0641 450.965 67.2241 450.465C67.3841 449.965 67.6141 449.54 67.9141 449.19C68.2241 448.83 68.5941 448.555 69.0241 448.365C69.4641 448.175 69.9541 448.08 70.4941 448.08C71.0341 448.08 71.5191 448.175 71.9491 448.365C72.3891 448.555 72.7591 448.83 73.0591 449.19C73.3691 449.54 73.6041 449.965 73.7641 450.465C73.9241 450.965 74.0041 451.52 74.0041 452.13C74.0041 452.75 73.9241 453.31 73.7641 453.81C73.6041 454.3 73.3691 454.725 73.0591 455.085C72.7591 455.435 72.3891 455.705 71.9491 455.895C71.5191 456.085 71.0341 456.18 70.4941 456.18ZM70.4941 455.145C71.1641 455.145 71.7041 454.945 72.1141 454.545C72.5241 454.145 72.7291 453.525 72.7291 452.685V451.575C72.7291 450.735 72.5241 450.115 72.1141 449.715C71.7041 449.315 71.1641 449.115 70.4941 449.115C69.8241 449.115 69.2841 449.315 68.8741 449.715C68.4641 450.115 68.2591 450.735 68.2591 451.575V452.685C68.2591 453.525 68.4641 454.145 68.8741 454.545C69.2841 454.945 69.8241 455.145 70.4941 455.145ZM76.1883 454.98H78.8883V445.92H76.1883V444.9H80.0883V454.98H82.7883V456H76.1883V454.98ZM91.4074 456C90.9374 456 90.6024 455.88 90.4024 455.64C90.2024 455.4 90.0774 455.1 90.0274 454.74H89.9524C89.7824 455.19 89.5074 455.545 89.1274 455.805C88.7574 456.055 88.2574 456.18 87.6274 456.18C86.8174 456.18 86.1724 455.97 85.6924 455.55C85.2124 455.13 84.9724 454.555 84.9724 453.825C84.9724 453.105 85.2324 452.55 85.7524 452.16C86.2824 451.77 87.1324 451.575 88.3024 451.575H89.9524V450.81C89.9524 450.24 89.7924 449.815 89.4724 449.535C89.1524 449.245 88.6974 449.1 88.1074 449.1C87.5874 449.1 87.1624 449.205 86.8324 449.415C86.5024 449.615 86.2374 449.89 86.0374 450.24L85.2274 449.64C85.3274 449.44 85.4624 449.245 85.6324 449.055C85.8024 448.865 86.0124 448.7 86.2624 448.56C86.5124 448.41 86.7974 448.295 87.1174 448.215C87.4374 448.125 87.7924 448.08 88.1824 448.08C89.0924 448.08 89.8124 448.31 90.3424 448.77C90.8824 449.23 91.1524 449.87 91.1524 450.69V454.95H92.2324V456H91.4074ZM87.8374 455.175C88.1474 455.175 88.4274 455.14 88.6774 455.07C88.9374 454.99 89.1624 454.89 89.3524 454.77C89.5424 454.64 89.6874 454.49 89.7874 454.32C89.8974 454.14 89.9524 453.95 89.9524 453.75V452.475H88.3024C87.5824 452.475 87.0574 452.575 86.7274 452.775C86.3974 452.975 86.2324 453.265 86.2324 453.645V453.96C86.2324 454.36 86.3724 454.665 86.6524 454.875C86.9424 455.075 87.3374 455.175 87.8374 455.175ZM94.4466 456V448.26H95.6466V449.52H95.7066C95.7866 449.33 95.8866 449.15 96.0066 448.98C96.1266 448.8 96.2716 448.645 96.4416 448.515C96.6216 448.385 96.8316 448.28 97.0716 448.2C97.3116 448.12 97.5916 448.08 97.9116 448.08C98.7216 448.08 99.3716 448.34 99.8616 448.86C100.352 449.37 100.597 450.095 100.597 451.035V456H99.3966V451.245C99.3966 450.535 99.2416 450.01 98.9316 449.67C98.6216 449.32 98.1666 449.145 97.5666 449.145C97.3266 449.145 97.0916 449.175 96.8616 449.235C96.6316 449.295 96.4266 449.385 96.2466 449.505C96.0666 449.625 95.9216 449.78 95.8116 449.97C95.7016 450.16 95.6466 450.38 95.6466 450.63V456H94.4466ZM109.396 456C108.926 456 108.591 455.88 108.391 455.64C108.191 455.4 108.066 455.1 108.016 454.74H107.941C107.771 455.19 107.496 455.545 107.116 455.805C106.746 456.055 106.246 456.18 105.616 456.18C104.806 456.18 104.161 455.97 103.681 455.55C103.201 455.13 102.961 454.555 102.961 453.825C102.961 453.105 103.221 452.55 103.741 452.16C104.271 451.77 105.121 451.575 106.291 451.575H107.941V450.81C107.941 450.24 107.781 449.815 107.461 449.535C107.141 449.245 106.686 449.1 106.096 449.1C105.576 449.1 105.151 449.205 104.821 449.415C104.491 449.615 104.226 449.89 104.026 450.24L103.216 449.64C103.316 449.44 103.451 449.245 103.621 449.055C103.791 448.865 104.001 448.7 104.251 448.56C104.501 448.41 104.786 448.295 105.106 448.215C105.426 448.125 105.781 448.08 106.171 448.08C107.081 448.08 107.801 448.31 108.331 448.77C108.871 449.23 109.141 449.87 109.141 450.69V454.95H110.221V456H109.396ZM105.826 455.175C106.136 455.175 106.416 455.14 106.666 455.07C106.926 454.99 107.151 454.89 107.341 454.77C107.531 454.64 107.676 454.49 107.776 454.32C107.886 454.14 107.941 453.95 107.941 453.75V452.475H106.291C105.571 452.475 105.046 452.575 104.716 452.775C104.386 452.975 104.221 453.265 104.221 453.645V453.96C104.221 454.36 104.361 454.665 104.641 454.875C104.931 455.075 105.326 455.175 105.826 455.175Z" fill="#0A090E"/>
<path d="M289.17 452.332V451.156H293.23V452.332H289.17ZM302.913 456H296.389V454.796L299.651 451.856C300.127 451.427 300.519 450.988 300.827 450.54C301.135 450.083 301.289 449.602 301.289 449.098V448.93C301.289 448.342 301.135 447.889 300.827 447.572C300.519 447.245 300.061 447.082 299.455 447.082C298.857 447.082 298.395 447.236 298.069 447.544C297.751 447.843 297.513 448.244 297.355 448.748L296.305 448.356C296.398 448.067 296.524 447.787 296.683 447.516C296.851 447.236 297.061 446.989 297.313 446.774C297.565 446.559 297.868 446.387 298.223 446.256C298.587 446.125 299.007 446.06 299.483 446.06C299.968 446.06 300.397 446.13 300.771 446.27C301.153 446.41 301.471 446.606 301.723 446.858C301.984 447.11 302.18 447.409 302.311 447.754C302.451 448.099 302.521 448.477 302.521 448.888C302.521 449.261 302.465 449.611 302.353 449.938C302.25 450.265 302.101 450.577 301.905 450.876C301.718 451.175 301.489 451.469 301.219 451.758C300.957 452.038 300.663 452.318 300.337 452.598L297.607 454.978H302.913V456ZM307.989 456.126C307.606 456.126 307.336 456.047 307.177 455.888C307.028 455.729 306.953 455.529 306.953 455.286V455.034C306.953 454.791 307.028 454.591 307.177 454.432C307.336 454.273 307.606 454.194 307.989 454.194C308.372 454.194 308.638 454.273 308.787 454.432C308.946 454.591 309.025 454.791 309.025 455.034V455.286C309.025 455.529 308.946 455.729 308.787 455.888C308.638 456.047 308.372 456.126 307.989 456.126ZM313.374 456V454.978H316.174V447.096H316.076L313.612 449.392L312.926 448.65L315.516 446.228H317.35V454.978H319.926V456H313.374ZM333.145 456.168C332.267 456.168 331.549 456.009 330.989 455.692C330.429 455.365 329.967 454.95 329.603 454.446L330.457 453.746C330.839 454.222 331.241 454.577 331.661 454.81C332.09 455.043 332.599 455.16 333.187 455.16C333.896 455.16 334.437 454.997 334.811 454.67C335.184 454.343 335.371 453.886 335.371 453.298C335.371 452.822 335.235 452.453 334.965 452.192C334.694 451.921 334.223 451.73 333.551 451.618L332.459 451.436C331.983 451.352 331.581 451.226 331.255 451.058C330.937 450.89 330.681 450.689 330.485 450.456C330.289 450.213 330.149 449.952 330.065 449.672C329.981 449.383 329.939 449.084 329.939 448.776C329.939 447.88 330.233 447.203 330.821 446.746C331.409 446.289 332.202 446.06 333.201 446.06C333.985 446.06 334.643 446.191 335.175 446.452C335.716 446.713 336.15 447.082 336.477 447.558L335.651 448.272C335.38 447.917 335.053 447.628 334.671 447.404C334.288 447.18 333.793 447.068 333.187 447.068C332.524 447.068 332.015 447.208 331.661 447.488C331.306 447.768 331.129 448.188 331.129 448.748C331.129 449.187 331.259 449.546 331.521 449.826C331.791 450.097 332.272 450.293 332.963 450.414L334.013 450.596C334.489 450.68 334.89 450.806 335.217 450.974C335.543 451.142 335.805 451.343 336.001 451.576C336.206 451.809 336.351 452.071 336.435 452.36C336.519 452.649 336.561 452.953 336.561 453.27C336.561 454.175 336.262 454.885 335.665 455.398C335.077 455.911 334.237 456.168 333.145 456.168ZM341.567 456.168C340.97 456.168 340.457 456.056 340.027 455.832C339.598 455.599 339.243 455.267 338.963 454.838C338.683 454.409 338.478 453.881 338.347 453.256C338.217 452.631 338.151 451.917 338.151 451.114C338.151 450.321 338.217 449.611 338.347 448.986C338.478 448.351 338.683 447.819 338.963 447.39C339.243 446.961 339.598 446.634 340.027 446.41C340.457 446.177 340.97 446.06 341.567 446.06C342.165 446.06 342.678 446.177 343.107 446.41C343.537 446.634 343.891 446.961 344.171 447.39C344.451 447.819 344.657 448.351 344.787 448.986C344.918 449.611 344.983 450.321 344.983 451.114C344.983 451.917 344.918 452.631 344.787 453.256C344.657 453.881 344.451 454.409 344.171 454.838C343.891 455.267 343.537 455.599 343.107 455.832C342.678 456.056 342.165 456.168 341.567 456.168ZM341.567 455.146C341.959 455.146 342.291 455.071 342.561 454.922C342.832 454.763 343.056 454.544 343.233 454.264C343.411 453.984 343.537 453.648 343.611 453.256C343.695 452.855 343.737 452.407 343.737 451.912V450.316C343.737 449.831 343.695 449.387 343.611 448.986C343.537 448.585 343.411 448.244 343.233 447.964C343.056 447.684 342.832 447.469 342.561 447.32C342.291 447.161 341.959 447.082 341.567 447.082C341.175 447.082 340.844 447.161 340.573 447.32C340.303 447.469 340.079 447.684 339.901 447.964C339.724 448.244 339.593 448.585 339.509 448.986C339.435 449.387 339.397 449.831 339.397 450.316V451.912C339.397 452.407 339.435 452.855 339.509 453.256C339.593 453.648 339.724 453.984 339.901 454.264C340.079 454.544 340.303 454.763 340.573 454.922C340.844 455.071 341.175 455.146 341.567 455.146ZM347.442 456V446.228H348.618V454.978H353.252V456H347.442Z" fill="#9F9EA1"/>
<rect x="46.25" y="481.25" width="317.5" height="32.5" fill="#0A090E" stroke="#565656" stroke-width="0.5"/>
<rect x="46" y="481" width="76" height="33" fill="#CEFFC6"/>
<path d="M61.47 503.18C60.53 503.18 59.76 503.01 59.16 502.67C58.56 502.32 58.065 501.875 57.675 501.335L58.59 500.585C59 501.095 59.43 501.475 59.88 501.725C60.34 501.975 60.885 502.1 61.515 502.1C62.275 502.1 62.855 501.925 63.255 501.575C63.655 501.225 63.855 500.735 63.855 500.105C63.855 499.595 63.71 499.2 63.42 498.92C63.13 498.63 62.625 498.425 61.905 498.305L60.735 498.11C60.225 498.02 59.795 497.885 59.445 497.705C59.105 497.525 58.83 497.31 58.62 497.06C58.41 496.8 58.26 496.52 58.17 496.22C58.08 495.91 58.035 495.59 58.035 495.26C58.035 494.3 58.35 493.575 58.98 493.085C59.61 492.595 60.46 492.35 61.53 492.35C62.37 492.35 63.075 492.49 63.645 492.77C64.225 493.05 64.69 493.445 65.04 493.955L64.155 494.72C63.865 494.34 63.515 494.03 63.105 493.79C62.695 493.55 62.165 493.43 61.515 493.43C60.805 493.43 60.26 493.58 59.88 493.88C59.5 494.18 59.31 494.63 59.31 495.23C59.31 495.7 59.45 496.085 59.73 496.385C60.02 496.675 60.535 496.885 61.275 497.015L62.4 497.21C62.91 497.3 63.34 497.435 63.69 497.615C64.04 497.795 64.32 498.01 64.53 498.26C64.75 498.51 64.905 498.79 64.995 499.1C65.085 499.41 65.13 499.735 65.13 500.075C65.13 501.045 64.81 501.805 64.17 502.355C63.54 502.905 62.64 503.18 61.47 503.18ZM70.4941 503.18C69.9541 503.18 69.4641 503.085 69.0241 502.895C68.5941 502.705 68.2241 502.435 67.9141 502.085C67.6141 501.725 67.3841 501.3 67.2241 500.81C67.0641 500.31 66.9841 499.75 66.9841 499.13C66.9841 498.52 67.0641 497.965 67.2241 497.465C67.3841 496.965 67.6141 496.54 67.9141 496.19C68.2241 495.83 68.5941 495.555 69.0241 495.365C69.4641 495.175 69.9541 495.08 70.4941 495.08C71.0341 495.08 71.5191 495.175 71.9491 495.365C72.3891 495.555 72.7591 495.83 73.0591 496.19C73.3691 496.54 73.6041 496.965 73.7641 497.465C73.9241 497.965 74.0041 498.52 74.0041 499.13C74.0041 499.75 73.9241 500.31 73.7641 500.81C73.6041 501.3 73.3691 501.725 73.0591 502.085C72.7591 502.435 72.3891 502.705 71.9491 502.895C71.5191 503.085 71.0341 503.18 70.4941 503.18ZM70.4941 502.145C71.1641 502.145 71.7041 501.945 72.1141 501.545C72.5241 501.145 72.7291 500.525 72.7291 499.685V498.575C72.7291 497.735 72.5241 497.115 72.1141 496.715C71.7041 496.315 71.1641 496.115 70.4941 496.115C69.8241 496.115 69.2841 496.315 68.8741 496.715C68.4641 497.115 68.2591 497.735 68.2591 498.575V499.685C68.2591 500.525 68.4641 501.145 68.8741 501.545C69.2841 501.945 69.8241 502.145 70.4941 502.145ZM76.1883 501.98H78.8883V492.92H76.1883V491.9H80.0883V501.98H82.7883V503H76.1883V501.98ZM91.4074 503C90.9374 503 90.6024 502.88 90.4024 502.64C90.2024 502.4 90.0774 502.1 90.0274 501.74H89.9524C89.7824 502.19 89.5074 502.545 89.1274 502.805C88.7574 503.055 88.2574 503.18 87.6274 503.18C86.8174 503.18 86.1724 502.97 85.6924 502.55C85.2124 502.13 84.9724 501.555 84.9724 500.825C84.9724 500.105 85.2324 499.55 85.7524 499.16C86.2824 498.77 87.1324 498.575 88.3024 498.575H89.9524V497.81C89.9524 497.24 89.7924 496.815 89.4724 496.535C89.1524 496.245 88.6974 496.1 88.1074 496.1C87.5874 496.1 87.1624 496.205 86.8324 496.415C86.5024 496.615 86.2374 496.89 86.0374 497.24L85.2274 496.64C85.3274 496.44 85.4624 496.245 85.6324 496.055C85.8024 495.865 86.0124 495.7 86.2624 495.56C86.5124 495.41 86.7974 495.295 87.1174 495.215C87.4374 495.125 87.7924 495.08 88.1824 495.08C89.0924 495.08 89.8124 495.31 90.3424 495.77C90.8824 496.23 91.1524 496.87 91.1524 497.69V501.95H92.2324V503H91.4074ZM87.8374 502.175C88.1474 502.175 88.4274 502.14 88.6774 502.07C88.9374 501.99 89.1624 501.89 89.3524 501.77C89.5424 501.64 89.6874 501.49 89.7874 501.32C89.8974 501.14 89.9524 500.95 89.9524 500.75V499.475H88.3024C87.5824 499.475 87.0574 499.575 86.7274 499.775C86.3974 499.975 86.2324 500.265 86.2324 500.645V500.96C86.2324 501.36 86.3724 501.665 86.6524 501.875C86.9424 502.075 87.3374 502.175 87.8374 502.175ZM94.4466 503V495.26H95.6466V496.52H95.7066C95.7866 496.33 95.8866 496.15 96.0066 495.98C96.1266 495.8 96.2716 495.645 96.4416 495.515C96.6216 495.385 96.8316 495.28 97.0716 495.2C97.3116 495.12 97.5916 495.08 97.9116 495.08C98.7216 495.08 99.3716 495.34 99.8616 495.86C100.352 496.37 100.597 497.095 100.597 498.035V503H99.3966V498.245C99.3966 497.535 99.2416 497.01 98.9316 496.67C98.6216 496.32 98.1666 496.145 97.5666 496.145C97.3266 496.145 97.0916 496.175 96.8616 496.235C96.6316 496.295 96.4266 496.385 96.2466 496.505C96.0666 496.625 95.9216 496.78 95.8116 496.97C95.7016 497.16 95.6466 497.38 95.6466 497.63V503H94.4466ZM109.396 503C108.926 503 108.591 502.88 108.391 502.64C108.191 502.4 108.066 502.1 108.016 501.74H107.941C107.771 502.19 107.496 502.545 107.116 502.805C106.746 503.055 106.246 503.18 105.616 503.18C104.806 503.18 104.161 502.97 103.681 502.55C103.201 502.13 102.961 501.555 102.961 500.825C102.961 500.105 103.221 499.55 103.741 499.16C104.271 498.77 105.121 498.575 106.291 498.575H107.941V497.81C107.941 497.24 107.781 496.815 107.461 496.535C107.141 496.245 106.686 496.1 106.096 496.1C105.576 496.1 105.151 496.205 104.821 496.415C104.491 496.615 104.226 496.89 104.026 497.24L103.216 496.64C103.316 496.44 103.451 496.245 103.621 496.055C103.791 495.865 104.001 495.7 104.251 495.56C104.501 495.41 104.786 495.295 105.106 495.215C105.426 495.125 105.781 495.08 106.171 495.08C107.081 495.08 107.801 495.31 108.331 495.77C108.871 496.23 109.141 496.87 109.141 497.69V501.95H110.221V503H109.396ZM105.826 502.175C106.136 502.175 106.416 502.14 106.666 502.07C106.926 501.99 107.151 501.89 107.341 501.77C107.531 501.64 107.676 501.49 107.776 501.32C107.886 501.14 107.941 500.95 107.941 500.75V499.475H106.291C105.571 499.475 105.046 499.575 104.716 499.775C104.386 499.975 104.221 500.265 104.221 500.645V500.96C104.221 501.36 104.361 501.665 104.641 501.875C104.931 502.075 105.326 502.175 105.826 502.175Z" fill="#0A090E"/>
<path d="M290.668 502.132V499.206H287.868V498.254H290.668V495.328H291.732V498.254H294.532V499.206H291.732V502.132H290.668ZM302.913 503H296.389V501.796L299.651 498.856C300.127 498.427 300.519 497.988 300.827 497.54C301.135 497.083 301.289 496.602 301.289 496.098V495.93C301.289 495.342 301.135 494.889 300.827 494.572C300.519 494.245 300.061 494.082 299.455 494.082C298.857 494.082 298.395 494.236 298.069 494.544C297.751 494.843 297.513 495.244 297.355 495.748L296.305 495.356C296.398 495.067 296.524 494.787 296.683 494.516C296.851 494.236 297.061 493.989 297.313 493.774C297.565 493.559 297.868 493.387 298.223 493.256C298.587 493.125 299.007 493.06 299.483 493.06C299.968 493.06 300.397 493.13 300.771 493.27C301.153 493.41 301.471 493.606 301.723 493.858C301.984 494.11 302.18 494.409 302.311 494.754C302.451 495.099 302.521 495.477 302.521 495.888C302.521 496.261 302.465 496.611 302.353 496.938C302.25 497.265 302.101 497.577 301.905 497.876C301.718 498.175 301.489 498.469 301.219 498.758C300.957 499.038 300.663 499.318 300.337 499.598L297.607 501.978H302.913V503ZM307.989 503.126C307.606 503.126 307.336 503.047 307.177 502.888C307.028 502.729 306.953 502.529 306.953 502.286V502.034C306.953 501.791 307.028 501.591 307.177 501.432C307.336 501.273 307.606 501.194 307.989 501.194C308.372 501.194 308.638 501.273 308.787 501.432C308.946 501.591 309.025 501.791 309.025 502.034V502.286C309.025 502.529 308.946 502.729 308.787 502.888C308.638 503.047 308.372 503.126 307.989 503.126ZM313.374 503V501.978H316.174V494.096H316.076L313.612 496.392L312.926 495.65L315.516 493.228H317.35V501.978H319.926V503H313.374ZM333.145 503.168C332.267 503.168 331.549 503.009 330.989 502.692C330.429 502.365 329.967 501.95 329.603 501.446L330.457 500.746C330.839 501.222 331.241 501.577 331.661 501.81C332.09 502.043 332.599 502.16 333.187 502.16C333.896 502.16 334.437 501.997 334.811 501.67C335.184 501.343 335.371 500.886 335.371 500.298C335.371 499.822 335.235 499.453 334.965 499.192C334.694 498.921 334.223 498.73 333.551 498.618L332.459 498.436C331.983 498.352 331.581 498.226 331.255 498.058C330.937 497.89 330.681 497.689 330.485 497.456C330.289 497.213 330.149 496.952 330.065 496.672C329.981 496.383 329.939 496.084 329.939 495.776C329.939 494.88 330.233 494.203 330.821 493.746C331.409 493.289 332.202 493.06 333.201 493.06C333.985 493.06 334.643 493.191 335.175 493.452C335.716 493.713 336.15 494.082 336.477 494.558L335.651 495.272C335.38 494.917 335.053 494.628 334.671 494.404C334.288 494.18 333.793 494.068 333.187 494.068C332.524 494.068 332.015 494.208 331.661 494.488C331.306 494.768 331.129 495.188 331.129 495.748C331.129 496.187 331.259 496.546 331.521 496.826C331.791 497.097 332.272 497.293 332.963 497.414L334.013 497.596C334.489 497.68 334.89 497.806 335.217 497.974C335.543 498.142 335.805 498.343 336.001 498.576C336.206 498.809 336.351 499.071 336.435 499.36C336.519 499.649 336.561 499.953 336.561 500.27C336.561 501.175 336.262 501.885 335.665 502.398C335.077 502.911 334.237 503.168 333.145 503.168ZM341.567 503.168C340.97 503.168 340.457 503.056 340.027 502.832C339.598 502.599 339.243 502.267 338.963 501.838C338.683 501.409 338.478 500.881 338.347 500.256C338.217 499.631 338.151 498.917 338.151 498.114C338.151 497.321 338.217 496.611 338.347 495.986C338.478 495.351 338.683 494.819 338.963 494.39C339.243 493.961 339.598 493.634 340.027 493.41C340.457 493.177 340.97 493.06 341.567 493.06C342.165 493.06 342.678 493.177 343.107 493.41C343.537 493.634 343.891 493.961 344.171 494.39C344.451 494.819 344.657 495.351 344.787 495.986C344.918 496.611 344.983 497.321 344.983 498.114C344.983 498.917 344.918 499.631 344.787 500.256C344.657 500.881 344.451 501.409 344.171 501.838C343.891 502.267 343.537 502.599 343.107 502.832C342.678 503.056 342.165 503.168 341.567 503.168ZM341.567 502.146C341.959 502.146 342.291 502.071 342.561 501.922C342.832 501.763 343.056 501.544 343.233 501.264C343.411 500.984 343.537 500.648 343.611 500.256C343.695 499.855 343.737 499.407 343.737 498.912V497.316C343.737 496.831 343.695 496.387 343.611 495.986C343.537 495.585 343.411 495.244 343.233 494.964C343.056 494.684 342.832 494.469 342.561 494.32C342.291 494.161 341.959 494.082 341.567 494.082C341.175 494.082 340.844 494.161 340.573 494.32C340.303 494.469 340.079 494.684 339.901 494.964C339.724 495.244 339.593 495.585 339.509 495.986C339.435 496.387 339.397 496.831 339.397 497.316V498.912C339.397 499.407 339.435 499.855 339.509 500.256C339.593 500.648 339.724 500.984 339.901 501.264C340.079 501.544 340.303 501.763 340.573 501.922C340.844 502.071 341.175 502.146 341.567 502.146ZM347.442 503V493.228H348.618V501.978H353.252V503H347.442Z" fill="#9F9EA1"/>
<path fill-rule="evenodd" clip-rule="evenodd" d="M29.3987 16.8096L28.4267 16.9358L28.6921 19.0029C28.2141 19.1064 27.7364 19.2472 27.2612 19.4258L26.7629 17.3194L25.8089 17.5455L26.3465 19.8191C25.9037 20.0344 25.464 20.2844 25.0303 20.5715L24.1239 18.3225L23.2157 18.688L24.2139 21.1649C23.9507 21.3748 23.7021 21.5926 23.4665 21.8188L21.693 19.7011L20.9406 20.3306L22.788 22.5369C22.5428 22.8215 22.3154 23.1151 22.1077 23.4171L19.8047 22.0025L19.2916 22.8385L21.5929 24.2499C21.3986 24.601 21.2277 24.961 21.0783 25.3267L18.5851 24.6548L18.331 25.6021L20.7504 26.253C20.5621 26.8788 20.4341 27.5171 20.3652 28.1594L18.2851 28.0414L18.2311 29.0216L20.3061 29.1379C20.2967 29.7571 20.3404 30.3752 20.4357 30.9838L18.6457 31.313L18.8228 32.2769L20.6308 31.9441C20.7822 32.5486 20.9844 33.1391 21.2372 33.7063L19.8571 34.3341L20.2637 35.2259L21.6799 34.5816C21.9925 35.1343 22.3568 35.6586 22.7699 36.1454L21.693 37.0273L22.3142 37.7862L23.442 36.8617C23.9091 37.3125 24.4241 37.7195 24.9844 38.0747L24.4237 38.9188L25.2401 39.4614L25.84 38.5581C26.4233 38.8497 27.0472 39.0879 27.7087 39.2647L27.8956 38.3352C27.3546 38.1899 26.8437 38 26.3645 37.7681L26.7563 37.178L25.94 36.6354L25.5057 37.2894C25.0273 36.9848 24.5874 36.636 24.1861 36.2518L24.9155 35.6535L24.2943 34.8962L23.5157 35.5339C23.1609 35.1095 22.8455 34.655 22.5716 34.1749L23.7518 33.6372L23.3452 32.7455L22.1288 33.2996C21.9089 32.8051 21.7291 32.2921 21.5929 31.7669L23.2878 31.4539L23.1108 30.4901L21.3945 30.8064C21.3113 30.2736 21.2714 29.7334 21.2765 29.1919L23.3763 29.3099L23.4321 28.3313L21.3355 28.2132C21.3738 27.8702 21.4302 27.5277 21.506 27.1888C21.7276 27.2188 21.9864 27.2505 22.2961 27.2855C23.0476 27.3703 24.0184 27.4663 24.9794 27.5575C26.5519 27.7069 27.5831 27.7953 28.0938 27.8395L26.3595 31.6342L26.0564 32.2981L26.1268 32.3014L29.3036 34.1455L29.797 33.2981L28.2266 32.3867L30.9427 32.4964L30.982 31.5162L28.3938 31.4113L30.1559 30.7179L29.7969 29.8049L27.9397 30.536L29.2741 27.6166L29.5626 26.984L28.8692 26.925C28.8692 26.925 26.9871 26.7644 25.0713 26.5825C24.1133 26.4914 23.1464 26.3955 22.406 26.3119C22.1637 26.2846 21.9591 26.2587 21.7749 26.2348C22.2906 24.7128 23.216 23.2853 24.5976 22.1172L25.6958 24.8448L26.6056 24.4776L25.4057 21.5009C25.4212 21.4903 25.436 21.4788 25.4516 21.4681C25.8246 21.2143 26.2005 20.991 26.5778 20.7961L27.5678 24.9875L28.5217 24.763L27.4873 20.3831C27.9296 20.2086 28.3722 20.071 28.8151 19.97L29.433 24.7826L30.4051 24.658L29.7822 19.8045C30.2524 19.7514 30.7209 19.7391 31.1854 19.7618L31.3427 24.8073L32.323 24.7761L32.3049 24.186L34.0999 26.2463L32.1444 27.1414L32.5525 28.0331L34.2474 27.2578L33.4245 28.9543L34.3064 29.3838L35.5341 26.8545L35.6768 26.5627L35.4636 26.3185L33.2934 23.8286L35.9438 21.3191C37.1912 22.1062 38.3267 23.1644 39.2764 24.4318C38.0272 24.7539 36.9673 25.6987 36.6176 27.2495L39.0829 32.6556L39.9681 32.5294L38.5551 28.9298L39.4681 28.5708L40.9663 32.3868L42.7924 32.1245L42.3513 24.8531C41.7345 24.5095 41.059 24.329 40.3942 24.3089C40.1537 23.9601 39.9006 23.6244 39.6352 23.3023L40.6089 22.3221L39.9139 21.6321L38.9845 22.5664C38.7183 22.2855 38.4416 22.0187 38.1567 21.7649L39.1075 20.3322L38.2894 19.7913L37.3977 21.137C37.0806 20.8944 36.7536 20.6688 36.4192 20.46L36.9731 18.7897L36.042 18.4815L35.5503 19.9649C35.1755 19.7727 34.7919 19.6018 34.4013 19.4535L34.5668 17.6866L33.5899 17.5948L33.4456 19.1421C33.0165 19.0241 32.5803 18.9346 32.1393 18.8733L32.0901 17.2898L31.11 17.3195L31.1559 18.7848C31.0686 18.7815 30.9812 18.7793 30.8936 18.7783C30.8312 18.7776 30.7693 18.7779 30.7067 18.7783C30.3588 18.7809 30.0096 18.8021 29.6593 18.8423L29.3986 16.8097L29.3987 16.8096ZM32.1705 19.8635C32.569 19.9276 32.9631 20.0183 33.3523 20.1339L33.1195 22.6205L33.1409 22.6222L32.2819 23.4352L32.1704 19.8635H32.1705ZM34.3063 20.4699C34.5584 20.5736 34.808 20.6878 35.0538 20.8125L34.1981 21.6223L34.3063 20.4699H34.3063ZM40.1582 25.2547C40.1994 25.2535 40.2407 25.255 40.2828 25.258C40.9569 25.3052 41.4546 25.8792 41.4073 26.5529C41.36 27.2264 40.7864 27.7247 40.1123 27.6774C39.4382 27.6301 38.9405 27.0559 38.9878 26.3824C39.0321 25.751 39.5396 25.2729 40.1582 25.2547ZM34.2179 38.0566C33.9405 38.1411 33.6677 38.2151 33.3983 38.2811L33.6081 39.2401C33.9034 39.1689 34.202 39.088 34.5047 38.9958L34.2178 38.0565L34.2179 38.0566ZM32.4394 38.4811C32.0643 38.5455 31.6974 38.5913 31.3394 38.6204L31.3591 39.5925C31.779 39.5631 32.209 39.513 32.6476 39.4384L32.4393 38.4811H32.4394ZM28.8545 38.5385L28.666 39.4711C29.2148 39.5634 29.7862 39.6154 30.3789 39.622L30.3592 38.6598C29.8368 38.6566 29.3356 38.6141 28.8545 38.5385Z" fill="white"/>
<defs>
<filter id="filter0_d_1_3" x="155" y="240" width="96" height="42" filterUnits="userSpaceOnUse" color-interpolation-filters="sRGB">
<feFlood flood-opacity="0" result="BackgroundImageFix"/>
<feColorMatrix in="SourceAlpha" type="matrix" values="0 0 0 0 0 0 0 0 0 0 0 0 0 0 0 0 0 0 127 0" result="hardAlpha"/>
<feOffset dx="5" dy="5"/>
<feComposite in2="hardAlpha" operator="out"/>
<feColorMatrix type="matrix" values="0 0 0 0 0.220312 0 0 0 0 0.220312 0 0 0 0 0.225 0 0 0 1 0"/>
<feBlend mode="normal" in2="BackgroundImageFix" result="effect1_dropShadow_1_3"/>
<feBlend mode="normal" in="SourceGraphic" in2="effect1_dropShadow_1_3" result="shape"/>
</filter>
<filter id="filter1_d_1_3" x="45" y="240" width="96" height="42" filterUnits="userSpaceOnUse" color-interpolation-filters="sRGB">
<feFlood flood-opacity="0" result="BackgroundImageFix"/>
<feColorMatrix in="SourceAlpha" type="matrix" values="0 0 0 0 0 0 0 0 0 0 0 0 0 0 0 0 0 0 127 0" result="hardAlpha"/>
<feOffset dx="5" dy="5"/>
<feComposite in2="hardAlpha" operator="out"/>
<feColorMatrix type="matrix" values="0 0 0 0 0.475 0 0 0 0 0.475 0 0 0 0 0.475 0 0 0 1 0"/>
<feBlend mode="normal" in2="BackgroundImageFix" result="effect1_dropShadow_1_3"/>
<feBlend mode="normal" in="SourceGraphic" in2="effect1_dropShadow_1_3" result="shape"/>
</filter>
<filter id="filter2_d_1_3" x="263" y="240" width="97" height="42" filterUnits="userSpaceOnUse" color-interpolation-filters="sRGB">
<feFlood flood-opacity="0" result="BackgroundImageFix"/>
<feColorMatrix in="SourceAlpha" type="matrix" values="0 0 0 0 0 0 0 0 0 0 0 0 0 0 0 0 0 0 127 0" result="hardAlpha"/>
<feOffset dx="5" dy="5"/>
<feComposite in2="hardAlpha" operator="out"/>
<feColorMatrix type="matrix" values="0 0 0 0 0.220312 0 0 0 0 0.220312 0 0 0 0 0.225 0 0 0 1 0"/>
<feBlend mode="normal" in2="BackgroundImageFix" result="effect1_dropShadow_1_3"/>
<feBlend mode="normal" in="SourceGraphic" in2="effect1_dropShadow_1_3" result="shape"/>
</filter>
</defs>
</svg>
