<svg width="400" height="600" viewBox="0 0 400 600" fill="none" xmlns="http://www.w3.org/2000/svg">
<rect width="400" height="600" fill="#0A090E"/>
<path d="M61.524 139.25V153H59.676V139.25H54.55V137.644H66.65V139.25H61.524ZM71.0194 153H69.1714V137.644H74.7594C76.1821 137.644 77.2674 138.033 78.0154 138.81C78.7634 139.587 79.1374 140.673 79.1374 142.066C79.1374 143.313 78.8147 144.31 78.1694 145.058C77.5241 145.806 76.5854 146.239 75.3534 146.356L79.2694 153H77.2014L73.4614 146.444H71.0194V153ZM74.7154 144.882C75.4927 144.882 76.0941 144.691 76.5194 144.31C76.9594 143.914 77.1794 143.357 77.1794 142.638V141.494C77.1794 140.775 76.9594 140.225 76.5194 139.844C76.0941 139.448 75.4927 139.25 74.7154 139.25H71.0194V144.882H74.7154ZM90.9648 153L89.6668 148.622H84.2768L82.9788 153H81.0648L85.7728 137.644H88.2148L92.9228 153H90.9648ZM87.0708 139.602H86.8728L84.7168 147.016H89.2268L87.0708 139.602ZM97.1602 139.998H97.0062V153H95.3342V137.644H97.9522L103.188 150.514H103.342V137.644H105.014V153H102.396L97.1602 139.998ZM113.322 153.264C111.943 153.264 110.814 153.015 109.934 152.516C109.054 152.003 108.328 151.35 107.756 150.558L109.098 149.458C109.699 150.206 110.33 150.763 110.99 151.13C111.664 151.497 112.464 151.68 113.388 151.68C114.502 151.68 115.353 151.423 115.94 150.91C116.526 150.397 116.82 149.678 116.82 148.754C116.82 148.006 116.607 147.427 116.182 147.016C115.756 146.591 115.016 146.29 113.96 146.114L112.244 145.828C111.496 145.696 110.865 145.498 110.352 145.234C109.853 144.97 109.45 144.655 109.142 144.288C108.834 143.907 108.614 143.496 108.482 143.056C108.35 142.601 108.284 142.132 108.284 141.648C108.284 140.24 108.746 139.177 109.67 138.458C110.594 137.739 111.84 137.38 113.41 137.38C114.642 137.38 115.676 137.585 116.512 137.996C117.362 138.407 118.044 138.986 118.558 139.734L117.26 140.856C116.834 140.299 116.321 139.844 115.72 139.492C115.118 139.14 114.341 138.964 113.388 138.964C112.346 138.964 111.547 139.184 110.99 139.624C110.432 140.064 110.154 140.724 110.154 141.604C110.154 142.293 110.359 142.858 110.77 143.298C111.195 143.723 111.95 144.031 113.036 144.222L114.686 144.508C115.434 144.64 116.064 144.838 116.578 145.102C117.091 145.366 117.502 145.681 117.81 146.048C118.132 146.415 118.36 146.825 118.492 147.28C118.624 147.735 118.69 148.211 118.69 148.71C118.69 150.133 118.22 151.247 117.282 152.054C116.358 152.861 115.038 153.264 113.322 153.264ZM130.539 153L129.241 148.622H123.851L122.553 153H120.639L125.347 137.644H127.789L132.497 153H130.539ZM126.645 139.602H126.447L124.291 147.016H128.801L126.645 139.602ZM140.254 153.264C138.377 153.264 136.976 152.582 136.052 151.218C135.143 149.854 134.688 147.889 134.688 145.322C134.688 142.755 135.143 140.79 136.052 139.426C136.976 138.062 138.377 137.38 140.254 137.38C140.958 137.38 141.567 137.475 142.08 137.666C142.594 137.857 143.034 138.113 143.4 138.436C143.767 138.759 144.075 139.125 144.324 139.536C144.574 139.932 144.794 140.335 144.984 140.746L143.4 141.472C143.268 141.135 143.114 140.819 142.938 140.526C142.762 140.218 142.55 139.954 142.3 139.734C142.066 139.499 141.78 139.316 141.442 139.184C141.12 139.052 140.724 138.986 140.254 138.986C139.037 138.986 138.128 139.448 137.526 140.372C136.94 141.296 136.646 142.528 136.646 144.068V146.576C136.646 148.116 136.94 149.348 137.526 150.272C138.128 151.196 139.037 151.658 140.254 151.658C140.724 151.658 141.12 151.592 141.442 151.46C141.78 151.328 142.066 151.152 142.3 150.932C142.55 150.697 142.762 150.433 142.938 150.14C143.114 149.832 143.268 149.509 143.4 149.172L144.984 149.898C144.794 150.323 144.574 150.734 144.324 151.13C144.075 151.526 143.767 151.885 143.4 152.208C143.034 152.531 142.594 152.787 142.08 152.978C141.567 153.169 140.958 153.264 140.254 153.264ZM153.864 139.25V153H152.016V139.25H146.89V137.644H158.99V139.25H153.864ZM161.379 153V151.526H165.207V139.118H161.379V137.644H170.883V139.118H167.055V151.526H170.883V153H161.379ZM179.323 153.264C178.384 153.264 177.577 153.088 176.903 152.736C176.228 152.369 175.671 151.849 175.231 151.174C174.791 150.499 174.468 149.671 174.263 148.688C174.057 147.705 173.955 146.583 173.955 145.322C173.955 144.075 174.057 142.961 174.263 141.978C174.468 140.981 174.791 140.145 175.231 139.47C175.671 138.795 176.228 138.282 176.903 137.93C177.577 137.563 178.384 137.38 179.323 137.38C180.261 137.38 181.068 137.563 181.743 137.93C182.417 138.282 182.975 138.795 183.415 139.47C183.855 140.145 184.177 140.981 184.383 141.978C184.588 142.961 184.691 144.075 184.691 145.322C184.691 146.583 184.588 147.705 184.383 148.688C184.177 149.671 183.855 150.499 183.415 151.174C182.975 151.849 182.417 152.369 181.743 152.736C181.068 153.088 180.261 153.264 179.323 153.264ZM179.323 151.658C179.939 151.658 180.459 151.541 180.885 151.306C181.31 151.057 181.662 150.712 181.941 150.272C182.219 149.832 182.417 149.304 182.535 148.688C182.667 148.057 182.733 147.353 182.733 146.576V144.068C182.733 143.305 182.667 142.609 182.535 141.978C182.417 141.347 182.219 140.812 181.941 140.372C181.662 139.932 181.31 139.595 180.885 139.36C180.459 139.111 179.939 138.986 179.323 138.986C178.707 138.986 178.186 139.111 177.761 139.36C177.335 139.595 176.983 139.932 176.705 140.372C176.426 140.812 176.221 141.347 176.089 141.978C175.971 142.609 175.913 143.305 175.913 144.068V146.576C175.913 147.353 175.971 148.057 176.089 148.688C176.221 149.304 176.426 149.832 176.705 150.272C176.983 150.712 177.335 151.057 177.761 151.306C178.186 151.541 178.707 151.658 179.323 151.658ZM189.5 139.998H189.346V153H187.674V137.644H190.292L195.528 150.514H195.682V137.644H197.354V153H194.736L189.5 139.998ZM214.277 153V137.644H219.865C221.288 137.644 222.373 138.033 223.121 138.81C223.869 139.587 224.243 140.673 224.243 142.066C224.243 143.459 223.869 144.545 223.121 145.322C222.373 146.099 221.288 146.488 219.865 146.488H216.125V153H214.277ZM216.125 144.882H219.821C220.598 144.882 221.2 144.691 221.625 144.31C222.065 143.914 222.285 143.357 222.285 142.638V141.494C222.285 140.775 222.065 140.225 221.625 139.844C221.2 139.448 220.598 139.25 219.821 139.25H216.125V144.882ZM229.316 153H227.468V137.644H233.056C234.479 137.644 235.564 138.033 236.312 138.81C237.06 139.587 237.434 140.673 237.434 142.066C237.434 143.313 237.112 144.31 236.466 145.058C235.821 145.806 234.882 146.239 233.65 146.356L237.566 153H235.498L231.758 146.444H229.316V153ZM233.012 144.882C233.79 144.882 234.391 144.691 234.816 144.31C235.256 143.914 235.476 143.357 235.476 142.638V141.494C235.476 140.775 235.256 140.225 234.816 139.844C234.391 139.448 233.79 139.25 233.012 139.25H229.316V144.882H233.012ZM245.28 153.264C244.341 153.264 243.534 153.088 242.86 152.736C242.185 152.369 241.628 151.849 241.188 151.174C240.748 150.499 240.425 149.671 240.22 148.688C240.014 147.705 239.912 146.583 239.912 145.322C239.912 144.075 240.014 142.961 240.22 141.978C240.425 140.981 240.748 140.145 241.188 139.47C241.628 138.795 242.185 138.282 242.86 137.93C243.534 137.563 244.341 137.38 245.28 137.38C246.218 137.38 247.025 137.563 247.7 137.93C248.374 138.282 248.932 138.795 249.372 139.47C249.812 140.145 250.134 140.981 250.34 141.978C250.545 142.961 250.648 144.075 250.648 145.322C250.648 146.583 250.545 147.705 250.34 148.688C250.134 149.671 249.812 150.499 249.372 151.174C248.932 151.849 248.374 152.369 247.7 152.736C247.025 153.088 246.218 153.264 245.28 153.264ZM245.28 151.658C245.896 151.658 246.416 151.541 246.842 151.306C247.267 151.057 247.619 150.712 247.898 150.272C248.176 149.832 248.374 149.304 248.492 148.688C248.624 148.057 248.69 147.353 248.69 146.576V144.068C248.69 143.305 248.624 142.609 248.492 141.978C248.374 141.347 248.176 140.812 247.898 140.372C247.619 139.932 247.267 139.595 246.842 139.36C246.416 139.111 245.896 138.986 245.28 138.986C244.664 138.986 244.143 139.111 243.718 139.36C243.292 139.595 242.94 139.932 242.662 140.372C242.383 140.812 242.178 141.347 242.046 141.978C241.928 142.609 241.87 143.305 241.87 144.068V146.576C241.87 147.353 241.928 148.057 242.046 148.688C242.178 149.304 242.383 149.832 242.662 150.272C242.94 150.712 243.292 151.057 243.718 151.306C244.143 151.541 244.664 151.658 245.28 151.658ZM258.977 153.264C257.1 153.264 255.699 152.582 254.775 151.218C253.866 149.854 253.411 147.889 253.411 145.322C253.411 142.755 253.866 140.79 254.775 139.426C255.699 138.062 257.1 137.38 258.977 137.38C259.681 137.38 260.29 137.475 260.803 137.666C261.316 137.857 261.756 138.113 262.123 138.436C262.49 138.759 262.798 139.125 263.047 139.536C263.296 139.932 263.516 140.335 263.707 140.746L262.123 141.472C261.991 141.135 261.837 140.819 261.661 140.526C261.485 140.218 261.272 139.954 261.023 139.734C260.788 139.499 260.502 139.316 260.165 139.184C259.842 139.052 259.446 138.986 258.977 138.986C257.76 138.986 256.85 139.448 256.249 140.372C255.662 141.296 255.369 142.528 255.369 144.068V146.576C255.369 148.116 255.662 149.348 256.249 150.272C256.85 151.196 257.76 151.658 258.977 151.658C259.446 151.658 259.842 151.592 260.165 151.46C260.502 151.328 260.788 151.152 261.023 150.932C261.272 150.697 261.485 150.433 261.661 150.14C261.837 149.832 261.991 149.509 262.123 149.172L263.707 149.898C263.516 150.323 263.296 150.734 263.047 151.13C262.798 151.526 262.49 151.885 262.123 152.208C261.756 152.531 261.316 152.787 260.803 152.978C260.29 153.169 259.681 153.264 258.977 153.264ZM267.043 153V137.644H276.503V139.25H268.891V144.42H276.239V146.026H268.891V151.394H276.503V153H267.043ZM284.81 153.264C283.431 153.264 282.302 153.015 281.422 152.516C280.542 152.003 279.816 151.35 279.244 150.558L280.586 149.458C281.187 150.206 281.818 150.763 282.478 151.13C283.153 151.497 283.952 151.68 284.876 151.68C285.991 151.68 286.841 151.423 287.428 150.91C288.015 150.397 288.308 149.678 288.308 148.754C288.308 148.006 288.095 147.427 287.67 147.016C287.245 146.591 286.504 146.29 285.448 146.114L283.732 145.828C282.984 145.696 282.353 145.498 281.84 145.234C281.341 144.97 280.938 144.655 280.63 144.288C280.322 143.907 280.102 143.496 279.97 143.056C279.838 142.601 279.772 142.132 279.772 141.648C279.772 140.24 280.234 139.177 281.158 138.458C282.082 137.739 283.329 137.38 284.898 137.38C286.13 137.38 287.164 137.585 288 137.996C288.851 138.407 289.533 138.986 290.046 139.734L288.748 140.856C288.323 140.299 287.809 139.844 287.208 139.492C286.607 139.14 285.829 138.964 284.876 138.964C283.835 138.964 283.035 139.184 282.478 139.624C281.921 140.064 281.642 140.724 281.642 141.604C281.642 142.293 281.847 142.858 282.258 143.298C282.683 143.723 283.439 144.031 284.524 144.222L286.174 144.508C286.922 144.64 287.553 144.838 288.066 145.102C288.579 145.366 288.99 145.681 289.298 146.048C289.621 146.415 289.848 146.825 289.98 147.28C290.112 147.735 290.178 148.211 290.178 148.71C290.178 150.133 289.709 151.247 288.77 152.054C287.846 152.861 286.526 153.264 284.81 153.264ZM298.001 153.264C296.623 153.264 295.493 153.015 294.613 152.516C293.733 152.003 293.007 151.35 292.435 150.558L293.777 149.458C294.379 150.206 295.009 150.763 295.669 151.13C296.344 151.497 297.143 151.68 298.067 151.68C299.182 151.68 300.033 151.423 300.619 150.91C301.206 150.397 301.499 149.678 301.499 148.754C301.499 148.006 301.287 147.427 300.861 147.016C300.436 146.591 299.695 146.29 298.639 146.114L296.923 145.828C296.175 145.696 295.545 145.498 295.031 145.234C294.533 144.97 294.129 144.655 293.821 144.288C293.513 143.907 293.293 143.496 293.161 143.056C293.029 142.601 292.963 142.132 292.963 141.648C292.963 140.24 293.425 139.177 294.349 138.458C295.273 137.739 296.52 137.38 298.089 137.38C299.321 137.38 300.355 137.585 301.191 137.996C302.042 138.407 302.724 138.986 303.237 139.734L301.939 140.856C301.514 140.299 301.001 139.844 300.399 139.492C299.798 139.14 299.021 138.964 298.067 138.964C297.026 138.964 296.227 139.184 295.669 139.624C295.112 140.064 294.833 140.724 294.833 141.604C294.833 142.293 295.039 142.858 295.449 143.298C295.875 143.723 296.63 144.031 297.715 144.222L299.365 144.508C300.113 144.64 300.744 144.838 301.257 145.102C301.771 145.366 302.181 145.681 302.489 146.048C302.812 146.415 303.039 146.825 303.171 147.28C303.303 147.735 303.369 148.211 303.369 148.71C303.369 150.133 302.9 151.247 301.961 152.054C301.037 152.861 299.717 153.264 298.001 153.264ZM306.485 153V151.526H310.313V139.118H306.485V137.644H315.989V139.118H312.161V151.526H315.989V153H306.485ZM321.414 139.998H321.26V153H319.588V137.644H322.206L327.442 150.514H327.596V137.644H329.268V153H326.65L321.414 139.998ZM340.788 150.954H340.678C340.546 151.247 340.392 151.533 340.216 151.812C340.04 152.091 339.812 152.34 339.534 152.56C339.27 152.765 338.947 152.934 338.566 153.066C338.184 153.198 337.73 153.264 337.202 153.264C335.53 153.264 334.283 152.589 333.462 151.24C332.655 149.891 332.252 147.955 332.252 145.432C332.252 142.792 332.699 140.79 333.594 139.426C334.488 138.062 335.867 137.38 337.73 137.38C338.448 137.38 339.072 137.475 339.6 137.666C340.128 137.857 340.575 138.113 340.942 138.436C341.323 138.759 341.638 139.125 341.888 139.536C342.137 139.932 342.342 140.335 342.504 140.746L340.92 141.472C340.788 141.135 340.634 140.819 340.458 140.526C340.296 140.218 340.091 139.954 339.842 139.734C339.607 139.499 339.321 139.316 338.984 139.184C338.646 139.052 338.25 138.986 337.796 138.986C336.564 138.986 335.654 139.448 335.068 140.372C334.496 141.296 334.21 142.528 334.21 144.068V146.444C334.21 147.221 334.268 147.933 334.386 148.578C334.503 149.209 334.694 149.759 334.958 150.228C335.236 150.697 335.588 151.064 336.014 151.328C336.454 151.577 336.989 151.702 337.62 151.702C338.617 151.702 339.394 151.401 339.952 150.8C340.509 150.199 340.788 149.421 340.788 148.468V146.884H337.554V145.41H342.504V153H340.788V150.954Z" fill="#9F9EA1"/>
<path d="M340 50H386V96H340V50Z" fill="white" fill-opacity="0.01"/>
<path d="M347.619 61.4519H378.285" stroke="white" stroke-width="3" stroke-linecap="round" stroke-linejoin="round"/>
<path d="M347.619 72.9519H378.285" stroke="white" stroke-width="3" stroke-linecap="round" stroke-linejoin="round"/>
<path d="M347.619 84.4519H378.285" stroke="white" stroke-width="3" stroke-linecap="round" stroke-linejoin="round"/>
<path d="M299.47 37.18C298.53 37.18 297.76 37.01 297.16 36.67C296.56 36.32 296.065 35.875 295.675 35.335L296.59 34.585C297 35.095 297.43 35.475 297.88 35.725C298.34 35.975 298.885 36.1 299.515 36.1C300.275 36.1 300.855 35.925 301.255 35.575C301.655 35.225 301.855 34.735 301.855 34.105C301.855 33.595 301.71 33.2 301.42 32.92C301.13 32.63 300.625 32.425 299.905 32.305L298.735 32.11C298.225 32.02 297.795 31.885 297.445 31.705C297.105 31.525 296.83 31.31 296.62 31.06C296.41 30.8 296.26 30.52 296.17 30.22C296.08 29.91 296.035 29.59 296.035 29.26C296.035 28.3 296.35 27.575 296.98 27.085C297.61 26.595 298.46 26.35 299.53 26.35C300.37 26.35 301.075 26.49 301.645 26.77C302.225 27.05 302.69 27.445 303.04 27.955L302.155 28.72C301.865 28.34 301.515 28.03 301.105 27.79C300.695 27.55 300.165 27.43 299.515 27.43C298.805 27.43 298.26 27.58 297.88 27.88C297.5 28.18 297.31 28.63 297.31 29.23C297.31 29.7 297.45 30.085 297.73 30.385C298.02 30.675 298.535 30.885 299.275 31.015L300.4 31.21C300.91 31.3 301.34 31.435 301.69 31.615C302.04 31.795 302.32 32.01 302.53 32.26C302.75 32.51 302.905 32.79 302.995 33.1C303.085 33.41 303.13 33.735 303.13 34.075C303.13 35.045 302.81 35.805 302.17 36.355C301.54 36.905 300.64 37.18 299.47 37.18ZM308.494 37.18C307.854 37.18 307.304 37.06 306.844 36.82C306.384 36.57 306.004 36.215 305.704 35.755C305.404 35.295 305.184 34.73 305.044 34.06C304.904 33.39 304.834 32.625 304.834 31.765C304.834 30.915 304.904 30.155 305.044 29.485C305.184 28.805 305.404 28.235 305.704 27.775C306.004 27.315 306.384 26.965 306.844 26.725C307.304 26.475 307.854 26.35 308.494 26.35C309.134 26.35 309.684 26.475 310.144 26.725C310.604 26.965 310.984 27.315 311.284 27.775C311.584 28.235 311.804 28.805 311.944 29.485C312.084 30.155 312.154 30.915 312.154 31.765C312.154 32.625 312.084 33.39 311.944 34.06C311.804 34.73 311.584 35.295 311.284 35.755C310.984 36.215 310.604 36.57 310.144 36.82C309.684 37.06 309.134 37.18 308.494 37.18ZM308.494 36.085C308.914 36.085 309.269 36.005 309.559 35.845C309.849 35.675 310.089 35.44 310.279 35.14C310.469 34.84 310.604 34.48 310.684 34.06C310.774 33.63 310.819 33.15 310.819 32.62V30.91C310.819 30.39 310.774 29.915 310.684 29.485C310.604 29.055 310.469 28.69 310.279 28.39C310.089 28.09 309.849 27.86 309.559 27.7C309.269 27.53 308.914 27.445 308.494 27.445C308.074 27.445 307.719 27.53 307.429 27.7C307.139 27.86 306.899 28.09 306.709 28.39C306.519 28.69 306.379 29.055 306.289 29.485C306.209 29.915 306.169 30.39 306.169 30.91V32.62C306.169 33.15 306.209 33.63 306.289 34.06C306.379 34.48 306.519 34.84 306.709 35.14C306.899 35.44 307.139 35.675 307.429 35.845C307.719 36.005 308.074 36.085 308.494 36.085ZM314.788 37V26.53H316.048V35.905H321.013V37H314.788ZM337.802 31.75V28.435H337.682L335.477 33.82L333.272 28.435H333.152V31.75V37H331.997V26.53H333.617L335.462 31.15H335.552L337.397 26.53H338.957V37H337.802V31.75ZM347.186 37L346.301 34.015H342.626L341.741 37H340.436L343.646 26.53H345.311L348.521 37H347.186ZM344.531 27.865H344.396L342.926 32.92H346.001L344.531 27.865ZM350.225 37V35.995H352.835V27.535H350.225V26.53H356.705V27.535H354.095V35.995H356.705V37H350.225ZM360.404 28.135H360.299V37H359.159V26.53H360.944L364.514 35.305H364.619V26.53H365.759V37H363.974L360.404 28.135ZM368.303 37V26.53H374.753V27.625H369.563V31.15H374.573V32.245H369.563V35.905H374.753V37H368.303ZM381.077 27.625V37H379.817V27.625H376.322V26.53H384.572V27.625H381.077Z" fill="#9F9EA1"/>
<path d="M26.825 64.75V61.435H26.705L24.5 66.82L22.295 61.435H22.175V64.75V70H21.02V59.53H22.64L24.485 64.15H24.575L26.42 59.53H27.98V70H26.825V64.75ZM32.8641 70V65.89L29.2491 59.53H30.6891L32.1891 62.26L33.4641 64.645H33.5241L34.8291 62.26L36.3291 59.53H37.7391L34.1241 65.89V70H32.8641ZM54.1974 70L53.3124 67.015H49.6374L48.7524 70H47.4474L50.6574 59.53H52.3224L55.5324 70H54.1974ZM51.5424 60.865H51.4074L49.9374 65.92H53.0124L51.5424 60.865ZM60.8216 70.18C59.5416 70.18 58.5866 69.715 57.9566 68.785C57.3366 67.855 57.0266 66.515 57.0266 64.765C57.0266 63.015 57.3366 61.675 57.9566 60.745C58.5866 59.815 59.5416 59.35 60.8216 59.35C61.3016 59.35 61.7166 59.415 62.0666 59.545C62.4166 59.675 62.7166 59.85 62.9666 60.07C63.2166 60.29 63.4266 60.54 63.5966 60.82C63.7666 61.09 63.9166 61.365 64.0466 61.645L62.9666 62.14C62.8766 61.91 62.7716 61.695 62.6516 61.495C62.5316 61.285 62.3866 61.105 62.2166 60.955C62.0566 60.795 61.8616 60.67 61.6316 60.58C61.4116 60.49 61.1416 60.445 60.8216 60.445C59.9916 60.445 59.3716 60.76 58.9616 61.39C58.5616 62.02 58.3616 62.86 58.3616 63.91V65.62C58.3616 66.67 58.5616 67.51 58.9616 68.14C59.3716 68.77 59.9916 69.085 60.8216 69.085C61.1416 69.085 61.4116 69.04 61.6316 68.95C61.8616 68.86 62.0566 68.74 62.2166 68.59C62.3866 68.43 62.5316 68.25 62.6516 68.05C62.7716 67.84 62.8766 67.62 62.9666 67.39L64.0466 67.885C63.9166 68.175 63.7666 68.455 63.5966 68.725C63.4266 68.995 63.2166 69.24 62.9666 69.46C62.7166 69.68 62.4166 69.855 62.0666 69.985C61.7166 70.115 61.3016 70.18 60.8216 70.18ZM69.8157 70.18C68.5357 70.18 67.5807 69.715 66.9507 68.785C66.3307 67.855 66.0207 66.515 66.0207 64.765C66.0207 63.015 66.3307 61.675 66.9507 60.745C67.5807 59.815 68.5357 59.35 69.8157 59.35C70.2957 59.35 70.7107 59.415 71.0607 59.545C71.4107 59.675 71.7107 59.85 71.9607 60.07C72.2107 60.29 72.4207 60.54 72.5907 60.82C72.7607 61.09 72.9107 61.365 73.0407 61.645L71.9607 62.14C71.8707 61.91 71.7657 61.695 71.6457 61.495C71.5257 61.285 71.3807 61.105 71.2107 60.955C71.0507 60.795 70.8557 60.67 70.6257 60.58C70.4057 60.49 70.1357 60.445 69.8157 60.445C68.9857 60.445 68.3657 60.76 67.9557 61.39C67.5557 62.02 67.3557 62.86 67.3557 63.91V65.62C67.3557 66.67 67.5557 67.51 67.9557 68.14C68.3657 68.77 68.9857 69.085 69.8157 69.085C70.1357 69.085 70.4057 69.04 70.6257 68.95C70.8557 68.86 71.0507 68.74 71.2107 68.59C71.3807 68.43 71.5257 68.25 71.6457 68.05C71.7657 67.84 71.8707 67.62 71.9607 67.39L73.0407 67.885C72.9107 68.175 72.7607 68.455 72.5907 68.725C72.4207 68.995 72.2107 69.24 71.9607 69.46C71.7107 69.68 71.4107 69.855 71.0607 69.985C70.7107 70.115 70.2957 70.18 69.8157 70.18ZM78.4648 70.18C77.8248 70.18 77.2748 70.06 76.8148 69.82C76.3548 69.57 75.9748 69.215 75.6748 68.755C75.3748 68.295 75.1548 67.73 75.0148 67.06C74.8748 66.39 74.8048 65.625 74.8048 64.765C74.8048 63.915 74.8748 63.155 75.0148 62.485C75.1548 61.805 75.3748 61.235 75.6748 60.775C75.9748 60.315 76.3548 59.965 76.8148 59.725C77.2748 59.475 77.8248 59.35 78.4648 59.35C79.1048 59.35 79.6548 59.475 80.1148 59.725C80.5748 59.965 80.9548 60.315 81.2548 60.775C81.5548 61.235 81.7748 61.805 81.9148 62.485C82.0548 63.155 82.1248 63.915 82.1248 64.765C82.1248 65.625 82.0548 66.39 81.9148 67.06C81.7748 67.73 81.5548 68.295 81.2548 68.755C80.9548 69.215 80.5748 69.57 80.1148 69.82C79.6548 70.06 79.1048 70.18 78.4648 70.18ZM78.4648 69.085C78.8848 69.085 79.2398 69.005 79.5298 68.845C79.8198 68.675 80.0598 68.44 80.2498 68.14C80.4398 67.84 80.5748 67.48 80.6548 67.06C80.7448 66.63 80.7898 66.15 80.7898 65.62V63.91C80.7898 63.39 80.7448 62.915 80.6548 62.485C80.5748 62.055 80.4398 61.69 80.2498 61.39C80.0598 61.09 79.8198 60.86 79.5298 60.7C79.2398 60.53 78.8848 60.445 78.4648 60.445C78.0448 60.445 77.6898 60.53 77.3998 60.7C77.1098 60.86 76.8698 61.09 76.6798 61.39C76.4898 61.69 76.3498 62.055 76.2598 62.485C76.1798 62.915 76.1398 63.39 76.1398 63.91V65.62C76.1398 66.15 76.1798 66.63 76.2598 67.06C76.3498 67.48 76.4898 67.84 76.6798 68.14C76.8698 68.44 77.1098 68.675 77.3998 68.845C77.6898 69.005 78.0448 69.085 78.4648 69.085ZM85.419 59.53V65.815C85.419 66.325 85.434 66.78 85.464 67.18C85.494 67.58 85.574 67.925 85.704 68.215C85.834 68.495 86.034 68.71 86.304 68.86C86.584 69.01 86.969 69.085 87.459 69.085C87.949 69.085 88.329 69.01 88.599 68.86C88.879 68.71 89.084 68.495 89.214 68.215C89.344 67.925 89.424 67.58 89.454 67.18C89.484 66.78 89.499 66.325 89.499 65.815V59.53H90.759V65.515C90.759 66.295 90.719 66.975 90.639 67.555C90.569 68.135 90.414 68.62 90.174 69.01C89.944 69.4 89.609 69.695 89.169 69.895C88.739 70.085 88.169 70.18 87.459 70.18C86.749 70.18 86.174 70.085 85.734 69.895C85.304 69.695 84.969 69.4 84.729 69.01C84.499 68.62 84.344 68.135 84.264 67.555C84.194 66.975 84.159 66.295 84.159 65.515V59.53H85.419ZM94.3981 61.135H94.2931V70H93.1531V59.53H94.9381L98.5081 68.305H98.6131V59.53H99.7531V70H97.9681L94.3981 61.135ZM106.077 60.625V70H104.817V60.625H101.322V59.53H109.572V60.625H106.077Z" fill="#9F9EA1"/>
<path d="M57.83 35L57.038 31.976H53.6L52.826 35H50.09L53.492 22.436H57.308L60.71 35H57.83ZM55.4 25.046H55.256L54.032 29.798H56.624L55.4 25.046ZM64.825 35H62.161V22.436H67.021C67.633 22.436 68.179 22.532 68.659 22.724C69.139 22.904 69.541 23.168 69.865 23.516C70.201 23.864 70.453 24.284 70.621 24.776C70.789 25.268 70.873 25.82 70.873 26.432C70.873 27.32 70.681 28.082 70.297 28.718C69.913 29.354 69.367 29.774 68.659 29.978L71.125 35H68.173L66.067 30.338H64.825V35ZM66.373 28.25C67.009 28.25 67.447 28.13 67.687 27.89C67.939 27.65 68.065 27.254 68.065 26.702V26.162C68.065 25.61 67.939 25.214 67.687 24.974C67.447 24.734 67.009 24.614 66.373 24.614H64.825V28.25H66.373ZM76.6259 29.762L75.5099 31.328V35H72.8099V22.436H75.5099V27.692H75.6539L77.0219 25.604L79.2359 22.436H82.2599L78.4979 27.746L82.4399 35H79.3979L76.6259 29.762ZM86.4289 35V30.554L82.4509 22.436H85.4569L86.7889 25.352L87.7609 27.818H87.9049L88.8769 25.352L90.2089 22.436H93.1069L89.1289 30.554V35H86.4289Z" fill="white"/>
<path fill-rule="evenodd" clip-rule="evenodd" d="M29.3987 16.8096L28.4267 16.9358L28.6921 19.0029C28.2141 19.1064 27.7364 19.2472 27.2612 19.4258L26.7629 17.3194L25.8089 17.5455L26.3465 19.8191C25.9037 20.0344 25.464 20.2844 25.0303 20.5715L24.1239 18.3225L23.2157 18.688L24.2139 21.1649C23.9507 21.3748 23.7021 21.5926 23.4665 21.8188L21.693 19.7011L20.9406 20.3306L22.788 22.5369C22.5428 22.8215 22.3154 23.1151 22.1077 23.4171L19.8047 22.0025L19.2916 22.8385L21.5929 24.2499C21.3986 24.601 21.2277 24.961 21.0783 25.3267L18.5851 24.6548L18.331 25.6021L20.7504 26.253C20.5621 26.8788 20.4341 27.5171 20.3652 28.1594L18.2851 28.0414L18.2311 29.0216L20.3061 29.1379C20.2967 29.7571 20.3404 30.3752 20.4357 30.9838L18.6457 31.313L18.8228 32.2769L20.6308 31.9441C20.7822 32.5486 20.9844 33.1391 21.2372 33.7063L19.8571 34.3341L20.2637 35.2259L21.6799 34.5816C21.9925 35.1343 22.3568 35.6586 22.7699 36.1454L21.693 37.0273L22.3142 37.7862L23.442 36.8617C23.9091 37.3125 24.4241 37.7195 24.9844 38.0747L24.4237 38.9188L25.2401 39.4614L25.84 38.5581C26.4233 38.8497 27.0472 39.0879 27.7087 39.2647L27.8956 38.3352C27.3546 38.1899 26.8437 38 26.3645 37.7681L26.7563 37.178L25.94 36.6354L25.5057 37.2894C25.0273 36.9848 24.5874 36.636 24.1861 36.2518L24.9155 35.6535L24.2943 34.8962L23.5157 35.5339C23.1609 35.1095 22.8455 34.655 22.5716 34.1749L23.7518 33.6372L23.3452 32.7455L22.1288 33.2996C21.9089 32.8051 21.7291 32.2921 21.5929 31.7669L23.2878 31.4539L23.1108 30.4901L21.3945 30.8064C21.3113 30.2736 21.2714 29.7334 21.2765 29.1919L23.3763 29.3099L23.4321 28.3313L21.3355 28.2132C21.3738 27.8702 21.4302 27.5277 21.506 27.1888C21.7276 27.2188 21.9864 27.2505 22.2961 27.2855C23.0476 27.3703 24.0184 27.4663 24.9794 27.5575C26.5519 27.7069 27.5831 27.7953 28.0938 27.8395L26.3595 31.6342L26.0564 32.2981L26.1268 32.3014L29.3036 34.1455L29.797 33.2981L28.2266 32.3867L30.9427 32.4964L30.982 31.5162L28.3938 31.4113L30.1559 30.7179L29.7969 29.8049L27.9397 30.536L29.2741 27.6166L29.5626 26.984L28.8692 26.925C28.8692 26.925 26.9871 26.7644 25.0713 26.5825C24.1133 26.4914 23.1464 26.3955 22.406 26.3119C22.1637 26.2846 21.9591 26.2587 21.7749 26.2348C22.2906 24.7128 23.216 23.2853 24.5976 22.1172L25.6958 24.8448L26.6056 24.4776L25.4057 21.5009C25.4212 21.4903 25.436 21.4788 25.4516 21.4681C25.8246 21.2143 26.2005 20.991 26.5778 20.7961L27.5678 24.9875L28.5217 24.763L27.4873 20.3831C27.9296 20.2086 28.3722 20.071 28.8151 19.97L29.433 24.7826L30.4051 24.658L29.7822 19.8045C30.2524 19.7514 30.7209 19.7391 31.1854 19.7618L31.3427 24.8073L32.323 24.7761L32.3049 24.186L34.0999 26.2463L32.1444 27.1414L32.5525 28.0331L34.2474 27.2578L33.4245 28.9543L34.3064 29.3838L35.5341 26.8545L35.6768 26.5627L35.4636 26.3185L33.2934 23.8286L35.9438 21.3191C37.1912 22.1062 38.3267 23.1644 39.2764 24.4318C38.0272 24.7539 36.9673 25.6987 36.6176 27.2495L39.0829 32.6556L39.9681 32.5294L38.5551 28.9298L39.4681 28.5708L40.9663 32.3868L42.7924 32.1245L42.3513 24.8531C41.7345 24.5095 41.059 24.329 40.3942 24.3089C40.1537 23.9601 39.9006 23.6244 39.6352 23.3023L40.6089 22.3221L39.9139 21.6321L38.9845 22.5664C38.7183 22.2855 38.4416 22.0187 38.1567 21.7649L39.1075 20.3322L38.2894 19.7913L37.3977 21.137C37.0806 20.8944 36.7536 20.6688 36.4192 20.46L36.9731 18.7897L36.042 18.4815L35.5503 19.9649C35.1755 19.7727 34.7919 19.6018 34.4013 19.4535L34.5668 17.6866L33.5899 17.5948L33.4456 19.1421C33.0165 19.0241 32.5803 18.9346 32.1393 18.8733L32.0901 17.2898L31.11 17.3195L31.1559 18.7848C31.0686 18.7815 30.9812 18.7793 30.8936 18.7783C30.8312 18.7776 30.7693 18.7779 30.7067 18.7783C30.3588 18.7809 30.0096 18.8021 29.6593 18.8423L29.3986 16.8097L29.3987 16.8096ZM32.1705 19.8635C32.569 19.9276 32.9631 20.0183 33.3523 20.1339L33.1195 22.6205L33.1409 22.6222L32.2819 23.4352L32.1704 19.8635H32.1705ZM34.3063 20.4699C34.5584 20.5736 34.808 20.6878 35.0538 20.8125L34.1981 21.6223L34.3063 20.4699H34.3063ZM40.1582 25.2547C40.1994 25.2535 40.2407 25.255 40.2828 25.258C40.9569 25.3052 41.4546 25.8792 41.4073 26.5529C41.36 27.2264 40.7864 27.7247 40.1123 27.6774C39.4382 27.6301 38.9405 27.0559 38.9878 26.3824C39.0321 25.751 39.5396 25.2729 40.1582 25.2547ZM34.2179 38.0566C33.9405 38.1411 33.6677 38.2151 33.3983 38.2811L33.6081 39.2401C33.9034 39.1689 34.202 39.088 34.5047 38.9958L34.2178 38.0565L34.2179 38.0566ZM32.4394 38.4811C32.0643 38.5455 31.6974 38.5913 31.3394 38.6204L31.3591 39.5925C31.779 39.5631 32.209 39.513 32.6476 39.4384L32.4393 38.4811H32.4394ZM28.8545 38.5385L28.666 39.4711C29.2148 39.5634 29.7862 39.6154 30.3789 39.622L30.3592 38.6598C29.8368 38.6566 29.3356 38.6141 28.8545 38.5385Z" fill="white"/>
</svg>
